<svg xmlns="http://www.w3.org/2000/svg" width="161" height="20" viewBox="0 0 161 20">
    <g fill="none" fill-rule="evenodd">
        <g fill-rule="nonzero">
            <g>
                <g>
                    <path fill="#00AAB1" d="M18.139 19.756c-.37 0-.678-.122-.922-.367-.244-.244-.366-.551-.366-.922v-7.225c0-1.061-.262-1.848-.784-2.362s-1.204-.77-2.046-.77c-.876 0-1.596.303-2.16.909-.564.606-.846 1.381-.846 2.324H8.918c0-1.095.236-2.059.707-2.892.472-.834 1.133-1.487 1.983-1.958.851-.472 1.824-.708 2.918-.708.96 0 1.81.21 2.552.632.741.42 1.318 1.04 1.73 1.857.413.817.62 1.806.62 2.968v7.225c0 .37-.119.678-.354.922-.236.245-.548.367-.935.367zm-16.85 0c-.371 0-.678-.122-.923-.367-.244-.244-.366-.551-.366-.922V7.225c0-.387.122-.699.366-.934.245-.236.552-.354.922-.354.388 0 .7.118.935.354.236.235.354.547.354.934v11.242c0 .37-.118.678-.354.922-.236.245-.547.367-.935.367zm8.437 0c-.37 0-.678-.122-.922-.367-.244-.244-.366-.551-.366-.922v-7.225c0-1.061-.261-1.848-.783-2.362s-1.204-.77-2.047-.77c-.875 0-1.6.303-2.172.909-.573.606-.86 1.381-.86 2.324H.987c0-1.095.218-2.059.656-2.892.438-.834 1.044-1.487 1.82-1.958.774-.472 1.658-.708 2.652-.708.96 0 1.81.21 2.551.632.741.42 1.318 1.04 1.73 1.857.413.817.62 1.806.62 2.968v7.225c0 .37-.118.678-.354.922-.236.245-.547.367-.935.367zm32.11 0c-.37 0-.678-.122-.922-.367-.245-.244-.367-.551-.367-.922v-7.225c0-1.061-.26-1.848-.783-2.362-.522-.514-1.204-.77-2.046-.77-.876 0-1.596.303-2.16.909-.564.606-.846 1.381-.846 2.324h-2.097c0-1.095.236-2.059.707-2.892.472-.834 1.133-1.487 1.983-1.958.85-.472 1.823-.708 2.918-.708.96 0 1.81.21 2.552.632.74.42 1.318 1.04 1.73 1.857.413.817.62 1.806.62 2.968v7.225c0 .37-.119.678-.354.922-.236.245-.548.367-.935.367zm-16.85 0c-.371 0-.679-.122-.923-.367-.244-.244-.366-.551-.366-.922V7.225c0-.387.122-.699.366-.934.244-.236.552-.354.922-.354.388 0 .7.118.935.354.236.235.354.547.354.934v11.242c0 .37-.118.678-.354.922-.236.245-.547.367-.935.367zm8.437 0c-.37 0-.678-.122-.922-.367-.244-.244-.366-.551-.366-.922v-7.225c0-1.061-.261-1.848-.783-2.362-.523-.514-1.205-.77-2.047-.77-.876 0-1.6.303-2.172.909-.573.606-.86 1.381-.86 2.324h-1.59c0-1.095.218-2.059.656-2.892.438-.834 1.044-1.487 1.819-1.958.775-.472 1.659-.708 2.653-.708.96 0 1.81.21 2.551.632.741.42 1.318 1.04 1.73 1.857.413.817.62 1.806.62 2.968v7.225c0 .37-.118.678-.354.922-.236.245-.547.367-.935.367zm20.918.076c-1.314 0-2.493-.308-3.537-.923-1.044-.614-1.87-1.452-2.476-2.513-.606-1.061-.917-2.257-.934-3.588V1.288c0-.387.122-.699.366-.934.244-.236.552-.354.922-.354.387 0 .7.118.935.354.236.235.354.547.354.934V8.11c.589-.707 1.3-1.267 2.134-1.68.834-.412 1.748-.618 2.741-.618 1.23 0 2.333.307 3.31.922.977.614 1.747 1.448 2.311 2.5.565 1.053.847 2.245.847 3.575 0 1.331-.308 2.527-.922 3.588-.615 1.06-1.445 1.899-2.489 2.513-1.044.615-2.231.923-3.562.923zm0-2.274c.859 0 1.625-.206 2.299-.62.674-.412 1.208-.98 1.604-1.704.396-.725.594-1.533.594-2.426 0-.91-.198-1.717-.594-2.425-.396-.707-.93-1.267-1.604-1.68-.674-.412-1.44-.619-2.299-.619-.842 0-1.604.207-2.286.62-.682.412-1.217.972-1.604 1.68-.388.707-.582 1.515-.582 2.424 0 .893.194 1.701.582 2.426.387.724.922 1.292 1.604 1.705.682.413 1.444.619 2.286.619z" transform="translate(-370 -8249) translate(0 8173) translate(370 76)"/>
                    <path fill="#000" d="M71.074 19.857c-1.162 0-2.202-.249-3.12-.745-.918-.497-1.642-1.226-2.173-2.186-.53-.96-.796-2.139-.796-3.537V7.175c0-.37.122-.678.367-.922.244-.245.551-.367.922-.367.37 0 .678.122.922.367.244.244.366.551.366.922v6.214c0 .944.177 1.723.53 2.337.354.615.834 1.07 1.44 1.365.607.294 1.289.442 2.047.442.724 0 1.368-.144 1.933-.43.564-.286 1.014-.674 1.351-1.162.337-.488.505-1.036.505-1.642h1.592c0 1.044-.257 1.987-.77 2.83-.514.842-1.213 1.507-2.097 1.995-.885.489-1.89.733-3.02.733zm5.583-.126c-.37 0-.678-.123-.922-.367s-.367-.551-.367-.922V7.175c0-.388.123-.7.367-.935.244-.236.551-.354.922-.354.387 0 .699.118.935.354.235.236.353.547.353.935v11.267c0 .37-.118.678-.353.922-.236.244-.548.367-.935.367zm10.863.1c-1.179 0-2.27-.18-3.272-.543-1.002-.362-1.78-.82-2.336-1.376-.253-.27-.358-.577-.316-.923.042-.345.206-.627.492-.846.337-.27.67-.383.998-.34.329.041.61.189.847.441.286.32.745.62 1.376.897.632.278 1.335.417 2.11.417.977 0 1.722-.16 2.236-.48.513-.32.779-.733.796-1.238.016-.505-.224-.943-.72-1.314-.497-.37-1.403-.673-2.716-.91-1.701-.336-2.935-.841-3.701-1.515-.767-.674-1.15-1.499-1.15-2.476 0-.859.253-1.57.758-2.134.505-.565 1.154-.986 1.945-1.264.792-.278 1.617-.416 2.476-.416 1.112 0 2.097.176 2.956.53.859.354 1.541.842 2.046 1.465.236.27.346.552.329.847-.017.294-.16.543-.43.745-.27.185-.59.244-.96.177-.37-.068-.682-.22-.935-.455-.42-.404-.875-.682-1.364-.834-.488-.151-1.052-.227-1.692-.227-.741 0-1.369.126-1.882.379-.514.253-.771.623-.771 1.111 0 .304.08.577.24.822.16.244.476.463.947.656.472.194 1.162.384 2.072.569 1.263.252 2.261.572 2.994.96.732.387 1.259.838 1.579 1.351.32.514.48 1.108.48 1.781 0 .775-.207 1.474-.62 2.097-.412.623-1.018 1.12-1.818 1.49-.8.371-1.798.557-2.994.557zm10.232-.1c-.37 0-.678-.123-.923-.367-.244-.244-.366-.551-.366-.922V7.2c0-.387.122-.699.366-.935.245-.236.552-.353.923-.353.387 0 .699.117.934.353.236.236.354.548.354.935v11.242c0 .37-.118.678-.354.922-.235.244-.547.367-.934.367zm0-16.068c-.455 0-.847-.164-1.175-.492-.329-.329-.493-.72-.493-1.175 0-.455.164-.847.493-1.175.328-.328.72-.493 1.175-.493.454 0 .846.165 1.174.493.329.328.493.72.493 1.175 0 .455-.164.846-.493 1.175-.328.328-.72.492-1.174.492zm17.76 16.093c-.37 0-.678-.122-.923-.367-.244-.244-.366-.551-.366-.922v-6.214c0-.96-.177-1.744-.53-2.35-.354-.606-.83-1.057-1.428-1.351-.598-.295-1.284-.443-2.059-.443-.707 0-1.347.144-1.92.43-.572.286-1.027.67-1.364 1.15-.337.48-.505 1.031-.505 1.654h-1.592c0-1.06.257-2.008.77-2.842.514-.834 1.218-1.495 2.11-1.983.893-.489 1.895-.733 3.007-.733 1.162 0 2.202.249 3.12.746.917.496 1.642 1.225 2.172 2.185.53.96.796 2.139.796 3.537v6.214c0 .37-.122.678-.366.922-.245.245-.552.367-.922.367zm-10.384 0c-.37 0-.677-.122-.922-.367-.244-.244-.366-.551-.366-.922V7.2c0-.387.122-.699.366-.935.245-.236.552-.353.922-.353.388 0 .7.117.935.353.236.236.354.548.354.935v11.267c0 .37-.118.678-.354.922-.236.245-.547.367-.935.367zm17.605-8.06h8.414c-.074-.562-.225-1.08-.452-1.553-.32-.665-.775-1.191-1.364-1.579-.59-.387-1.306-.58-2.148-.58-.96 0-1.78.21-2.463.63-.682.422-1.2.999-1.554 1.731-.202.42-.346.87-.433 1.352zm-.028 2.022c.093.576.28 1.106.562 1.591.421.725 1.002 1.297 1.744 1.718.74.421 1.591.632 2.551.632.522 0 1.057-.097 1.604-.29.548-.194.99-.417 1.327-.67.252-.185.526-.282.82-.29.295-.009.552.08.771.265.287.252.438.53.455.833.017.304-.118.565-.404.784-.573.454-1.284.825-2.135 1.111-.85.286-1.663.43-2.438.43-1.398 0-2.64-.3-3.726-.897-1.087-.598-1.937-1.423-2.552-2.476s-.922-2.261-.922-3.625c0-1.381.29-2.598.872-3.65.58-1.053 1.385-1.879 2.412-2.477 1.028-.598 2.207-.896 3.537-.896 1.314 0 2.442.29 3.385.871.944.581 1.664 1.381 2.16 2.4.497 1.02.746 2.194.746 3.524 0 .32-.11.586-.329.796-.219.21-.497.316-.833.316h-9.607zm19.08 6.114c-1.179 0-2.27-.181-3.271-.544-1.002-.362-1.781-.82-2.337-1.376-.253-.27-.358-.577-.316-.923.042-.345.206-.627.493-.846.337-.27.67-.383.998-.34.328.041.61.189.846.441.286.32.745.62 1.377.897.631.278 1.334.417 2.11.417.976 0 1.721-.16 2.235-.48.514-.32.779-.733.796-1.238.017-.505-.223-.943-.72-1.314-.497-.37-1.402-.673-2.716-.91-1.701-.336-2.935-.841-3.701-1.515-.766-.674-1.15-1.499-1.15-2.476 0-.859.253-1.57.758-2.134.506-.565 1.154-.986 1.946-1.264.791-.278 1.616-.416 2.475-.416 1.112 0 2.097.176 2.956.53.86.354 1.541.842 2.047 1.465.235.27.345.552.328.847-.017.294-.16.543-.43.745-.269.185-.589.244-.96.177-.37-.068-.682-.22-.934-.455-.421-.404-.876-.682-1.364-.834-.489-.151-1.053-.227-1.693-.227-.741 0-1.369.126-1.882.379-.514.253-.77.623-.77 1.111 0 .304.08.577.24.822.16.244.475.463.947.656.471.194 1.162.384 2.071.569 1.263.252 2.261.572 2.994.96.733.387 1.259.838 1.579 1.351.32.514.48 1.108.48 1.781 0 .775-.206 1.474-.62 2.097-.412.623-1.018 1.12-1.818 1.49-.8.371-1.798.557-2.994.557zm13.718 0c-1.179 0-2.27-.181-3.271-.544-1.003-.362-1.781-.82-2.337-1.376-.253-.27-.358-.577-.316-.923.042-.345.206-.627.493-.846.336-.27.67-.383.997-.34.329.041.611.189.847.441.286.32.745.62 1.377.897.631.278 1.334.417 2.11.417.976 0 1.721-.16 2.235-.48.514-.32.779-.733.796-1.238.017-.505-.223-.943-.72-1.314-.497-.37-1.402-.673-2.716-.91-1.701-.336-2.935-.841-3.701-1.515-.766-.674-1.15-1.499-1.15-2.476 0-.859.253-1.57.758-2.134.506-.565 1.154-.986 1.946-1.264.791-.278 1.616-.416 2.475-.416 1.112 0 2.097.176 2.956.53.86.354 1.541.842 2.046 1.465.236.27.346.552.329.847-.017.294-.16.543-.43.745-.27.185-.59.244-.96.177-.37-.068-.682-.22-.934-.455-.421-.404-.876-.682-1.365-.834-.488-.151-1.052-.227-1.692-.227-.741 0-1.369.126-1.882.379-.514.253-.77.623-.77 1.111 0 .304.08.577.24.822.16.244.475.463.947.656.471.194 1.162.384 2.071.569 1.263.252 2.261.572 2.994.96.732.387 1.259.838 1.579 1.351.32.514.48 1.108.48 1.781 0 .775-.207 1.474-.62 2.097-.412.623-1.018 1.12-1.818 1.49-.8.371-1.798.557-2.994.557z" transform="translate(-370 -8249) translate(0 8173) translate(370 76)"/>
                </g>
            </g>
        </g>
    </g>
</svg>
