<svg xmlns="http://www.w3.org/2000/svg" width="350" height="314" viewBox="0 0 350 314">
    <g fill="none" fill-rule="evenodd">
        <g>
            <g>
                <path fill="#FF6452" d="M209.984 74.713c21.51 0 38.828 16.743 39.634 38.234l60.259-.111c.12 0 .236.048.32.132.085.086.135.202.135.32l.088 60.255c21.548.517 38.961 18.324 38.961 40.017 0 21.614-17.348 39.402-38.81 39.975l.09 59.688c0 .25-.2.455-.45.455l-199.842.312c-.119 0-.234-.048-.32-.132-.084-.084-.132-.2-.132-.32l-.093-59.785c-21.413-.46-38.787-18.141-38.824-39.62-.038-21.475 17.279-39.213 38.696-39.75l-.092-60.76c0-.252.201-.453.453-.455l60.258-.11c.731-21.502 18.04-38.309 39.596-38.345h.073z" transform="translate(-180 -1875) translate(180 1875)"/>
                <path fill="#120610" d="M206.984 73.713c21.51 0 38.828 16.743 39.634 38.234l60.259-.111c.12 0 .236.048.32.132.085.086.135.202.135.32l.088 60.255c21.548.517 38.961 18.324 38.961 40.017 0 21.614-17.348 39.402-38.81 39.975l.09 59.688c0 .25-.2.455-.45.455l-199.842.312c-.119 0-.234-.048-.32-.132-.084-.084-.132-.2-.132-.32l-.093-59.785c-21.413-.46-38.787-18.141-38.824-39.62-.038-21.475 17.279-39.213 38.696-39.75l-.092-60.76c0-.252.201-.453.453-.455l60.258-.11c.731-21.502 18.04-38.309 39.596-38.345h.073zm0 .906h-.07c-21.207.036-38.21 16.684-38.706 37.904-.006.245-.206.441-.453.441l-60.244.11.092 60.752c0 .249-.2.45-.449.454-21.125.292-38.285 17.721-38.248 38.85.036 21.134 17.252 38.506 38.377 38.725.248.002.447.205.449.45l.09 59.778 198.934-.311-.093-59.278c-.14-.076-.237-.224-.24-.398-.001-.25.2-.454.45-.456 21.286-.198 38.603-17.73 38.603-39.08 0-21.296-17.172-38.763-38.36-39.116-.046.018-.094.026-.145.026h-.002c-.056 0-.11-.01-.16-.029l-.081-.001c-.251-.002-.452-.207-.45-.457.001-.171.097-.32.237-.396l-.089-59.844-60.245.112h-.002c-.246 0-.445-.196-.453-.442-.57-21.206-17.584-37.794-38.742-37.794z" transform="translate(-180 -1875) translate(180 1875)"/>
                <path fill="#FFF" d="M139.331 183.81c-.104.07-.244.073-.352.004-.075-.042-.129-.101-.16-.18-.013-.036-.02-.082-.026-.12l-.199-24.238c0-.13.066-.247.174-.308.107-.062.248-.066.351-.004l21.167 11.937c.108.07.183.182.183.313-.004.122-.07.24-.175.308l-20.963 12.289M282.263 226.78c0-7.154 5.799-12.952 12.952-12.952 7.154 0 12.952 5.798 12.952 12.952 0 7.151-5.798 12.952-12.952 12.952-7.153 0-12.952-5.8-12.952-12.952M183.966 269.66h-4.103l4.143 35.504-13.035-1.761s-7.13-35.498-4.005-42.129c3.126-6.632 41.23-5.072 41.23-5.072l-24.23 13.458" transform="translate(-180 -1875) translate(180 1875)"/>
                <path fill="#120610" d="M171.168 303.173l12.38 1.683-4.088-35.182c-.01-.09.019-.182.08-.25.06-.069.146-.107.238-.107h4.014l23.115-12.888c-6.365-.192-37.022-.805-39.717 4.939-2.914 6.205 3.384 38.772 3.978 41.805zm12.745 2.375c-.013 0-.027 0-.042-.002l-13.016-1.768c-.134-.019-.243-.123-.27-.255-.291-1.458-7.105-35.762-3.974-42.428 3.175-6.762 39.909-5.333 41.471-5.268.144.006.265.106.298.246.032.139-.031.285-.156.354l-24.194 13.49c-.048.026-.102.04-.155.04h-3.739l4.095 35.233c.012.1-.023.198-.094.267-.059.06-.14.09-.224.09z" transform="translate(-180 -1875) translate(180 1875)"/>
                <path fill="#FFF" d="M199.114 257.371c-.05.09-.154.142-.255.142l-26.959.256h-.013c-.129 0-.244-.077-.294-.206l-8.275-20.824c-.039-.09-.025-.206.027-.296.063-.088.165-.14.268-.14l27.931-.217h.012c.128 0 .257.088.295.217l7.315 20.775c.025.101.013.205-.052.293" transform="translate(-180 -1875) translate(180 1875)"/>
                <path fill="#120610" d="M210.422 273.503c-6.441 0-11.788-.325-12.287-.358-.175-.01-.31-.163-.3-.337.012-.176.158-.34.34-.299.28.02 28.139 1.714 34.444-2.646 4.795-3.317 6.084-8.756 7.33-14.016.413-1.743.8-3.386 1.314-4.97.535-1.656 1.246-3.435 1.934-5.155 1.455-3.648 2.96-7.422 2.112-8.606-.207-.289-.586-.417-1.118-.388-3.583.178-15.398-.002-15.517-.004-.177-.002-.319-.148-.315-.324.002-.176.144-.297.325-.314.117.002 11.912.182 15.475.004.772-.03 1.332.182 1.67.655 1.053 1.467-.38 5.057-2.04 9.213-.68 1.712-1.388 3.48-1.918 5.117-.503 1.557-.889 3.19-1.3 4.92-1.273 5.377-2.59 10.936-7.588 14.39-3.687 2.551-14.073 3.118-22.561 3.118" transform="translate(-180 -1875) translate(180 1875)"/>
                <path fill="#120610" d="M241.455 313.223c-.156 0-.293-.113-.316-.272l-6.571-44.038c-.004-.076.006-2.513-1.836-4.232-1.959-1.828-3.921-1.456-4.004-1.435-.171.035-.342-.075-.377-.247-.037-.173.073-.341.244-.378.095-.02 2.363-.47 4.576 1.594 2.053 1.916 2.036 4.545 2.034 4.656l6.567 43.986c.027.174-.094.337-.27.362-.015.004-.032.004-.047.004" transform="translate(-180 -1875) translate(180 1875)"/>
                <path fill="#FFF" d="M206.754 220.089c-.972.416-2.012.902-2.012.902 0 .391 1.164 2.257 1.164 2.257s1.992.288 3.158.123c3.171-.447 3.737-1.558 3.737-1.558l-3.118-4.148s-1.958 2.006-2.93 2.424" transform="translate(-180 -1875) translate(180 1875)"/>
                <path fill="#120610" d="M206.026 222.832c.476.061 1.978.228 2.894.101 2.208-.311 3.066-.948 3.349-1.234l-2.724-3.616c-.575.567-1.943 1.862-2.743 2.205-.675.288-1.385.612-1.745.777.148.362.565 1.111.97 1.767zm2.072.782c-1.077 0-2.247-.167-2.312-.177-.092-.013-.177-.066-.225-.146-.45-.718-1.202-1.987-1.202-2.4 0-.121.073-.233.184-.285 0 0 1.037-.485 2.005-.898.74-.319 2.272-1.788 2.8-2.329.064-.066.157-.11.25-.094.095.005.182.053.237.127l3.096 4.103c.071.096.082.223.029.33-.066.129-.73 1.262-3.95 1.714-.273.04-.588.055-.912.055z" transform="translate(-180 -1875) translate(180 1875)"/>
                <path fill="#000" d="M204.934 306.154L204.149 313.2 184.211 313.223 195.201 304.396 204.934 306.154M182.484 304.952L181.501 312.626 161.569 312.647 172.556 303.821 182.484 304.952" transform="translate(-180 -1875) translate(180 1875)"/>
                <path fill="#120610" d="M205.318 223.614s-5.943.538-9.388 5.716c-3.445 5.179-3.852 8.878-3.852 8.878l4.663 12.845 2.093-.067 6.484-27.372" transform="translate(-180 -1875) translate(180 1875)"/>
                <path fill="#FFF" d="M197.495 269.466s30.568 4.612 31.745-5.266c1.954-16.381-41.758-6.659-45.42 1.073-2.54 5.364 8.596 39.296 8.596 39.296l13.285 1.17-8.206-36.273" transform="translate(-180 -1875) translate(180 1875)"/>
                <path fill="#120610" d="M192.569 304.33l12.624 1.117-8.099-35.95c-.025-.103.004-.21.077-.288.07-.079.174-.117.282-.1.226.035 22.594 3.35 29.44-1.883 1.12-.853 1.759-1.902 1.904-3.117.45-3.805-1.6-6.39-6.103-7.687-11.592-3.345-35.933 3.158-38.66 8.936-2.354 4.993 7.626 36.159 8.535 38.972zm13.032 1.793h-.029l-13.27-1.174c-.126-.011-.235-.098-.274-.219-.456-1.395-11.134-34.214-8.572-39.645 2.803-5.942 27.621-12.681 39.417-9.278 4.778 1.378 7.046 4.274 6.557 8.377-.165 1.395-.888 2.589-2.147 3.553-6.588 5.033-26.113 2.547-29.464 2.074l8.093 35.922c.023.1-.002.206-.071.28-.06.072-.148.11-.24.11z" transform="translate(-180 -1875) translate(180 1875)"/>
                <path fill="#FFF" d="M221.82 227.066l-9.394-5.18s-1.545 1.36-3.234 1.712c-1.69.353-3.525-.297-3.525-.297s-3.664 2.728-6.998 6.921c-1.913 2.408-3.395 4.2-2.032 10.604 1.36 6.405 2.849 11.762 2.849 11.762l21.237-2.333 1.097-23.19" transform="translate(-180 -1875) translate(180 1875)"/>
                <path fill="#120610" d="M205.831 223.589c-.677.525-3.88 3.087-6.791 6.748l-.052.063c-1.874 2.361-3.23 4.07-1.914 10.257 1.17 5.516 2.451 10.306 2.765 11.456l20.647-2.269 1.073-22.67-9.007-4.968c-.46.37-1.767 1.335-3.2 1.636-1.472.306-3.018-.098-3.52-.253zm-6.227 29.19c-.144 0-.27-.093-.308-.233-.015-.053-1.503-5.43-2.846-11.757-1.379-6.482.13-8.382 2.04-10.787l.05-.061c3.313-4.17 7.002-6.936 7.039-6.963.084-.067.195-.082.296-.046.02.008 1.773.619 3.347.284 1.586-.332 3.068-1.62 3.082-1.634.103-.088.25-.105.365-.038l9.37 5.166c.107.06.172.174.164.295l-1.094 23.142c-.006.157-.128.285-.283.302l-21.188 2.329c-.011.002-.023.002-.034.002z" transform="translate(-180 -1875) translate(180 1875)"/>
                <path fill="#FFF" d="M221.82 227.066l-9.394-5.18s-1.545 1.36-3.234 1.712c-1.69.353-3.525-.297-3.525-.297s-3.664 2.728-6.998 6.921c-1.913 2.408-3.395 4.2-2.032 10.604 1.36 6.405 2.849 11.762 2.849 11.762l21.237-2.333 1.097-23.19" transform="translate(-180 -1875) translate(180 1875)"/>
                <path fill="#120610" d="M205.831 223.589c-.677.525-3.88 3.087-6.791 6.748l-.052.063c-1.874 2.361-3.23 4.07-1.914 10.257 1.17 5.516 2.451 10.306 2.765 11.456l20.647-2.269 1.073-22.67-9.007-4.968c-.46.37-1.767 1.335-3.2 1.636-1.472.306-3.018-.098-3.52-.253zm-6.227 29.19c-.144 0-.27-.093-.308-.233-.015-.053-1.503-5.43-2.846-11.757-1.379-6.482.13-8.382 2.04-10.787l.05-.061c3.313-4.17 7.002-6.936 7.039-6.963.084-.067.195-.082.296-.046.02.008 1.773.619 3.347.284 1.586-.332 3.068-1.62 3.082-1.634.103-.088.25-.105.365-.038l9.37 5.166c.107.06.172.174.164.295l-1.094 23.142c-.006.157-.128.285-.283.302l-21.188 2.329c-.011.002-.023.002-.034.002z" transform="translate(-180 -1875) translate(180 1875)"/>
                <path fill="#120610" d="M216.786 246.03c3.813-4.646-9.207-16.641 1.685-20.34 6.537-2.222 16.95 19.699 11.341 28.041-5.797 8.622-31.797 1.978-31.797 1.978l-1.715-5.152s16.673.116 20.486-4.528" transform="translate(-180 -1875) translate(180 1875)"/>
                <path fill="#120610" d="M172.104 257.13l-8.019-20.188 27.24-.217 7.087 20.15-26.308.254zm27.062-.052l-7.315-20.775c-.038-.129-.167-.217-.295-.217h-.012l-27.93.217c-.104 0-.206.052-.27.14-.051.09-.065.206-.026.296l8.275 20.824c.05.129.165.206.294.206h.013l26.959-.256c.101 0 .205-.051.255-.142.065-.088.077-.192.052-.293z" transform="translate(-180 -1875) translate(180 1875)"/>
                <path fill="#FFF" d="M171.93 259.496L208.388 259.496 208.388 257.577 171.93 257.577z" transform="translate(-180 -1875) translate(180 1875)"/>
                <path fill="#120610" d="M172.187 259.26h35.944v-1.253h-35.944v1.253zm36.266.62h-36.587c-.177 0-.32-.14-.32-.311v-1.873c0-.171.143-.311.32-.311h36.587c.177 0 .319.14.319.31v1.874c0 .17-.142.31-.32.31zM179.317 246.122c-.756 0-1.375.491-1.375 1.092 0 .604.619 1.094 1.375 1.094.76 0 1.376-.49 1.376-1.094 0-.601-.616-1.092-1.376-1.092zm0 2.82c-1.11 0-2.014-.774-2.014-1.728 0-.951.904-1.726 2.014-1.726 1.111 0 2.016.775 2.016 1.726 0 .954-.905 1.728-2.016 1.728zM204.613 302.67h-.033l-13.365-1.308c-.177-.017-.304-.167-.287-.334.02-.169.176-.297.353-.275l13.365 1.308c.177.016.304.166.287.335-.018.158-.156.273-.32.273M183.507 301.71c-.016 0-.029-.002-.046-.004l-13.559-1.87c-.175-.022-.296-.182-.27-.353.024-.17.185-.287.36-.265l13.559 1.87c.175.023.298.18.273.353-.023.156-.16.269-.317.269M140.11 160.668l-.766 24.224 21.35-11.447-20.584-12.777zm-1.275 25.528c-.088 0-.177-.023-.255-.073-.146-.088-.233-.251-.23-.424l.821-25.897c.006-.173.102-.33.256-.412.151-.08.336-.077.482.016l22.007 13.66c.146.089.232.252.228.425-.006.173-.103.329-.255.411l-22.825 12.239c-.071.036-.15.055-.229.055zM265.673 138.034c-.126 0-.252-.048-.347-.142-.19-.19-.187-.496.004-.684l9.963-9.78c.191-.189.5-.185.689.005.19.189.187.494-.004.682l-9.963 9.78c-.094.093-.218.139-.342.139M216.93 186.388c-.124 0-.247-.048-.343-.144-.188-.19-.186-.496.004-.684l39.711-39.328c.19-.187.498-.185.684.003.188.19.186.498-.002.685l-39.713 39.328c-.094.094-.217.14-.34.14M243.603 175.451c-.125 0-.25-.046-.344-.142-.188-.19-.186-.496.004-.685l39.711-39.33c.19-.186.496-.184.684.004.188.19.186.498-.004.686l-39.711 39.329c-.095.092-.217.138-.34.138M267.592 20.41c-.126 0-.25-.048-.347-.144-.19-.19-.187-.495.004-.684l9.963-9.778c.191-.189.499-.185.689.004.19.19.187.495-.004.684l-9.963 9.778c-.095.094-.218.14-.342.14M224.03 62.24c-.124 0-.25-.048-.343-.142-.188-.19-.186-.498.004-.684l39.711-39.329c.19-.189.496-.186.684.003.188.19.186.496-.002.684L224.37 62.1c-.095.094-.217.14-.34.14M183.16 40.295c-.125 0-.25-.048-.344-.144-.188-.19-.187-.496.004-.684L222.53.14c.19-.189.498-.186.684.003.188.19.186.496-.004.684L183.5 40.155c-.094.094-.217.14-.34.14M246.48 55.716c-.124 0-.249-.048-.343-.144-.188-.19-.186-.496.004-.684l39.712-39.328c.192-.189.495-.184.683.004.189.19.187.496-.003.684L246.82 55.576c-.094.094-.217.14-.34.14M290.513 212.112c-6.554 0-11.884 5.333-11.884 11.886 0 6.552 5.33 11.884 11.884 11.884s11.884-5.332 11.884-11.884c0-6.553-5.33-11.886-11.884-11.886zm0 24.55c-6.983 0-12.663-5.681-12.663-12.664 0-6.984 5.68-12.665 12.663-12.665 6.983 0 12.665 5.68 12.665 12.665 0 6.983-5.682 12.664-12.665 12.664zM120.123 208.276c-2.956 0-5.36 2.406-5.36 5.36s2.404 5.357 5.36 5.357c2.955 0 5.36-2.403 5.36-5.357s-2.405-5.36-5.36-5.36zm0 11.5c-3.386 0-6.141-2.755-6.141-6.14 0-3.386 2.755-6.14 6.141-6.14s6.14 2.754 6.14 6.14c0 3.385-2.754 6.14-6.14 6.14z" transform="translate(-180 -1875) translate(180 1875)"/>
                <path fill="#FFF" d="M209.871 213.339c-.928-3.296-4.234-5.318-7.384-4.517-3.152.8-4.953 4.12-4.025 7.415.928 3.294 4.234 5.316 7.384 4.515 3.15-.8 4.953-4.12 4.025-7.413" transform="translate(-180 -1875) translate(180 1875)"/>
                <path fill="#120610" d="M203.98 209.093c-.434 0-.873.054-1.31.165-1.38.35-2.536 1.23-3.255 2.479-.774 1.345-.96 2.945-.519 4.504.874 3.106 4 5.026 6.96 4.27 1.378-.35 2.534-1.233 3.253-2.48.774-1.348.959-2.947.522-4.503-.747-2.65-3.13-4.435-5.65-4.435zm.569 12.218c-2.802 0-5.44-1.968-6.265-4.896-.486-1.727-.28-3.501.582-4.996.805-1.4 2.101-2.387 3.648-2.78 3.288-.842 6.759 1.277 7.727 4.715.487 1.725.279 3.497-.581 4.994-.805 1.4-2.102 2.389-3.648 2.781-.487.123-.979.182-1.463.182z" transform="translate(-180 -1875) translate(180 1875)"/>
                <path fill="#120610" d="M207.87 213.5c-.082 0-.164.01-.245.03-.25.063-.459.22-.586.442-.132.23-.164.5-.09.762.153.54.708.866 1.242.735.252-.064.46-.222.587-.443.133-.23.165-.499.091-.762-.129-.457-.551-.764-1-.764zm.082 2.63c-.725 0-1.403-.492-1.611-1.224-.122-.428-.067-.871.151-1.25.214-.37.563-.633.98-.737.861-.222 1.76.308 2.005 1.174.12.429.066.87-.151 1.247-.214.371-.561.635-.98.74-.13.033-.263.05-.394.05z" transform="translate(-180 -1875) translate(180 1875)"/>
                <path fill="#000" d="M206.86 215.428c.227.18-.698.048-.993-.132-.796-.483-1.074-2.422-1.674-2.7-2.245-1.04-8.113 2.713-9.938.784-.595-.627 3.002-8.2 4.186-8.875 1.311-.75 3.386.106 4.793.18 2.476.131 3.998-2.496 6.62-1.281 3.246 1.503 1.806 3.365 7.374 4.235 3.812.594 7.622 4.492 6.505 6.819-.208.43-2.382 5.068-5.726 5.221-3.737.175-5.467 2.576-6.24 2.39-3.76-.904-1.507-6.733-2.694-8.482-1.252-1.846-3.448.86-2.213 1.841" transform="translate(-180 -1875) translate(180 1875)"/>
                <path fill="#FF6452" d="M121.849 54.469c0-7.153 5.799-12.952 12.952-12.952s12.952 5.799 12.952 12.952-5.799 12.952-12.952 12.952-12.952-5.799-12.952-12.952" transform="translate(-180 -1875) translate(180 1875)"/>
                <path fill="#120610" d="M140.558 43.448c-8.512 0-15.435 6.924-15.435 15.435 0 8.51 6.923 15.434 15.435 15.434 8.51 0 15.434-6.924 15.434-15.434 0-8.511-6.923-15.435-15.434-15.435zm0 31.648c-8.941 0-16.215-7.273-16.215-16.213 0-8.941 7.274-16.215 16.215-16.215 8.94 0 16.214 7.274 16.214 16.215 0 8.94-7.274 16.213-16.214 16.213z" transform="translate(-180 -1875) translate(180 1875)"/>
                <g fill="#120610">
                    <path d="M.806.854C1.018 4.17 2.94 24.588 18.82 50.41c16.219 26.372 48.734 27.695 52.788 27.757-.319-3.843-3.296-33.206-21.018-52.394C32.962 6.683 4.777 1.5.806.854zm71.13 78.098c-2.112 0-36.767-.464-53.781-28.132C.75 22.52.005.622 0 .402-.003.287.045.177.13.1.215.023.33-.013.444.004c.314.044 31.63 4.564 50.72 25.238C70.256 45.912 72.4 78.213 72.421 78.536c.005.106-.032.212-.105.289-.073.079-.174.123-.28.127h-.1z" transform="translate(-180 -1875) translate(180 1875) translate(28 234)"/>
                    <path d="M45.713 53.21l-25.153-.045c-.216-.002-.39-.163-.39-.363 0-.199.175-.36.39-.36h.001l25.153.046c.216.002.39.163.39.363 0 .199-.175.36-.391.36M17.103 46.487c-.2 0-.37-.147-.389-.345-.02-.21.14-.395.354-.413l21.5-1.929c.217-.022.406.133.426.344.02.21-.139.394-.354.413l-21.5 1.929-.037.001M28.065 31.312h-.028c-.222-.016-.389-.201-.374-.415l1.5-21.505c.016-.216.228-.365.429-.363.222.015.39.2.374.415l-1.5 21.504c-.014.207-.191.364-.401.364M56.098 61.087c-.026 0-.052-.002-.078-.008-.21-.042-.347-.25-.304-.462l4.601-22.842c.043-.211.25-.358.458-.306.21.043.347.248.304.46l-4.601 22.844c-.037.185-.2.314-.38.314" transform="translate(-180 -1875) translate(180 1875) translate(28 234)"/>
                    <path d="M70.877 78.183c-.106 0-.211-.042-.288-.126L1.255 2.577c-.145-.16-.135-.408.024-.552.16-.146.407-.138.553.023l69.333 75.48c.146.158.135.406-.023.552-.075.069-.17.103-.265.103" transform="translate(-180 -1875) translate(180 1875) translate(28 234)"/>
                </g>
                <g>
                    <path fill="#FF6452" d="M5.69 33.889c-.127.115-.315.146-.473.073-.111-.04-.194-.112-.25-.214-.025-.044-.045-.105-.059-.157L.005.938C-.02.76.047.592.18.488.313.386.501.355.653.417l30.736 12.067c.158.073.279.211.304.388.019.165-.048.334-.175.449L5.689 33.889" transform="translate(-180 -1875) translate(180 1875) translate(15.42 102)"/>
                    <path fill="#120610" d="M9.664 1.281l2.128 31.18L37.744 15.03 9.664 1.28zm1.704 32.528c-.073 0-.145-.017-.213-.05-.154-.075-.257-.228-.268-.4L8.645.514c-.011-.172.07-.337.213-.433.144-.095.327-.107.48-.032l29.58 14.483c.155.075.257.228.269.4.011.171-.07.337-.212.433L11.637 33.727c-.082.053-.175.082-.27.082z" transform="translate(-180 -1875) translate(180 1875) translate(15.42 102)"/>
                </g>
                <path fill="#120610" d="M.484 196.896c-.125 0-.25-.048-.344-.143-.188-.19-.186-.496.003-.685L39.9 156.697c.19-.19.497-.187.684.002.189.19.187.496-.003.685L.824 196.755c-.094.095-.218.14-.34.14" transform="translate(-180 -1875) translate(180 1875)"/>
            </g>
        </g>
    </g>
</svg>
