<svg xmlns="http://www.w3.org/2000/svg" width="350" height="314" viewBox="0 0 350 314">
    <g fill="none" fill-rule="evenodd">
        <g>
            <g>
                <path fill="#FF6452" d="M211.543 64.907c.038.167-.025.346-.167.45-.088.077-.192.116-.307.116-.052 0-.115-.014-.165-.027l-30.89-11.605c-.165-.064-.28-.206-.307-.372-.025-.167.038-.346.167-.45l25.462-21.017c.142-.103.32-.142.487-.077.154.064.269.205.307.371l5.413 32.611M267.775 55.399c0-7.154 5.8-12.952 12.953-12.952s12.952 5.798 12.952 12.952c0 7.153-5.799 12.952-12.952 12.952-7.154 0-12.953-5.799-12.953-12.952M187.953 213.82c0 21.48-17.427 38.907-38.953 38.907v61.234h200.326v-61.234c-21.478 0-38.908-17.427-38.908-38.907 0-21.524 17.43-38.953 38.908-38.953v-61.232H149v61.232c21.526 0 38.953 17.429 38.953 38.953" transform="translate(-180 -1215) translate(180 1215)"/>
                <path fill="#FFF" d="M241.871 175.805L317.665 175.805 317.665 120.735 241.871 120.735z" transform="translate(-180 -1215) translate(180 1215)"/>
                <path fill="#120610" d="M242.127 175.55h75.28v-54.368h-75.28v54.368zm75.601.639h-75.922c-.176 0-.318-.144-.318-.32v-55.006c0-.176.142-.32.318-.32h75.922c.177 0 .32.144.32.32v55.006c0 .176-.143.32-.32.32z" transform="translate(-180 -1215) translate(180 1215)"/>
                <path fill="#120610" d="M241.871 128.41L317.665 128.41 317.665 120.927 241.871 120.927z" transform="translate(-180 -1215) translate(180 1215)"/>
                <path fill="#FFF" d="M312.868 124.668c0-1.217-.902-2.206-2.017-2.206-1.11 0-2.013.989-2.013 2.206 0 1.22.902 2.207 2.013 2.207 1.115 0 2.017-.987 2.017-2.207M306.536 124.86c0-1.217-.904-2.206-2.015-2.206-1.115 0-2.015.989-2.015 2.206 0 1.22.9 2.207 2.015 2.207 1.11 0 2.015-.987 2.015-2.207M299.82 124.86c0-1.217-.903-2.206-2.014-2.206-1.115 0-2.016.989-2.016 2.206 0 1.22.9 2.207 2.016 2.207 1.111 0 2.014-.987 2.014-2.207" transform="translate(-180 -1215) translate(180 1215)"/>
                <path fill="#120610" d="M173.272 46.51l24.173-19.942 5.144 30.958-29.317-11.017zm24.99-20.93c-.038-.166-.153-.307-.306-.371-.165-.065-.346-.026-.486.077l-25.465 21.017c-.127.104-.192.283-.165.45.025.166.14.308.307.372l30.89 11.605c.051.013.115.027.166.027.116 0 .217-.039.308-.116.14-.104.203-.282.165-.45l-5.413-32.61zM276.41 43.61c-6.553 0-11.883 5.332-11.883 11.886 0 6.552 5.33 11.884 11.883 11.884 6.553 0 11.883-5.332 11.883-11.884 0-6.554-5.33-11.886-11.883-11.886zm0 24.549c-6.984 0-12.664-5.68-12.664-12.663 0-6.985 5.68-12.666 12.664-12.666 6.982 0 12.664 5.681 12.664 12.666 0 6.982-5.682 12.663-12.664 12.663zM282.167.78c-2.954 0-5.36 2.405-5.36 5.36 0 2.955 2.406 5.36 5.36 5.36s5.36-2.405 5.36-5.36c0-2.955-2.406-5.36-5.36-5.36zm0 11.5c-3.386 0-6.14-2.754-6.14-6.14 0-3.386 2.754-6.14 6.14-6.14 3.385 0 6.14 2.754 6.14 6.14 0 3.386-2.755 6.14-6.14 6.14z" transform="translate(-180 -1215) translate(180 1215)"/>
                <path fill="#FFF" d="M215.967 207.466L301.355 207.466 301.355 134.55 215.967 134.55z" transform="translate(-180 -1215) translate(180 1215)"/>
                <path fill="#120610" d="M216.223 207.02h84.876v-72.215h-84.876v72.214zm85.195.638h-85.514c-.177 0-.32-.144-.32-.32v-72.853c0-.176.143-.318.32-.318h85.514c.177 0 .32.142.32.318v72.852c0 .177-.143.32-.32.32z" transform="translate(-180 -1215) translate(180 1215)"/>
                <path fill="#120610" d="M215.967 142.226L301.355 142.226 301.355 134.55 215.967 134.55zM295.662 152.587h-.002l-62.873-.318c-.176-.002-.318-.146-.318-.322.002-.175.144-.319.32-.319h.002l62.873.32c.176.002.318.146.318.32-.002.177-.144.32-.32.32M294.895 161.222h-.004l-54.622-.676c-.177-.004-.318-.154-.317-.338.004-.181.146-.329.32-.329h.004l54.623.677c.176.004.318.153.316.337-.002.181-.146.33-.32.33" transform="translate(-180 -1215) translate(180 1215)"/>
                <path fill="#FFF" d="M295.982 138.484c0-1.218-1.032-2.207-2.302-2.207-1.271 0-2.303.989-2.303 2.207 0 1.22 1.032 2.207 2.303 2.207 1.27 0 2.302-.987 2.302-2.207M288.69 138.484c0-1.22-1.033-2.207-2.303-2.207-1.272 0-2.301.987-2.301 2.207 0 1.218 1.029 2.207 2.301 2.207 1.27 0 2.304-.989 2.304-2.207M281.207 138.675c0-1.218-1.03-2.206-2.3-2.206-1.273 0-2.305.988-2.305 2.206 0 1.22 1.032 2.208 2.305 2.208 1.27 0 2.3-.989 2.3-2.208M275.067 196.912L294.831 196.912 294.831 167.554 275.067 167.554z" transform="translate(-180 -1215) translate(180 1215)"/>
                <path fill="#120610" d="M275.324 196.66h19.25V168h-19.25v28.658zm19.57.636h-19.89c-.176 0-.32-.143-.32-.32v-29.294c0-.176.144-.32.32-.32h19.89c.176 0 .32.144.32.32v29.295c0 .176-.144.32-.32.32z" transform="translate(-180 -1215) translate(180 1215)"/>
                <path fill="#FFF" d="M177.591 150.861L198.506 150.861 198.506 137.812 177.591 137.812z" transform="translate(-180 -1215) translate(180 1215)"/>
                <path fill="#120610" d="M177.847 150.608h20.213v-12.35h-20.213v12.35zm20.53.636h-20.85c-.177 0-.32-.143-.32-.319V137.94c0-.176.143-.32.32-.32h20.85c.177 0 .32.144.32.32v12.985c0 .176-.143.32-.32.32z" transform="translate(-180 -1215) translate(180 1215)"/>
                <path fill="#FFF" d="M188.049 144.336L177.591 137.812 198.506 137.812 188.049 144.336" transform="translate(-180 -1215) translate(180 1215)"/>
                <path fill="#120610" d="M178.639 138.256l9.313 5.774 9.312-5.774h-18.625zm9.313 6.464c-.06 0-.117-.015-.17-.047l-10.425-6.467c-.12-.074-.178-.22-.137-.355.038-.135.164-.23.306-.23h20.85c.144 0 .27.095.309.23.04.135-.017.281-.138.355l-10.426 6.467c-.052.032-.111.047-.169.047z" transform="translate(-180 -1215) translate(180 1215)"/>
                <path fill="#FFF" d="M218.845 106.152L239.761 106.152 239.761 93.104 218.845 93.104z" transform="translate(-180 -1215) translate(180 1215)"/>
                <path fill="#120610" d="M219.293 105.898h20.213v-12.35h-20.213v12.35zm20.531.638h-20.85c-.177 0-.32-.144-.32-.32V93.232c0-.176.143-.32.32-.32h20.85c.177 0 .32.144.32.32v12.986c0 .175-.143.319-.32.319z" transform="translate(-180 -1215) translate(180 1215)"/>
                <path fill="#FFF" d="M229.304 99.628L218.845 93.104 239.761 93.104 229.304 99.628" transform="translate(-180 -1215) translate(180 1215)"/>
                <path fill="#120610" d="M220.086 93.545l9.313 5.776 9.311-5.776h-18.624zm9.313 6.467c-.06 0-.117-.018-.17-.05l-10.425-6.464c-.12-.075-.178-.221-.138-.356.039-.137.165-.23.307-.23h20.85c.144 0 .268.093.309.23.04.135-.018.281-.138.356l-10.427 6.464c-.051.032-.11.05-.168.05zM149.6 253.518c-.25 0-.45-.2-.454-.451-.002-.25.199-.455.45-.457 21.285-.198 38.602-17.73 38.602-39.08 0-21.426-17.382-38.976-38.748-39.12-.25-.002-.452-.207-.45-.456.002-.25.203-.451.452-.451h.002c21.863.15 39.65 18.104 39.65 40.027 0 21.845-17.722 39.782-39.501 39.988h-.004" transform="translate(-180 -1215) translate(180 1215)"/>
                <path fill="#FFF" d="M170.51 193.325c.425 1.908 1.256 3.71 1.946 5.529.795 2.065 3.338 4.29 5.212 5.475 1.908 1.2 4.028 1.87 6.272 2.153 2.438.301 4.965-.246 7.175-1.412l1.871 9.218c.037.196.194.336.37.355l.231.018c-.142 1.466-.76 6.039-2.897 12.68-2.616 8.143-2.156 11.516-3.394 18.774-1.236 7.242-5.105 28.276-5.105 28.276s1.926.106 4.717.213l2.031 29.635-.51.071.459 7.329 20.954 1.025-9.894-8.601 4.365-27.764c.229.088.476.176.724.247 0 .035 0 .054.017.089l10.53 29.44 1.185 7.118 20.955-1.076-11.448-8.108-2.95-26.386c0-.088-.037-.157-.089-.211 3.25-.424 3.25-.866 3.25-.866l-9.011-59.607-.106-.018c.017-.036.035-.088.054-.124l2.384-12.257c6.785 2.807 13.2 4.362 13.2 4.362l.281-1.006c.814.3 2.333.724 4.295.724 2.208 0 4.965-.53 7.898-2.437 4.487-2.896 7.933-10.65 10.231-15.79.989-2.243 2.014-4.538 2.455-4.786 1.786-.97 7.776-8.054 9.118-10.067.16-.23.495-.725.142-1.06-.213-.195-.442-.389-2.173.83 2.49-3.639 2.261-4.026 2.12-4.256-.072-.123-.249-.23-.389-.248-.16-.035-.6-.071-2.95 2.013 1.996-3.372 1.695-3.638 1.464-3.85-.088-.07-.282-.122-.387-.122-.442.017-1.644 1.11-3.587 3.249 1.183-3.568.9-3.815.707-3.992-.125-.123-.407-.14-.567-.071-.581.282-2.56 3.815-4.045 6.605-.318-2.947-.885-3.143-1.079-3.195-.122-.054-.441-.107-.74.248-.867 1.022-1.644 6.215-1.84 7.505-.775 1.096-8.622 12.045-11.855 13.723-2.35 1.218-4.135 1.608-5.001 1.73l.39-1.36s-5.814-3.232-12.299-6.446c-3.515-1.748-6.819-3.249-9.789-3.886-.017-.14-.106-.265-.246-.317l-7.616-3.268c-.036-.017-.088-.034-.142-.034-.247-.513-.495-1.044-.706-1.537.441-.459 3.304-3.462 7.668-10.457 3.058-4.891 6.237-13.068 6.254-13.157.108-.23-.017-.477-.245-.566-.177-.07-.373-.017-.478.106l-.69-.422c.054-.054.089-.125.106-.196l4.506-24.584c.566-1.219 3.075-6.588 3.022-7.684-.018-.424-.319-.547-.407-.564-.229-.071-.724-.23-2.932 2.63-.265-2.807-.76-7.31-1.29-7.894-.125-.14-.407-.228-.566-.16-.212.072-.565.197-.9 2.899-.619-3.852-.938-3.886-1.237-3.921-.125-.02-.284.035-.39.106-.105.105-.336.316-.424 2.984-.336-1.025-.582-1.042-.778-1.077-.123-.017-.441 0-.618.459-.23.635-.23 1.96-.194 3.638.017 2.013.052 4.521-.39 6.377-.794 3.283-7.349 20.786-7.42 20.963-.017.036-.017.071-.017.106l-1.396-.83-4.03 11.374c-.105-.034-.193-.053-.299-.07-.194-.018-.39.088-.46.282-1.944-1.82-4.77-2.737-7.21-1.695-2.791 1.201-2.102 4.751-3.355 6.993-1.59 2.844-5.531 1.007-7.158 4.717-1.236 2.825-.424 7.699-2.12 10.084-1.395 1.979-4.08 2.314-6.131 3.285-4.418 2.048-7.702 6.711-6.608 11.798" transform="translate(-180 -1215) translate(180 1215)"/>
                <path fill="#120610" d="M195.557 169.656c0-2.995 2.703-5.443 6.028-5.443 1.315 0 2.542.387 3.539 1.057 1.493.987 2.471 2.59 2.471 4.386 0 3.013-2.703 5.46-6.01 5.46-.408 0-.8-.036-1.173-.104-2.774-.494-4.855-2.714-4.855-5.356zm-.889 0c0 2.36 1.405 4.422 3.485 5.514.321.157.64.299.978.421.605.213 1.263.353 1.957.389.159.017.336.017.497.017 1.12 0 2.17-.247 3.112-.67.124-.069.25-.122.373-.193.143-.07.266-.159.41-.23 1.814-1.161 3.004-3.064 3.004-5.248 0-1.973-.995-3.753-2.543-4.914-.195-.142-.39-.265-.605-.406-.034 0-.052-.017-.088-.035-.018-.017-.053-.034-.072-.034-1.049-.6-2.276-.934-3.591-.934-3.824 0-6.917 2.836-6.917 6.323z" transform="translate(-180 -1215) translate(180 1215)"/>
                <path fill="#120610" d="M198.244 171.209c0-.475.462-.86 1.03-.86.569 0 1.03.385 1.03.86 0 .455-.461.842-1.03.842-.568 0-1.03-.387-1.03-.842zm-.89 0c0 .666.427 1.244 1.049 1.526.266.122.552.192.87.192 1.049 0 1.92-.772 1.92-1.718 0-.65-.39-1.193-.96-1.49-.284-.158-.604-.246-.96-.246-1.048 0-1.919.772-1.919 1.736zM198.122 175.23c0 .052 0 .123.017.177l1.601 6.756.054.214c.035.123.107.228.232.282.053.035.124.054.196.054.054 0 .106 0 .16-.02l6.76-2.563.09-.037c.125-.052.214-.14.267-.246.036-.125.036-.248-.018-.353-.035-.054-.054-.125-.071-.177-.25-.513-.5-1.046-.712-1.54-.071-.142-.124-.265-.178-.407-.089-.16-.16-.317-.214-.477-.408-.867-.73-1.593-.853-1.93-.017-.069-.054-.123-.054-.157-.017-.037-.017-.072-.052-.108-.072-.158-.267-.265-.482-.229-.232.052-.39.283-.338.513 0 .07.054.212.143.406.338.886 1.245 2.831 1.816 4.052l-5.943 2.247-.037-.177-1.406-5.857-.106-.46c-.054-.23-.284-.387-.534-.335-.178.053-.303.194-.338.372" transform="translate(-180 -1215) translate(180 1215)"/>
                <path fill="#000" d="M215.583 305.949L215.601 306.072 216.78 313.193 237.65 312.116 226.249 304.004 225.685 303.599 225.333 303.688 218.874 305.189 215.583 305.949M188.336 304.322L188.796 311.6 209.827 312.618 199.896 304.076 199.099 303.391 198.673 303.024 190.658 304.022 188.848 304.251 188.336 304.322M170.51 193.291c.425 1.905 1.256 3.703 1.945 5.52.794 2.06 3.336 4.283 5.21 5.465 1.906 1.197 4.025 1.867 6.268 2.15 2.437.3 4.962-.246 7.17-1.41.282-.123.547-.282.812-.459 2.984-1.852 5.192-4.902 5.386-8.534.177-3.348-1.449-7.034-.459-10.296.53-1.746 1.731-2.573 2.93-3.562.265-.193.513-.404.76-.65.054-.037.106-.089.16-.143 1.818-1.78 1.412-3.632.389-5.306-.196-.335-.424-.653-.672-.97-.637-.829-1.36-1.587-1.943-2.256-.211-.247-.405-.494-.564-.705-.637-.883.193-2.029 1.041-2.293.194-.07 1.077-.21.971-.017-.034.07.106.052.37-.017.778-.196 2.491-.813 2.827-1.148.936-.952 1.606-2.08 1.978-3.314.035-.105.071-.21.071-.318.035-.086.07-.193.089-.281l.051-.336c.037-.14.054-.299.071-.458.035-.335.054-.67.035-1.023 0-.159-.017-.298-.035-.457-.017-.23-.07-.458-.122-.688 0-.071 0-.123-.037-.176-.282-1.006-.811-1.958-1.518-2.768-.036-.054-.07-.106-.124-.142-.16-.194-.319-.353-.495-.529-1.942-1.816-4.767-2.732-7.205-1.691-2.79 1.199-2.102 4.743-3.354 6.98-1.59 2.84-5.529 1.006-7.154 4.709-1.235 2.82-.424 7.685-2.118 10.067-1.395 1.975-4.08 2.31-6.129 3.28-4.415 2.043-7.698 6.698-6.604 11.776M218.986 204.11c.282.106.546.231.828.337 6.768 2.808 13.166 4.362 13.166 4.362l.282-1.006.247-.848 2.944-10.245 1.005-3.516s-5.799-3.232-12.268-6.446c-3.507-1.749-6.803-3.25-9.766-3.887-.863-.193-1.69-.299-2.5-.335-3.103-.089-5.748 1.15-7.774 4.592-4.267 7.26 4.899 13.178 13.836 16.993" transform="translate(-180 -1215) translate(180 1215)"/>
                <path fill="#120610" d="M205.93 177.793c.088.088.196.123.319.123.105 0 .211-.035.3-.123 0 0 .036-.019.053-.053.442-.459 3.306-3.46 7.673-10.45 3.06-4.887 6.24-13.058 6.258-13.146.108-.23-.017-.477-.246-.565-.176-.071-.372-.018-.478.105-.035.036-.071.088-.088.142-.035.088-3.183 8.17-6.205 13.007-3.784 6.053-6.455 9.14-7.304 10.025-.034.051-.069.088-.105.105-.106.123-.177.194-.177.194-.177.176-.177.458 0 .636M207.161 180.085c.017.018.035.035.054.035l5.667 2.48 1.912.845c.051.018.105.036.158.036.175 0 .332-.108.402-.27.036-.09.054-.18.017-.27-.017-.142-.104-.269-.244-.321l-7.562-3.326c-.036-.017-.087-.035-.14-.035-.176 0-.369.09-.44.27-.087.214-.016.466.176.556M191.033 204.56l.07.355 1.868 9.268c.036.197.193.338.37.357l.229.018 23.28 2.502h.051c.16 0 .318-.089.39-.23.016-.036.034-.088.053-.125l2.642-13.69c.054-.247-.105-.479-.335-.533-.228-.035-.475.106-.528.355l-.228 1.208-2.346 12.076-22.786-2.433-1.85-9.234-.017-.071c-.053-.25-.283-.39-.528-.355-.23.054-.389.283-.335.532" transform="translate(-180 -1215) translate(180 1215)"/>
                <path fill="#000" d="M182.196 274.252s1.927.106 4.72.213c.282 0 .584.018.9.035 2.813.106 6.33.194 9.602.248 2.582.034 4.332.53 6.065 1.13.283.089.565.177.85.283.228.088.476.177.724.248.424.159.883.3 1.342.441 2.246.672 5.022 1.202 9.565.99 1.044-.053 1.964-.106 2.813-.141 1.944-.142 3.412-.282 4.491-.424 3.253-.425 3.253-.866 3.253-.866l-9.018-59.644-.106-.018-23.744-2.757-.054.495c-.142 1.467-.76 6.043-2.899 12.689-2.618 8.147-2.157 11.523-3.396 18.785-1.237 7.246-5.108 28.293-5.108 28.293" transform="translate(-180 -1215) translate(180 1215)"/>
                <path fill="#120610" d="M233.619 207.044c-.07-.035-.123-.054-.176-.072l3.12-10.185.37-1.22c.758-.089 2.803-.408 5.642-1.893 1.779-.92 4.74-4.316 7.296-7.551 2.575-3.236 4.723-6.278 4.902-6.543.051-.054.068-.125.088-.194.298-2.211.95-5.8 1.497-6.932.228.672.44 2.298.529 3.714 0 .194.14.353.335.405.194.037.404-.052.492-.229 1.236-2.37 2.628-4.9 3.526-6.348-.299 1.06-.793 2.529-1.25 3.854-.071.194 0 .425.176.53.193.106.423.072.563-.088 1.27-1.468 2.696-3.007 3.614-3.908-.6 1.186-1.693 3.06-2.768 4.758-.122.176-.088.442.088.582.177.125.424.125.583-.035 1.392-1.362 2.995-2.83 3.966-3.572-.653 1.15-2.045 3.219-3.384 5.058-.125.194-.107.441.069.584.159.16.406.176.582.017.793-.653 1.71-1.362 2.432-1.875-2.062 2.707-6.785 8.152-8.126 8.896-.687.37-1.41 1.944-2.855 5.2-2.237 5.057-5.623 12.68-9.871 15.436-5.2 3.378-9.923 2.158-11.44 1.61zm-1.128.053c-.07.212.036.442.23.53.052.018.264.124.651.266.812.3 2.327.724 4.284.724 2.203 0 4.953-.53 7.88-2.44 4.475-2.9 7.913-10.664 10.206-15.81.986-2.246 2.009-4.544 2.45-4.792 1.78-.972 7.756-8.064 9.094-10.08.16-.23.495-.726.142-1.06-.212-.196-.44-.39-2.168.83 2.484-3.643 2.256-4.032 2.115-4.262-.071-.123-.247-.23-.387-.248-.16-.035-.6-.071-2.944 2.016 1.992-3.376 1.691-3.644 1.461-3.855-.088-.071-.281-.123-.387-.123-.44.017-1.639 1.113-3.577 3.253 1.18-3.572.898-3.82.705-3.996-.125-.123-.406-.14-.565-.072-.58.283-2.555 3.82-4.036 6.614-.318-2.951-.883-3.147-1.076-3.2-.123-.053-.44-.107-.74.249-.863 1.024-1.639 6.223-1.834 7.515-.774 1.097-8.601 12.06-11.826 13.74-2.345 1.22-4.126 1.61-4.99 1.733-.37.071-.58.071-.6.071-.175 0-.351.123-.403.3l-3.685 12.097zM209.258 147.266c-.037.197.088.408.283.48.143.053.284.034.41-.055.069-.051.123-.123.157-.211.268-.727 6.676-17.771 7.475-21.133.48-1.948.444-4.53.426-6.602-.017-.815-.035-1.594 0-2.213.232.955.498 2.39.693 3.682.017.23.249.406.46.371.232-.017.41-.211.41-.442-.018-1.735 0-3.592.054-4.938.266 1.398.567 3.38.816 5.238.034.214.212.425.443.373.232 0 .427-.177.444-.408.106-1.805.32-3.84.532-5.026.286 1.557.658 4.69.907 7.592.017.179.14.336.318.373.178.071.374 0 .48-.16.764-1.027 1.686-2.177 2.29-2.796-.409 1.327-1.634 4.14-2.822 6.637-.02.036-.037.07-.037.106l-4.507 24.62-.02.088c-.052.23.108.461.355.513h.072c.142 0 .266-.052.337-.158.054-.054.089-.125.106-.196l4.527-24.637c.57-1.22 3.09-6.602 3.037-7.7-.018-.425-.32-.548-.41-.565-.229-.071-.727-.23-2.945 2.636-.266-2.813-.764-7.327-1.296-7.911-.125-.14-.409-.23-.57-.16-.211.071-.566.196-.904 2.904-.62-3.86-.941-3.894-1.242-3.929-.125-.02-.286.035-.392.106-.106.106-.337.317-.426 2.99-.338-1.027-.584-1.044-.781-1.079-.124-.017-.444 0-.621.46-.232.637-.232 1.966-.195 3.646.017 2.018.052 4.531-.392 6.39-.798 3.291-7.384 20.832-7.455 21.009-.017.036-.017.07-.017.105M206.107 276.891l.265.017 12.371.85 3.746.248 2.863 25.643.054.477-6.54 1.026-2.527.39-10.232-28.65zm-1.077-.425c0 .035 0 .054.017.089l10.532 29.48.054.143c.053.194.23.3.407.3h.07l9.843-1.538c.248-.036.407-.248.37-.496l-.051-.478-2.951-26.422c0-.088-.037-.157-.089-.21-.07-.107-.196-.16-.318-.178l-17.408-1.185c-.177-.018-.3.054-.388.176-.07.089-.088.214-.088.32zM187.815 274.637l-.089-1.2 15.976 1.552-.16 1.024-4.332 27.33-.249 1.623-8.2-.989-.94-.105-2.006-29.235zm-1.01-1.659l.105 1.624 2.04 29.605v.088c.02.213.18.37.392.407l9.94 1.18c.017 0 .034.02.054.02.212 0 .407-.16.443-.39l.23-1.481 4.385-27.736.247-1.624c.02-.123-.017-.245-.089-.353-.07-.088-.177-.159-.3-.159l-16.97-1.64c-.123-.018-.248.019-.354.124-.089.088-.141.21-.124.335z" transform="translate(-180 -1215) translate(180 1215)"/>
                <path fill="#FFF" d="M211.688 256.78c.162 0 .317-.09.394-.244.11-.216.022-.48-.196-.588-6.94-3.444-12.172-8.804-15.994-16.39-.112-.213-.378-.3-.595-.196-.22.109-.308.372-.198.592 3.913 7.76 9.273 13.249 16.39 16.78.064.03.132.046.199.046M211.882 267.717c.196 0 .376-.135.426-.337.06-.237-.084-.477-.321-.535-6.762-1.704-15.408-6.283-18.405-12.318-.11-.216-.375-.302-.59-.197-.217.108-.305.376-.196.595 3.586 7.22 13.616 11.429 18.978 12.779.037.01.071.013.108.013" transform="translate(-180 -1215) translate(180 1215)"/>
                <path fill="#000" d="M205.31 162.344c.143.618.089 1.113 0 1.483-.053.177-.105.319-.158.424-.071.177-.14.265-.14.265s.069.035.176.106c.106.07.245.176.422.353.687.618 1.816 2.013 2.256 4.77.495 3.162-1.586 4.452-2.59 4.874-.3.125-.511.178-.511.178l.21.317 1.146 1.802.284.424s.017-.017.034-.053c.458-.618 5.431-7.4 8.092-11.746 2.805-4.558 5.466-11.799 5.466-11.799l-.211-.125-.688-.422-.74-.443-8.48-5.052-.688-.424-1.393-.829-4.02 11.375-.265.741-.017.054s.017.017.017.054c.193.282 1.023 1.589 1.623 3.107.053.142.105.301.141.443.018.035.018.088.035.123" transform="translate(-180 -1215) translate(180 1215)"/>
                <path fill="#FFF" d="M203.115 158.158c-.035.248.144.462.394.496.052 0 .107.018.142.037.054 0 .089.017.126.035.517.23.892.867 1.07 1.255.213.479.374 1.01.464 1.522.036.054.036.106.036.177.053.194.07.371.09.567.089.83.017 1.575-.198 2 0 .052-.035.088-.052.123-.127.194-.11.425.071.565.018.02.035.036.053.054.071.054.16.07.25.07.072 0 .143-.016.213-.053.054-.035.109-.071.161-.14.037-.054.054-.089.072-.143.661-1.186.357-3.608-.357-5.113-.446-.956-1.036-1.575-1.732-1.769-.106-.034-.196-.054-.302-.07-.196-.018-.394.088-.466.282-.017.036-.035.07-.035.105" transform="translate(-180 -1215) translate(180 1215)"/>
                <g fill="#120610">
                    <path d="M.806.854C1.018 4.17 2.94 24.588 18.82 50.41c16.219 26.372 48.734 27.695 52.788 27.757-.319-3.843-3.296-33.206-21.018-52.394C32.962 6.683 4.777 1.5.806.854zm71.13 78.098c-2.112 0-36.767-.464-53.781-28.132C.75 22.52.005.622 0 .402-.003.287.045.177.13.1.215.023.33-.013.444.004c.314.044 31.63 4.564 50.72 25.238C70.256 45.912 72.4 78.213 72.421 78.536c.005.106-.032.212-.105.289-.073.079-.174.123-.28.127h-.1z" transform="translate(-180 -1215) translate(180 1215) translate(100 234)"/>
                    <path d="M45.713 53.21l-25.153-.045c-.216-.002-.39-.163-.39-.363 0-.199.175-.36.39-.36h.001l25.153.046c.216.002.39.163.39.363 0 .199-.175.36-.391.36M17.103 46.487c-.2 0-.37-.147-.389-.345-.02-.21.14-.395.354-.413l21.5-1.929c.217-.022.406.133.426.344.02.21-.139.394-.354.413l-21.5 1.929-.037.001M28.065 31.312h-.028c-.222-.016-.389-.201-.374-.415l1.5-21.505c.016-.216.228-.365.429-.363.222.015.39.2.374.415l-1.5 21.504c-.014.207-.191.364-.401.364M56.098 61.087c-.026 0-.052-.002-.078-.008-.21-.042-.347-.25-.304-.462l4.601-22.842c.043-.211.25-.358.458-.306.21.043.347.248.304.46l-4.601 22.844c-.037.185-.2.314-.38.314" transform="translate(-180 -1215) translate(180 1215) translate(100 234)"/>
                    <path d="M70.877 78.183c-.106 0-.211-.042-.288-.126L1.255 2.577c-.145-.16-.135-.408.024-.552.16-.146.407-.138.553.023l69.333 75.48c.146.158.135.406-.023.552-.075.069-.17.103-.265.103" transform="translate(-180 -1215) translate(180 1215) translate(100 234)"/>
                </g>
                <g>
                    <path fill="#FF6452" d="M5.69 33.889c-.127.115-.315.146-.473.073-.111-.04-.194-.112-.25-.214-.025-.044-.045-.105-.059-.157L.005.938C-.02.76.047.592.18.488.313.386.501.355.653.417l30.736 12.067c.158.073.279.211.304.388.019.165-.048.334-.175.449L5.689 33.889" transform="translate(-180 -1215) translate(180 1215) translate(15.42 155.526)"/>
                    <path fill="#120610" d="M9.664 1.281l2.128 31.18L37.744 15.03 9.664 1.28zm1.704 32.528c-.073 0-.145-.017-.213-.05-.154-.075-.257-.228-.268-.4L8.645.514c-.011-.172.07-.337.213-.433.144-.095.327-.107.48-.032l29.58 14.483c.155.075.257.228.269.4.011.171-.07.337-.212.433L11.637 33.727c-.082.053-.175.082-.27.082z" transform="translate(-180 -1215) translate(180 1215) translate(15.42 155.526)"/>
                </g>
                <g fill="#120610">
                    <path d="M49.28 10.757c-.125 0-.251-.048-.346-.143-.19-.19-.188-.496.004-.685L58.91.14c.192-.188.5-.185.69.005.19.19.188.496-.004.684l-9.974 9.79c-.095.093-.218.14-.342.14M.484 59.166c-.125 0-.25-.048-.344-.143-.188-.19-.186-.498.003-.685L39.9 18.966c.19-.19.498-.186.684.003.189.19.187.497-.002.685L.824 59.025c-.094.095-.218.14-.34.14M26.994 48.216c-.125 0-.25-.048-.345-.144-.188-.19-.186-.497.004-.685L66.41 8.017c.19-.19.496-.186.685.002.188.191.186.497-.004.685L27.334 48.076c-.094.094-.217.14-.34.14" transform="translate(-180 -1215) translate(180 1215) translate(58.055 54)"/>
                </g>
                <path fill="#120610" d="M.484 250.422c-.125 0-.25-.049-.344-.143-.188-.19-.186-.496.003-.685L39.9 210.222c.19-.19.497-.186.684.002.189.19.187.497-.003.686L.824 250.28c-.094.094-.218.14-.34.14" transform="translate(-180 -1215) translate(180 1215)"/>
                <g>
                    <path fill="#FF6452" d="M0 12.871c0-4.88 3.956-8.837 8.836-8.837 4.88 0 8.837 3.957 8.837 8.837s-3.956 8.836-8.837 8.836C3.956 21.707 0 17.752 0 12.87" transform="translate(-180 -1215) translate(180 1215) translate(103 179)"/>
                    <path fill="#120610" d="M12.87.782c-4.654 0-8.44 3.787-8.44 8.44s3.786 8.44 8.44 8.44c4.655 0 8.441-3.787 8.441-8.44S17.525.782 12.87.782zm0 17.66c-5.084 0-9.22-4.136-9.22-9.22C3.65 4.137 7.786 0 12.87 0c5.084 0 9.221 4.137 9.221 9.222 0 5.084-4.137 9.22-9.221 9.22z" transform="translate(-180 -1215) translate(180 1215) translate(103 179)"/>
                </g>
            </g>
        </g>
    </g>
</svg>
