<svg xmlns="http://www.w3.org/2000/svg" width="74" height="74" viewBox="0 0 74 74">
    <g fill="none" fill-rule="evenodd">
        <g>
            <g transform="translate(-923 -754) translate(923 754)">
                <circle cx="37" cy="37" r="37" fill="#E5F7F8"/>
                <path fill="#FF6452" d="M64 37c0 10.477-8.522 19-19 19-10.476 0-19-8.523-19-19s8.524-19 19-19c10.478 0 19 8.523 19 19"/>
                <path fill="#000" d="M38 54.636c-9.73 0-17.65-7.907-17.65-17.636 0-9.73 7.92-17.65 17.65-17.65 9.728 0 17.635 7.92 17.635 17.65 0 9.73-7.907 17.636-17.635 17.636zM38 18c-10.478 0-19 8.523-19 19s8.522 19 19 19c10.476 0 19-8.523 19-19s-8.524-19-19-19z"/>
            </g>
        </g>
    </g>
</svg>
