<svg xmlns="http://www.w3.org/2000/svg" width="349" height="314" viewBox="0 0 349 314">
    <g fill="none" fill-rule="evenodd">
        <g>
            <g>
                <path fill="#FF6452" d="M227.377 162.598c0 14.577-8.546 27.876-21.801 33.943l-2.444 22.309v.051l-25.434-.051-2.407-21.964c-13.703-5.913-22.556-19.338-22.556-34.288 0-20.594 16.749-37.335 37.322-37.335 20.574 0 37.32 16.74 37.32 37.335" transform="translate(-180 -2535) translate(180 2535)"/>
                <g>
                    <path fill="#FF6452" d="M3.454 15.255c0-7.154 5.799-12.952 12.952-12.952S29.358 8.1 29.358 15.255c0 7.153-5.799 12.952-12.952 12.952S3.454 22.408 3.454 15.255" transform="translate(-180 -2535) translate(180 2535) translate(296.462 .945)"/>
                    <path fill="#120610" d="M12.665.777C6.111.777.78 6.11.78 12.664c0 6.553 5.332 11.885 11.886 11.885 6.552 0 11.884-5.332 11.884-11.885C24.55 6.11 19.217.777 12.665.777zm0 24.552C5.681 25.329 0 19.647 0 12.664 0 5.681 5.68 0 12.665 0 19.648 0 25.33 5.681 25.33 12.664S19.648 25.33 12.665 25.33z" transform="translate(-180 -2535) translate(180 2535) translate(296.462 .945)"/>
                </g>
                <path fill="#120610" d="M334.051 224.532c-4.853 2.452-37.513 19.323-49.347 35.247-11.878 15.98-11.54 46.618-11.437 50.818 2.73-.17 17.524-2.012 40.97-21.665 24.137-20.235 20.48-58.866 19.814-64.4zm-61.171 87.049c-.043 0-.071 0-.09-.002-.254-.006-.46-.207-.47-.462-.016-.343-1.297-34.55 11.61-51.913 12.873-17.322 49.928-35.657 50.302-35.841.138-.065.3-.065.435.006.136.07.23.205.253.356.067.435 6.255 43.883-20.065 65.945-25.495 21.374-40.547 21.91-41.975 21.91z" transform="translate(-180 -2535) translate(180 2535)"/>
                <path fill="#120610" d="M274.87 310.621c-.078 0-.159-.019-.233-.06-.233-.13-.317-.424-.188-.658.103-.184 10.394-18.7 24.375-38.273 13.97-19.557 34.55-46.892 34.758-47.165.16-.21.462-.255.674-.094.213.16.255.463.094.676-.207.275-20.778 27.598-34.742 47.145-13.947 19.527-24.213 37.997-24.314 38.182-.09.159-.253.247-.424.247" transform="translate(-180 -2535) translate(180 2535)"/>
                <path fill="#120610" d="M322.069 282.606c-.024 0-.047-.001-.072-.005l-27.24-4.01c-.263-.04-.446-.288-.407-.554.038-.268.273-.456.548-.413l27.24 4.01c.263.039.448.287.408.553-.035.243-.24.42-.477.42M301.158 269.367c-.255 0-.47-.195-.48-.447-.014-.259.19-.48.457-.492l28.201-1.364c.265-.007.49.19.506.447.013.26-.193.48-.458.494l-28.203 1.362h-.023M312.289 254.016c-.24 0-.447-.184-.474-.43l-1.733-15.536c-.029-.264.159-.502.42-.533.26-.03.499.161.527.426l1.733 15.536c.029.265-.159.502-.42.533-.02.002-.036.004-.053.004M305.01 198.04c-2.462 1.543-13.335 8.702-18.936 18.044-5.681 9.474-4.31 28.69-3.973 32.51 3.638-1.697 22.48-11.13 24.432-25.227 1.886-13.607-.766-23.02-1.522-25.327zm-23.324 51.754c-.085 0-.169-.02-.244-.065-.132-.078-.218-.213-.235-.364-.102-.935-2.419-23.008 4.042-33.778 6.438-10.738 19.643-18.608 19.775-18.686.122-.072.268-.085.402-.04.134.045.241.147.291.28.04.101 3.98 10.424 1.771 26.358-2.229 16.078-24.66 25.848-25.613 26.255-.061.027-.126.04-.19.04z" transform="translate(-180 -2535) translate(180 2535)"/>
                <path fill="#120610" d="M282.164 249.219c-.067 0-.134-.014-.2-.042-.243-.112-.35-.398-.241-.64l23.019-51.033c.11-.244.395-.353.639-.242.244.11.351.398.242.64l-23.02 51.032c-.08.18-.256.285-.439.285" transform="translate(-180 -2535) translate(180 2535)"/>
                <path fill="#120610" d="M292.526 227.344c-.242 0-.452-.174-.48-.41-.032-.255.159-.487.424-.518l13.805-1.562c.262-.034.506.151.539.408.03.255-.16.487-.426.516l-13.806 1.562c-.017.004-.037.004-.056.004M295.581 218.71c-.19 0-.37-.111-.45-.292l-4.392-9.978c-.107-.242.008-.526.257-.631.25-.1.538.01.643.251l4.392 9.979c.107.244-.007.526-.257.63-.062.025-.128.04-.193.04M107.46 247.492c-.066 0-.13-.017-.184-.055l-7.36-5.004c-.072-.05-.122-.125-.136-.21-.015-.085.006-.173.06-.241l3.855-5.108c.104-.142.307-.168.45-.065.14.105.172.303.066.444l-3.657 4.843 6.77 4.6c1.014-2.22 2.487-5.511 2.558-5.85.037-.169.187-.283.373-.256.172.03.287.183.262.352-.065.439-2.133 4.983-2.766 6.363-.039.088-.114.15-.207.177-.029.008-.058.01-.085.01" transform="translate(-180 -2535) translate(180 2535)"/>
                <path fill="#000" d="M188.809 310.621L196.767 312.924 205.886 291.049 191.354 299.149 188.809 310.621M154.27 302.659L155.364 312.63 179.023 312.732 166.014 302.37 154.27 302.659" transform="translate(-180 -2535) translate(180 2535)"/>
                <path fill="#120610" d="M85.002 291.865c-.278.439-2.784 4.56-1.044 8.27 1.564 3.338 6.012 5.417 13.219 6.18.157.017.32.025.487.025 9.597 0 34.316-27.116 34.567-27.396.06-.065.142-.103.229-.105.092-.008.17.03.234.092l24.786 24.439 11.814-1.25-14.512-20.068c-.003-.008-.007-.011-.01-.02-.106-.166-10.726-16.893-19.479-20.426-8.561-3.443-48.808 29.058-50.291 30.26zm12.639 15.11c-.182 0-.358-.007-.531-.024-7.449-.79-12.068-2.993-13.733-6.549-1.982-4.234.99-8.74 1.118-8.932.018-.024.039-.047.064-.069 1.707-1.39 41.937-34.031 50.974-30.385 8.912 3.594 19.261 19.856 19.773 20.67l14.83 20.508c.066.092.08.212.033.316-.046.105-.146.176-.259.187l-12.513 1.322c-.096.016-.19-.02-.259-.09l-24.657-24.31c-2.674 2.922-25.321 27.355-34.84 27.357z" transform="translate(-180 -2535) translate(180 2535)"/>
                <path fill="#FFF" d="M97.248 267.639c-2.1-10.331 1.787-15.288 5.126-17.657 4.784-3.399 6.612-1.267 6.612-1.267l-8.453-6.591s-2.051-2.792-7.61 1.127c-5.56 3.92-16.557 46.66-16.557 46.66s9.955 5.09 17.875 4.552c7.918-.535 12.308-1.66 12.308-1.66s-7.196-14.831-9.3-25.164" transform="translate(-180 -2535) translate(180 2535)"/>
                <path fill="#120610" d="M76.679 289.62c1.536.742 10.435 4.855 17.547 4.398 6.52-.439 10.683-1.284 11.916-1.56-1.115-2.334-7.276-15.498-9.19-24.846-2.103-10.279 1.706-15.44 5.273-17.957 2.188-1.548 3.801-1.987 4.928-1.987h.11l-6.895-5.347c-.023-.019-.045-.04-.062-.063-.077-.1-1.97-2.466-7.197 1.196-5.203 3.649-15.507 42.638-16.43 46.166zm16.38 5.075c-7.722.002-16.807-4.57-16.901-4.62-.135-.068-.204-.22-.166-.365.452-1.746 11.133-42.841 16.748-46.777 5.472-3.842 7.755-1.454 8.053-1.093l8.071 6.262c.27.163.408.316.427.34.108.124.104.31-.01.429-.115.116-.301.132-.428.032l-.315-.243c-.635-.378-2.45-.95-5.942 1.516-3.409 2.408-7.049 7.368-5.015 17.31 2.079 10.157 9.238 24.905 9.309 25.052.042.086.044.188.002.276-.039.085-.118.15-.212.175-.042.011-4.524 1.137-12.411 1.666-.399.029-.802.04-1.21.04z" transform="translate(-180 -2535) translate(180 2535)"/>
                <path fill="#FFF" d="M170.196 249.618L160.409 284.333 142.107 280.105 129.325 277.371 129.917 274.64 146.261 278.487 155.316 249.603 170.196 249.618" transform="translate(-180 -2535) translate(180 2535)"/>
                <path fill="#120610" d="M129.642 277.01l12.447 2.664 17.98 4.153 9.577-33.954-14.2-.015-8.972 28.609c-.05.157-.209.257-.378.215l-16.002-3.766-.452 2.095zm30.653 7.515c-.025 0-.048-.002-.073-.007l-18.272-4.22-12.757-2.729c-.082-.017-.155-.067-.201-.138-.046-.071-.062-.16-.042-.242l.588-2.726c.02-.084.07-.157.142-.201.075-.05.158-.065.246-.042l16.027 3.771 8.953-28.55c.042-.132.165-.222.305-.222l14.856.015c.1 0 .196.048.256.127.061.08.08.182.053.28l-9.774 34.652c-.038.14-.167.232-.307.232z" transform="translate(-180 -2535) translate(180 2535)"/>
                <path fill="#000" d="M144.868 281.13l-2.182-6.693-25.584 2.717s-2.837-31.622-10.755-30.395c-17.446 2.706-9.761 37.619-.13 46.21 9.63 8.593 38.65-11.84 38.65-11.84" transform="translate(-180 -2535) translate(180 2535)"/>
                <path fill="#120610" d="M136.041 272.373L135.028 264.378 115.318 265.377 117.275 277.042 136.041 272.373" transform="translate(-180 -2535) translate(180 2535)"/>
                <path fill="#FFF" d="M143.14 274.95s3.384-1.341 6.069-.883c2.68.46 8.407 2.04 9.08 2.742.672.703-6.39.072-6.39.072s7.1 2.742 6.974 3.195c-.125.455-7.481-1.378-7.481-1.378s5.892 3.39 5.882 3.766c-.01.373-5.92-2.27-5.92-2.27s3.018 3.001 2.73 3.338c-.288.339-3.883-1.987-3.883-1.987s-.3.195-2.368.304c-2.069.112-3.076-.536-3.076-.536l-1.616-6.363" transform="translate(-180 -2535) translate(180 2535)"/>
                <path fill="#120610" d="M150.185 281.295c.062 0 .12.021.179.058 1.152.736 2.507 1.516 3.213 1.822-.452-.61-1.494-1.728-2.448-2.662-.111-.11-.127-.28-.04-.41.086-.128.255-.175.394-.113 1.519.669 3.153 1.351 4.3 1.79-1.143-.727-2.893-1.765-4.55-2.705-.14-.079-.2-.248-.14-.398.06-.148.219-.23.373-.192 2.443.6 5.104 1.174 6.456 1.368-1.229-.613-3.765-1.66-6.133-2.562-.15-.057-.235-.215-.199-.37.035-.156.185-.276.339-.249 2.272.2 4.77.317 5.797.229-1.425-.692-6.01-1.953-8.589-2.39-2.163-.363-4.835.472-5.678.764l1.523 5.9c.296.143 1.229.518 2.805.431 1.86-.096 2.24-.259 2.256-.267.046-.03.096-.044.142-.044zm3.853 2.655c-.398 0-1.342-.358-3.888-1.973-.294.085-.934.197-2.33.27-2.148.113-3.24-.554-3.284-.583-.07-.044-.119-.111-.14-.19l-1.629-6.32c-.04-.158.043-.32.194-.379.14-.056 3.511-1.363 6.284-.894 2.594.439 8.55 2.019 9.325 2.814.138.143.175.321.098.48-.087.185-.28.583-4.62.305 5.374 2.124 5.27 2.495 5.19 2.771-.082.302-.187.667-5.763-.626 4.174 2.433 4.168 2.72 4.164 2.918-.002.107-.07.232-.161.288-.152.094-.41.26-4.726-1.59 1.997 2.101 1.751 2.386 1.594 2.568-.056.064-.122.14-.308.14z" transform="translate(-180 -2535) translate(180 2535)"/>
                <path fill="#FFF" d="M135.657 265.267s4.6-.997 7.385.562c2.785 1.561 8.3 5.478 8.718 6.384.417.908-7.781-2.811-7.781-2.811s4.144 3.43 3.844 3.748c-.302.32-5.675-2.63-5.675-2.63s2.944 2.746 2.223 2.871c-.723.124-3.758-2.156-3.758-2.156s.433.245-1.496.112c-1.929-.135-3.171-.415-3.171-.415l-.289-5.665" transform="translate(-180 -2535) translate(180 2535)"/>
                <path fill="#120610" d="M140.72 271.061c1.162.87 2.562 1.768 3.21 2.015-.343-.496-1.251-1.455-2.088-2.231-.12-.111-.136-.292-.043-.422.094-.132.272-.169.412-.094 1.803.985 3.801 1.998 4.811 2.408-.66-.696-2.042-1.917-3.343-2.99-.125-.102-.151-.279-.067-.415.084-.136.255-.19.4-.123 2.75 1.24 5.792 2.489 7.007 2.819-1.244-1.233-5.58-4.318-8.227-5.794-2.26-1.263-5.865-.751-6.867-.575l.26 5.094c.443.084 1.482.26 2.876.358.694.048 1.037.042 1.202.029.094-.14.276-.182.423-.102l.035.023zm3.51 2.719c-.787 0-2.672-1.308-3.666-2.04-.255.067-.707.067-1.548.008-1.924-.134-3.156-.409-3.208-.42-.137-.033-.24-.152-.249-.295l-.285-5.621c-.008-.156.098-.296.25-.328.193-.044 4.733-.995 7.58.592 2.452 1.367 8.319 5.395 8.819 6.478.092.2.027.372-.065.466-.153.151-.495.498-6.072-1.925 1.48 1.298 2.238 2.122 2.26 2.454.005.088-.041.226-.102.29-.167.174-.403.421-4.139-1.532 1.008 1.13.918 1.438.882 1.56-.048.16-.184.275-.36.305-.031.006-.062.008-.096.008z" transform="translate(-180 -2535) translate(180 2535)"/>
                <path fill="#FFF" d="M91.599 294.599c5.7.48 14.514-2.007 14.514-2.007s6.77-.106 16.529-2.157c9.758-2.052 16.565-7.015 23.96-6.866 7.396.15 45.085 15.075 45.085 15.075l-2.78 11.899s-36.73-6.504-41.905-8.407c-5.175-1.908-21.076 6.438-36.941 8.481-11.927 1.536-28.04-1.524-31.308-8.602-3.272-7.077-.575-10.658-.575-10.658s7.718 2.765 13.421 3.242" transform="translate(-180 -2535) translate(180 2535)"/>
                <path fill="#120610" d="M78.258 291.659c-.467.82-1.997 4.232.731 10.112 3.101 6.686 18.927 9.95 31.009 8.397 7.584-.971 15.04-3.34 21.62-5.433 7.105-2.254 12.721-4.039 15.513-3.01 4.848 1.779 38.078 7.695 41.596 8.319l2.65-11.306c-3.335-1.308-37.821-14.773-44.764-14.912-4.148-.08-8.048 1.434-12.571 3.192-3.49 1.357-7.097 2.759-11.343 3.65-9.29 1.945-15.97 2.142-16.563 2.155-.727.203-9.036 2.473-14.604 2.003-5.116-.427-11.91-2.699-13.274-3.167zm25.388 19.538c-10.91 0-22.483-3.218-25.237-9.158-3.318-7.15-.656-10.805-.543-10.958.086-.113.234-.153.365-.107.077.027 7.755 2.748 13.353 3.217 5.606.474 14.33-1.966 14.418-1.991.027-.008.054-.012.082-.012.068-.001 6.861-.13 16.483-2.145 4.195-.878 7.778-2.272 11.242-3.618 4.587-1.784 8.568-3.343 12.815-3.238 7.38.15 43.703 14.452 45.244 15.06.148.059.23.216.194.369l-2.78 11.868c-.039.164-.202.271-.369.24-1.501-.265-36.855-6.513-42.003-8.4-2.596-.95-8.112.801-15.098 3.02-6.605 2.097-14.092 4.476-21.732 5.457-2.066.266-4.238.396-6.434.396z" transform="translate(-180 -2535) translate(180 2535)"/>
                <path fill="#FFF" d="M117.444 277.042c-.29 0-.298-.097-.37-1.148-.057-.838-.144-2.104-.27-2.68-.169-.775-.296-1.614-.432-2.504-.273-1.808-.555-3.678-1.215-5.108-.077-.16-.006-.352.157-.427.157-.075.352-.004.427.158.699 1.511.989 3.428 1.27 5.282.133.878.26 1.71.424 2.463.133.621.222 1.914.282 2.771.014.174.023.326.031.454.043.056.068.127.064.202-.006.224-.016.531-.335.537h-.033M108.991 290.474c-.674 0-1.344-.172-1.951-.506-.153-.085-.21-.28-.127-.435.081-.154.272-.214.427-.13.768.424 1.69.54 2.53.313.863-.233 1.567-.79 1.98-1.568.081-.154.272-.216.427-.13.15.083.207.278.124.435-.494.937-1.338 1.605-2.372 1.882-.342.092-.69.139-1.038.139M166.742 253.248L160.026 275.891 166.742 253.248" transform="translate(-180 -2535) translate(180 2535)"/>
                <path fill="#120610" d="M159.966 276.082c-.031 0-.062-.001-.093-.013-.171-.05-.268-.228-.216-.396l6.835-22.579c.05-.168.233-.27.402-.214.173.05.27.228.218.396l-6.835 22.579c-.043.14-.171.227-.311.227" transform="translate(-180 -2535) translate(180 2535)"/>
                <path fill="#120610" d="M72.511 113.39l.098 60.746c0 .248-.198.451-.447.455-21.127.294-38.289 17.724-38.255 38.854.033 21.13 17.252 38.505 38.381 38.732.25.004.45.205.45.453l.093 59.77 198.925-.32-.32-199.012-60.257.098h-.002c-.245 0-.447-.195-.452-.441-.557-21.202-17.573-37.79-38.748-37.79h-.065c-21.208.035-38.203 16.69-38.692 37.915-.006.245-.207.443-.453.443l-60.256.098zm-.132 199.918c-.12 0-.234-.048-.319-.133-.084-.086-.134-.201-.134-.32l-.094-59.778c-21.419-.47-38.797-18.154-38.832-39.628-.034-21.478 17.284-39.219 38.703-39.756l-.1-60.755c0-.252.204-.453.453-.455l60.27-.096c.725-21.51 18.027-38.323 39.584-38.357h.067c21.527 0 38.847 16.743 39.64 38.228l60.268-.097h.002c.12 0 .236.048.32.132.084.086.132.202.132.32l.323 199.917c0 .25-.202.455-.451.455l-199.83.323h-.002zM330.906 116.82c-.128 0-.251-.048-.346-.144-.19-.19-.188-.496.002-.684l9.964-9.778c.193-.189.5-.185.689.003.19.19.187.496-.004.684l-9.962 9.778c-.097.095-.221.14-.343.14M282.164 165.174c-.125 0-.25-.046-.344-.142-.188-.19-.186-.496.004-.685l39.711-39.328c.194-.19.498-.184.684.002.188.19.186.496-.002.684l-39.713 39.33c-.094.093-.217.14-.34.14M308.836 154.429c-.127 0-.25-.048-.344-.144-.188-.19-.186-.496.004-.685l39.711-39.327c.192-.189.496-.185.684.004.188.19.186.496-.004.684l-39.711 39.327c-.096.095-.22.14-.34.14M105.444 28.745c-.128 0-.252-.048-.347-.143-.19-.19-.187-.496.002-.684l9.964-9.779c.194-.188.5-.184.69.004.189.19.187.496-.005.684l-9.962 9.78c-.096.092-.22.138-.342.138M56.702 77.1c-.125 0-.25-.048-.344-.144-.188-.19-.186-.496.004-.685l39.711-39.326c.194-.19.498-.185.684.003.188.189.186.496-.002.683L57.04 76.96c-.094.092-.217.14-.34.14M83.373 66.163c-.125 0-.25-.048-.343-.143-.189-.19-.187-.496.003-.684l39.712-39.329c.192-.189.495-.185.684.003.188.19.186.497-.004.684l-39.712 39.33c-.096.092-.219.139-.34.139" transform="translate(-180 -2535) translate(180 2535)"/>
                <path fill="#120610" d="M60.923 230.798c-.127 0-.25-.048-.345-.144-.187-.19-.185-.496.005-.685l39.712-39.328c.192-.187.495-.183.684.003.188.19.186.498-.004.685l-39.712 39.329c-.096.092-.219.14-.34.14M194.801 236.801h-22.35v-17.584h23.66l-1.31 17.584zm2.143-18.336c-.09-.09-.217-.14-.333-.14h-24.623c-.244 0-.449.192-.449.446v18.476c0 .254.205.459.45.459h23.236c.23 0 .435-.191.448-.42l1.387-18.463v-.052c0-.114-.052-.23-.116-.306z" transform="translate(-180 -2535) translate(180 2535)"/>
                <path fill="#120610" d="M196.223 223.89h-24.23c-.25 0-.454-.215-.454-.478 0-.264.204-.481.454-.481h24.23c.25 0 .453.217.453.48 0 .264-.204.48-.453.48M195.457 232.717h-23.466c-.249 0-.452-.216-.452-.48s.203-.48.452-.48h23.466c.249 0 .452.216.452.48s-.203.48-.452.48M195.838 229.071h-.023l-23.844-1.194c-.25-.012-.443-.227-.431-.48.011-.252.23-.458.477-.435l23.844 1.193c.25.013.442.229.43.481-.01.245-.213.435-.453.435M177.488 237.322c0 4.132 2.833 7.484 6.332 7.484 3.499 0 6.332-3.352 6.332-7.484h-12.664M221.237 162.598c0 14.577-8.546 27.876-21.802 33.943-.077.038-.165.077-.242.115-.23.102-.499 0-.602-.23-.025-.052-.039-.115-.039-.167l.014-.064c0-.063.025-.115.052-.167.025-.05.063-.088.101-.126.025-.039.064-.066.102-.077 13.064-5.875 21.508-18.918 21.508-33.227 0-20.095-16.338-36.425-36.412-36.425-20.075 0-36.415 16.33-36.415 36.425 0 14.668 8.727 27.838 22.251 33.559.05.025.089.052.115.09.039.039.077.077.102.127.025.038.039.09.052.154l.012.076c0 .052-.012.104-.039.142-.077.179-.242.28-.422.28-.063 0-.115-.01-.179-.038-.077-.038-.167-.063-.243-.101-13.703-5.914-22.556-19.34-22.556-34.29 0-20.593 16.748-37.334 37.322-37.334 20.573 0 37.32 16.74 37.32 37.335" transform="translate(-180 -2535) translate(180 2535)"/>
                <path fill="#120610" d="M199.552 196.374l-.027.255-2.495 22.21v.052c-.025.23-.221.394-.457.394h-.052c-.261-.025-.445-.24-.418-.497l.04-.394 2.48-22.046.014-.063c0-.063.025-.115.053-.167.025-.05.064-.088.104-.126.103-.076.221-.128.352-.114.249.024.431.254.406.496M172.496 218.785c.027.258-.15.475-.387.5h-.05c-.226 0-.414-.165-.439-.396v-.052l-2.356-22.011-.025-.256c-.024-.245.137-.476.39-.5.123-.014.25.038.338.115.037.038.075.077.1.127.024.038.037.09.05.154l.011.077 2.33 21.846.038.396M190.294 163.745c-.264.851-.475 1.71-.602 2.52-.266 1.686-.088 2.854.462 3.044.146.054.192.013.24-.035.537-.55.523-2.937-.1-5.529zm-8.68-1.107c-.265.842-.474 1.724-.616 2.596-.447 2.78-.103 4.957.819 5.178.151.036.26.023.383-.156.7-.99.39-4.453-.586-7.618zm-2.664 56.644c-.02 0-.042 0-.063-.003-.247-.035-.42-.266-.385-.513.015-.121 1.68-12.18 1.53-18.07-.142-5.594-.56-16.142-.61-17.4-.535-.85-4.11-6.613-5.818-12.314-1.382-4.62-1.18-9.602.505-12.394.801-1.33 1.883-2.132 3.213-2.392.81-.16 2.054.081 3.362 2.112.337.524.652 1.126.943 1.779 1.036-2.188 2.53-3.908 4.42-3.74 2.205.191 3.614 2.827 4.324 4.618 1.066-2.419 2.477-4.434 3.762-4.465.523-.004 1.049.213 1.47.672 1.843 2.008 1.897 8.329 1.335 13.576-.679 6.344-5.033 10.642-5.86 11.404-.207 1.455-1.76 12.327-2.47 18.585-.753 6.645-.005 17.948 0 18.061.02.252-.17.467-.421.484-.253.03-.464-.173-.481-.422-.008-.116-.76-11.499.001-18.227.76-6.696 2.482-18.653 2.499-18.775.015-.107.069-.205.151-.276.048-.044 4.984-4.43 5.68-10.932.671-6.246.228-11.416-1.1-12.865-.233-.253-.482-.376-.762-.376h-.021c-.901.019-2.313 2.228-3.333 4.84.927 3.002 1.241 6.618.22 7.661-.314.32-.737.411-1.182.258-.735-.258-1.515-1.166-1.062-4.044.184-1.178.563-2.561 1.064-3.904-.063-.194-.13-.389-.202-.579-.985-2.674-2.331-4.273-3.689-4.392-1.52-.107-2.895 1.655-3.867 4.027 1.313 3.61 1.83 8.098.838 9.505-.324.459-.796.64-1.333.513-1.778-.423-1.942-3.484-1.503-6.204.19-1.187.537-2.55 1.027-3.84-.35-.906-.757-1.749-1.21-2.45-.57-.886-1.459-1.897-2.427-1.714-1.068.208-1.946.872-2.612 1.973-1.56 2.586-1.725 7.272-.41 11.664 1.802 6.013 5.739 12.125 5.777 12.184.044.07.071.148.075.23.002.114.46 11.603.614 17.536.151 5.964-1.523 18.096-1.542 18.22-.03.226-.224.39-.447.39zM224.625 215.256c-.115 0-.231-.045-.319-.133l-10.994-10.99c-.177-.175-.18-.463-.002-.642.172-.174.46-.178.637 0l10.994 10.99c.178.176.178.464.002.642-.087.088-.204.133-.318.133M241.508 194.34c-.065 0-.13-.013-.194-.044l-15.405-7.336c-.225-.109-.322-.381-.215-.609.107-.228.38-.327.601-.216l15.406 7.336c.226.106.324.38.215.607-.077.166-.24.262-.408.262M244.962 161.912H231.86c-.25 0-.453-.217-.453-.48 0-.264.203-.48.453-.48h13.102c.25 0 .452.216.452.48 0 .263-.203.48-.452.48M223.417 137.927c-.165 0-.322-.088-.402-.245-.115-.222-.029-.493.193-.608l11.953-6.196c.218-.115.492-.029.608.193.115.222.029.495-.193.61l-11.952 6.194c-.065.035-.136.052-.207.052M199.043 121.617c-.048 0-.093-.008-.14-.023-.236-.079-.363-.334-.285-.572l4.86-14.829c.077-.238.33-.366.566-.288.235.08.362.336.285.574l-4.862 14.827c-.06.192-.237.31-.424.31M170.703 117.587c-.199 0-.379-.13-.434-.328l-4.086-14.45c-.067-.239.073-.489.315-.556.239-.067.49.073.557.312l4.083 14.45c.07.238-.073.488-.312.555-.04.011-.082.017-.123.017M148.251 132.938c-.125 0-.249-.049-.337-.15l-9.26-10.214c-.17-.188-.156-.476.031-.646.183-.17.475-.157.642.03l9.26 10.216c.17.188.156.476-.031.646-.087.08-.197.118-.305.118M139.042 154.812c-.023 0-.048-.001-.071-.005l-15.214-2.53c-.248-.04-.414-.278-.374-.53.04-.252.278-.42.518-.383l15.214 2.529c.247.041.414.278.374.531-.034.226-.228.388-.447.388M123.83 178.606c-.214 0-.404-.15-.445-.37-.048-.248.114-.487.36-.533l15.212-2.925c.251-.054.483.116.53.361.048.247-.114.487-.36.533l-15.212 2.926c-.029.006-.057.008-.084.008M131.505 197.027c-.165 0-.324-.093-.405-.25-.111-.224-.023-.498.2-.612l15.21-7.725c.226-.112.498-.023.611.2.114.226.023.5-.2.613l-15.21 7.726c-.066.032-.137.048-.206.048M153.955 213.529c-.056 0-.113-.012-.169-.033-.23-.092-.343-.36-.252-.593l5.046-12.711c.092-.233.356-.348.587-.254.23.094.344.36.252.592l-5.046 12.712c-.07.179-.239.287-.418.287" transform="translate(-180 -2535) translate(180 2535)"/>
                <path fill="#FFF" d="M106.155 236.877c-2.196-2.963-1.29-7.313 2.02-9.717 3.315-2.402 7.777-1.95 9.973 1.013 2.197 2.963 1.29 7.314-2.022 9.718-3.31 2.402-7.777 1.948-9.971-1.014" transform="translate(-180 -2535) translate(180 2535)"/>
                <path fill="#120610" d="M106.532 236.73c2.082 2.842 6.334 3.27 9.486.954 3.152-2.317 4.024-6.519 1.944-9.364-2.078-2.841-6.33-3.269-9.485-.953-3.15 2.319-4.024 6.518-1.945 9.364zm5.034 3.087c-2.174 0-4.247-.925-5.551-2.707-2.286-3.13-1.35-7.732 2.084-10.26 3.434-2.525 8.094-2.04 10.38 1.09 2.287 3.13 1.353 7.735-2.083 10.26-1.479 1.089-3.184 1.617-4.83 1.617z" transform="translate(-180 -2535) translate(180 2535)"/>
                <path fill="#FFF" d="M104.331 235.43c-.564-.811-.398-1.952.372-2.55.77-.597 1.85-.422 2.414.386.564.813.396 1.954-.372 2.55-.772.597-1.852.422-2.414-.386" transform="translate(-180 -2535) translate(180 2535)"/>
                <path fill="#120610" d="M105.726 232.964c-.31 0-.61.098-.865.286-.658.486-.8 1.417-.318 2.073.232.32.577.526.964.585.383.058.767-.038 1.082-.27.656-.485.798-1.416.316-2.076-.233-.318-.575-.524-.962-.583-.072-.01-.145-.015-.217-.015zm0 3.59c-.105 0-.211-.007-.318-.024-.559-.083-1.055-.38-1.39-.84-.685-.933-.481-2.253.456-2.944.454-.334 1.018-.472 1.565-.39.564.084 1.055.383 1.39.839.684.936.482 2.257-.453 2.945-.367.273-.803.415-1.25.415z" transform="translate(-180 -2535) translate(180 2535)"/>
                <path fill="#000" d="M107.563 233.826c-.618.66.481-.711.856-1.01 1.263-1.003 2.688-2.011 4.037-2.916 3.192-2.137 10.554-8.732 3.644-12.117-3.734-1.83-3.29 2.923-5.794 3.506-1.64.381-3.109-1.196-4.55-.798-4.028 1.112-2.432 4.413-4.54 6.842-1.041 1.2-3.28 1.53-2.685 3.664.597 2.145 5.038 6.558 7.232 6.707 1.178.083-2.129-2.762-1.644-3.932.886-2.145 3.775-.3 3.444.054" transform="translate(-180 -2535) translate(180 2535)"/>
                <path fill="#000" d="M109.125 231.95c.071-.023.016 1.586.184 1.981.568 1.337 1.277 1.862 2.57 2.384 1.381.56 5.077-2.307 6.843-2.494 1.315-.14 5.041 4.728 4.129 6.053-4.225 6.134-17.422 4.66-18.277-3.381-.08-.737 2.251.215 2.707-.912.987-2.443-1.12-2.601 1.844-3.631" transform="translate(-180 -2535) translate(180 2535)"/>
                <g fill="#120610">
                    <path d="M.806.854C1.018 4.17 2.94 24.588 18.82 50.41c16.219 26.372 48.734 27.695 52.788 27.757-.319-3.843-3.296-33.206-21.018-52.394C32.962 6.683 4.777 1.5.806.854zm71.13 78.098c-2.112 0-36.767-.464-53.781-28.132C.75 22.52.005.622 0 .402-.003.287.045.177.13.1.215.023.33-.013.444.004c.314.044 31.63 4.564 50.72 25.238C70.256 45.912 72.4 78.213 72.421 78.536c.005.106-.032.212-.105.289-.073.079-.174.123-.28.127h-.1z" transform="translate(-180 -2535) translate(180 2535) translate(0 235)"/>
                    <path d="M45.713 53.21l-25.153-.045c-.216-.002-.39-.163-.39-.363 0-.199.175-.36.39-.36h.001l25.153.046c.216.002.39.163.39.363 0 .199-.175.36-.391.36M17.103 46.487c-.2 0-.37-.147-.389-.345-.02-.21.14-.395.354-.413l21.5-1.929c.217-.022.406.133.426.344.02.21-.139.394-.354.413l-21.5 1.929-.037.001M28.065 31.312h-.028c-.222-.016-.389-.201-.374-.415l1.5-21.505c.016-.216.228-.365.429-.363.222.015.39.2.374.415l-1.5 21.504c-.014.207-.191.364-.401.364M56.098 61.087c-.026 0-.052-.002-.078-.008-.21-.042-.347-.25-.304-.462l4.601-22.842c.043-.211.25-.358.458-.306.21.043.347.248.304.46l-4.601 22.844c-.037.185-.2.314-.38.314" transform="translate(-180 -2535) translate(180 2535) translate(0 235)"/>
                    <path d="M70.877 78.183c-.106 0-.211-.042-.288-.126L1.255 2.577c-.145-.16-.135-.408.024-.552.16-.146.407-.138.553.023l69.333 75.48c.146.158.135.406-.023.552-.075.069-.17.103-.265.103" transform="translate(-180 -2535) translate(180 2535) translate(0 235)"/>
                </g>
                <g>
                    <path fill="#FF6452" d="M0 12.871c0-4.88 3.956-8.837 8.836-8.837 4.88 0 8.837 3.957 8.837 8.837s-3.956 8.836-8.837 8.836C3.956 21.707 0 17.752 0 12.87" transform="translate(-180 -2535) translate(180 2535) translate(16 124)"/>
                    <path fill="#120610" d="M12.87.782c-4.654 0-8.44 3.787-8.44 8.44s3.786 8.44 8.44 8.44c4.655 0 8.441-3.787 8.441-8.44S17.525.782 12.87.782zm0 17.66c-5.084 0-9.22-4.136-9.22-9.22C3.65 4.137 7.786 0 12.87 0c5.084 0 9.221 4.137 9.221 9.222 0 5.084-4.137 9.22-9.221 9.22z" transform="translate(-180 -2535) translate(180 2535) translate(16 124)"/>
                </g>
                <g>
                    <path fill="#FF6452" d="M0 12.871c0-4.88 3.956-8.837 8.836-8.837 4.88 0 8.837 3.957 8.837 8.837s-3.956 8.836-8.837 8.836C3.956 21.707 0 17.752 0 12.87" transform="translate(-180 -2535) translate(180 2535) translate(186 14)"/>
                    <path fill="#120610" d="M12.87.782c-4.654 0-8.44 3.787-8.44 8.44s3.786 8.44 8.44 8.44c4.655 0 8.441-3.787 8.441-8.44S17.525.782 12.87.782zm0 17.66c-5.084 0-9.22-4.136-9.22-9.22C3.65 4.137 7.786 0 12.87 0c5.084 0 9.221 4.137 9.221 9.222 0 5.084-4.137 9.22-9.221 9.22z" transform="translate(-180 -2535) translate(180 2535) translate(186 14)"/>
                </g>
                <g>
                    <path fill="#FF6452" d="M5.69 33.889c-.127.115-.315.146-.473.073-.111-.04-.194-.112-.25-.214-.025-.044-.045-.105-.059-.157L.005.938C-.02.76.047.592.18.488.313.386.501.355.653.417l30.736 12.067c.158.073.279.211.304.388.019.165-.048.334-.175.449L5.689 33.889" transform="translate(-180 -2535) translate(180 2535) rotate(60 93.93 241.552)"/>
                    <path fill="#120610" d="M9.664 1.281l2.128 31.18L37.744 15.03 9.664 1.28zm1.704 32.528c-.073 0-.145-.017-.213-.05-.154-.075-.257-.228-.268-.4L8.645.514c-.011-.172.07-.337.213-.433.144-.095.327-.107.48-.032l29.58 14.483c.155.075.257.228.269.4.011.171-.07.337-.212.433L11.637 33.727c-.082.053-.175.082-.27.082z" transform="translate(-180 -2535) translate(180 2535) rotate(60 93.93 241.552)"/>
                </g>
                <path fill="#120610" d="M301.14 52.78c-2.954 0-5.36 2.405-5.36 5.36 0 2.955 2.406 5.36 5.36 5.36s5.36-2.405 5.36-5.36c0-2.955-2.406-5.36-5.36-5.36zm0 11.5c-3.385 0-6.14-2.754-6.14-6.14 0-3.386 2.755-6.14 6.14-6.14 3.386 0 6.14 2.754 6.14 6.14 0 3.386-2.754 6.14-6.14 6.14z" transform="translate(-180 -2535) translate(180 2535)"/>
            </g>
        </g>
    </g>
</svg>
