<svg xmlns="http://www.w3.org/2000/svg" width="662" height="448" viewBox="0 0 662 448">
    <g fill="none" fill-rule="evenodd">
        <g>
            <g>
                <path fill="#FF6452" d="M305.166 55.083c0 10.522-8.56 19.083-19.083 19.083-10.521 0-19.083-8.56-19.083-19.083C267 44.56 275.562 36 286.083 36c10.523 0 19.083 8.56 19.083 19.083" transform="translate(-888 -175) translate(888 175)"/>
                <path fill="#00AAB1" d="M531.977 77.667c-.121 0-.243-.037-.346-.11l-22.374-15.839c-.177-.123-.273-.333-.255-.55.02-.216.152-.406.347-.496l24.794-11.614c.196-.094.425-.072.6.053.177.124.274.336.255.551l-2.42 27.451c-.02.218-.151.406-.346.498-.081.039-.168.056-.255.056z" transform="translate(-888 -175) translate(888 175) rotate(-82 522 63.333)"/>
                <path fill="#FF6452" d="M650 190c0 5.514-4.486 10-10 10-5.513 0-10-4.486-10-10s4.487-10 10-10c5.514 0 10 4.486 10 10M523.75 361.522c0 18.334 14.876 33.21 33.25 33.21V447H386v-52.267c18.334 0 33.21-14.877 33.21-33.211 0-18.378-14.876-33.255-33.21-33.255V276h171v52.267c-18.374 0-33.25 14.877-33.25 33.255" transform="translate(-888 -175) translate(888 175)"/>
                <path fill="#120610" d="M252.795 252c-.478 0-.93-.285-1.12-.755-.07-.177-7.52-17.925-43.825-49.951-35.67-31.467-49.055-26.631-49.183-26.57-.613.242-1.315-.043-1.57-.647-.256-.607.012-1.304.615-1.564.578-.257 14.54-5.84 51.735 26.974 36.842 32.503 44.172 50.128 44.466 50.861.248.615-.053 1.316-.67 1.565-.146.058-.298.087-.448.087" transform="translate(-888 -175) translate(888 175)"/>
                <path fill="#120610" d="M177.073 183.112c-6.515 2.548-18.377 8.297-19.564 14.128-.386 1.904.411 3.71 2.44 5.524 1.835 1.634 3.546 2.175 5.232 1.645 5.585-1.753 10.05-14.437 11.892-21.297zM163.91 207c-1.873 0-3.74-.824-5.577-2.462-2.678-2.395-3.75-5.01-3.188-7.77 1.876-9.212 22.38-16.398 23.252-16.7.416-.146.874-.053 1.2.237.327.29.47.731.373 1.154-.21.918-5.218 22.448-14.06 25.23-.666.207-1.334.311-2 .311zM208.558 164.459c-.307 0-.61.048-.913.147-4.446 1.417-8.086 12.033-9.687 18.115 5.41-2.388 14.62-7.389 15.543-12.26.298-1.58-.33-3.066-1.921-4.538-1.055-.982-2.052-1.464-3.022-1.464zM196.212 186c-.286 0-.569-.103-.793-.298-.336-.298-.486-.754-.39-1.196.444-2.028 4.553-19.9 11.886-22.244 2.126-.67 4.247-.055 6.303 1.847 2.231 2.072 3.127 4.36 2.663 6.811-1.535 8.11-18.516 14.723-19.24 14.999-.139.055-.285.081-.429.081zM192.882 151.358c-.681 0-1.32.163-1.926.491-5.037 2.721-6.978 15.821-7.48 22.804 5.784-3.66 16.106-11.4 16.167-17.266.02-1.912-1.08-3.516-3.361-4.898-1.242-.756-2.369-1.13-3.4-1.13zM182.178 178c-.21 0-.42-.057-.606-.17-.368-.222-.586-.622-.571-1.05.03-.925.86-22.694 8.833-27.002 2.289-1.233 4.87-1 7.67.693 3.012 1.83 4.526 4.167 4.496 6.944-.098 9.262-18.452 19.974-19.233 20.426-.182.106-.385.159-.59.159zM143.896 165.424c-.879 0-1.662.135-2.314.45-1.306.63-1.99 2.008-2.09 4.213-.095 2.129.49 3.58 1.788 4.44 3.955 2.616 13.615-.34 18.894-2.429-4.24-2.692-11.594-6.674-16.278-6.674zM145.823 178c-2.272 0-4.351-.403-5.928-1.447-2.049-1.355-3.018-3.568-2.882-6.576.14-3.132 1.311-5.253 3.478-6.297 6.897-3.319 21.358 6.528 22.985 7.66.361.253.559.674.519 1.11-.041.432-.316.813-.718.997-1.293.586-10.322 4.553-17.454 4.553zM361.619 71h-5.794l.98-9.19L339 59.892s3.933-16.527 11.2-22.479c6.606-5.411 11.872-10.116 24.48-10.345 12.608-.234 21.918-.234 29.418 6.454C411.591 40.211 415 54.046 415 54.046l-16.58 5.42v-4.61L361.73 56.7 361.62 71" transform="translate(-888 -175) translate(888 175)"/>
                <path fill="#FFF" d="M367 20.498c0-5.246 4.255-9.498 9.498-9.498 5.247 0 9.502 4.252 9.502 9.498 0 5.25-4.255 9.502-9.502 9.502-5.243 0-9.498-4.252-9.498-9.502" transform="translate(-888 -175) translate(888 175)"/>
                <path fill="#120610" d="M377 12.212c-4.855 0-8.807 3.942-8.807 8.786 0 4.848 3.952 8.79 8.807 8.79 4.859 0 8.81-3.942 8.81-8.79 0-4.844-3.951-8.786-8.81-8.786zM377 31c-5.513 0-10-4.488-10-10.002S371.487 11 377 11c5.516 0 10 4.484 10 9.998C387 26.512 382.516 31 377 31zM136 236.17c-4.841 0-8.78 3.735-8.78 8.328s3.939 8.328 8.78 8.328c4.841 0 8.78-3.735 8.78-8.328s-3.939-8.328-8.78-8.328zm0 17.83c-5.514 0-10-4.262-10-9.502 0-5.236 4.486-9.498 10-9.498s10 4.262 10 9.498c0 5.24-4.486 9.502-10 9.502z" transform="translate(-888 -175) translate(888 175)"/>
                <path fill="#FFF" d="M365 22.501c0-.828 1.275-1.369 2.803-1.501.107-.008.384 2.804 0 3-1.547 0-2.803-.67-2.803-1.499" transform="translate(-888 -175) translate(888 175)"/>
                <path fill="#120610" d="M365.916 21.28c-.477.208-.89.6-.89 1.222 0 .607.391 1.123.927 1.3.037-.624.006-1.802-.037-2.522zm.438 3.72c-1.297 0-2.354-1.123-2.354-2.498 0-1.266.915-2.266 2.277-2.495.225-.04.453.1.548.328.08.184.413 3.982-.126 4.522-.096.092-.219.143-.345.143z" transform="translate(-888 -175) translate(888 175)"/>
                <path fill="#FFF" d="M365 22.501c0-.828 1.275-1.369 2.803-1.501.107-.008.384 2.804 0 3-1.547 0-2.803-.67-2.803-1.499" transform="translate(-888 -175) translate(888 175)"/>
                <path fill="#120610" d="M365.916 21.28c-.477.208-.89.6-.89 1.222 0 .607.391 1.123.927 1.3.037-.624.006-1.802-.037-2.522zm.438 3.72c-1.297 0-2.354-1.123-2.354-2.498 0-1.266.915-2.266 2.277-2.495.225-.04.453.1.548.328.08.184.413 3.982-.126 4.522-.096.092-.219.143-.345.143zM388.03 19.193c-.024.624.025 1.8.077 2.515.473-.218.88-.617.871-1.234-.012-.61-.408-1.117-.947-1.281zM387.688 23c-.196 0-.38-.13-.466-.324-.083-.184-.482-3.964.052-4.523.104-.105.242-.15.383-.153 1.273 0 2.322 1.09 2.344 2.454.018 1.261-.877 2.28-2.23 2.536-.028.007-.055.01-.083.01zM131 243.13c-1.018 0-1.846.843-1.846 1.872 0 1.029.828 1.867 1.845 1.867 1.019 0 1.847-.838 1.847-1.867 0-1.03-.828-1.871-1.847-1.871zm0 4.87c-1.655 0-3-1.345-3-2.998 0-1.654 1.345-3.002 3-3.002 1.654 0 3 1.348 3 3.002 0 1.653-1.346 2.998-3 2.998z" transform="translate(-888 -175) translate(888 175)"/>
                <path fill="#000" d="M136 435.022L136.8 445.019 166 446 150.341 433 136 435.022M101.626 432.053L101 442.069 130 447 116.224 432 101.626 432.053" transform="translate(-888 -175) translate(888 175)"/>
                <path fill="#120610" d="M136.714 435.3l12.863.457 3.173-42.774-22.445-.742 6.409 43.06zm13.42 1.7h-.021l-13.941-.5c-.29-.012-.532-.23-.574-.52l-6.591-44.28c-.027-.179.026-.358.144-.493.12-.139.293-.223.47-.205l23.797.783c.163.007.319.08.428.204.11.124.164.289.152.45l-3.263 43.995c-.025.317-.287.566-.6.566zM102.23 432.966l11.583 3.662 11.808-44.144-22.106-2.21-1.285 42.692zM114.238 438c-.062 0-.123-.007-.184-.025l-12.63-3.996c-.258-.08-.432-.323-.424-.596l1.319-43.795c.005-.167.08-.327.207-.436.125-.112.29-.167.462-.149l23.465 2.349c.177.018.338.112.439.257.101.145.133.327.088.501l-12.154 45.444c-.043.156-.15.294-.296.373-.09.048-.191.073-.292.073z" transform="translate(-888 -175) translate(888 175)"/>
                <path fill="#000" d="M119.448 309s-.953 6.996-5.183 14.264c-4.227 7.263-13.637 24.354-15.956 35.52-2.318 11.17-7.637 24.354-6.002 28.657 1.638 4.307 1.773 3.498 6.683 3.906 4.91.401 8.184-1.08 14.456-.137 6.276.942 12.275 5.654 22.64 5.787 10.366.134 25.914-4.577 25.914-4.577L148.088 309s-8.455 2.827-15.548 2.289c-7.092-.542-13.092-2.289-13.092-2.289" transform="translate(-888 -175) translate(888 175)"/>
                <path fill="#120610" d="M393.651 100.982c1.123-.523 41.023-13.913 32.03-27.972C416.011 57.894 363 90.384 363 90.384s29.525 11.121 30.651 10.598" transform="translate(-888 -175) translate(888 175)"/>
                <path fill="#FFF" d="M120.241 309.046s4.469 3.024 14.14 2.953c9.67-.072 13.554-1.182 13.554-1.182s1.099-13.802 1.026-16.018c-.075-2.216 3.073-8.405 1.685-13.803-1.54-5.978-4.835-6.421-9.159-13.137-3.6-5.598-5.494-8.859-5.494-8.859s-1.393 2.14-4.908 1.697c-3.517-.44-6.668-1.55-6.668-1.55s-5.202.147-7.179 9.006c-1.98 8.86-1.245 12.621-.147 19.559 1.098 6.94 3.15 21.334 3.15 21.334" transform="translate(-888 -175) translate(888 175)"/>
                <path fill="#120610" d="M120.5 309.025c1.014.575 5.583 2.783 13.894 2.762 7.945-.059 12.062-.81 13.295-1.08.19-2.386 1.079-13.783 1.014-15.752-.028-.828.307-2.024.733-3.531.81-2.881 1.92-6.827 1.009-10.344-.886-3.418-2.334-4.94-4.34-7.048-1.45-1.525-3.095-3.255-4.948-6.11-2.685-4.142-4.459-7.056-5.216-8.316-.788.701-2.372 1.638-4.988 1.322-3.27-.41-6.19-1.351-6.82-1.562-.708.076-4.915.846-6.671 8.661-1.922 8.534-1.3 12.41-.27 18.834l.127.788c1.024 6.423 2.882 19.298 3.18 21.376zM134.037 313c-9.708 0-14.243-2.972-14.433-3.103-.143-.094-.237-.247-.262-.417-.021-.142-2.11-14.681-3.22-21.642l-.125-.789c-1.054-6.564-1.689-10.524.284-19.287 2.1-9.344 7.678-9.606 7.914-9.613.052-.007.145.007.217.033.03.01 3.205 1.108 6.691 1.544 3.154.378 4.39-1.384 4.44-1.46.118-.172.33-.262.524-.266.208.007.398.116.503.298.02.033 1.973 3.364 5.604 8.966 1.791 2.761 3.394 4.447 4.808 5.933 2.05 2.158 3.67 3.862 4.636 7.578.993 3.837-.168 7.964-1.016 10.972-.382 1.355-.71 2.525-.688 3.168.073 2.256-1.007 15.756-1.053 16.327-.02.254-.195.468-.438.534-.165.047-4.163 1.148-14.02 1.22-.122 0-.245.004-.366.004z" transform="translate(-888 -175) translate(888 175)"/>
                <path fill="#000" d="M134.093 246.06c1.2-.59.184-2.783.523-3.446.259-.509 3.386-1.295 4.018-1.76.443-.328 2.828-3.155 3.2-3.155 1.333 0 3.6 4.987 3.796 4.987.399 0-.005-.79.075-1.172.57-2.82 2.474-5.85.223-8.51-2.367-2.802-4.78-.34-7.593-.732-2.099-.3-3.505-2.705-5.58-3.16-4.816-1.052-8.11 5.554-11.611 7.851-3.79 2.492-8.98 2.668-13.097 4.699-2.026.995-4.414 2.643-5.657 4.543-5.846 8.968 4.874 8.701 3.647 13.94-1.467 6.268-14.824 13.069-6.103 20.1 3.272 2.64 7.29 2.164 10.345-.511 5.07-4.443 18.392-20.443 19.722-26.995.662-3.267-1.404-6.48-.434-8.82.97-2.344 3.586-1.11 4.317-.552l.21 2.694" transform="translate(-888 -175) translate(888 175)"/>
                <path fill="#FFF" d="M135 253.926l-.734 4.96s-1.372 1.325-3.77 1.085c-2.004-.204-4.496-1.137-4.496-1.137l2.72-7.834s1.073 1.265 2.733 2.13c1.66.868 3.547.796 3.547.796" transform="translate(-888 -175) translate(888 175)"/>
                <path fill="#120610" d="M127.365 258.033c.827.244 2.38.663 3.686.781 1.635.143 2.712-.432 3.098-.69l.572-3.435c-.736-.049-1.926-.212-3.038-.729-.936-.432-1.69-.972-2.188-1.377l-2.13 5.45zm4.197 1.967c-.199 0-.404-.007-.617-.028-2.013-.181-4.442-.983-4.544-1.018-.152-.052-.276-.16-.345-.303-.069-.143-.074-.31-.017-.457l2.666-6.824c.073-.189.239-.325.436-.363.203-.028.404.028.542.17.01.015 1.003 1.04 2.502 1.73 1.475.69 3.194.639 3.207.639.172.013.346.07.462.198.116.133.167.307.138.478l-.719 4.32c-.022.136-.09.258-.195.346-.057.052-1.325 1.112-3.516 1.112z" transform="translate(-888 -175) translate(888 175)"/>
                <path fill="#000" d="M126.378 263.425c13.896-4.46 19.622 27.643 19.622 27.643L125.621 297s-13.138-29.116.757-33.575" transform="translate(-888 -175) translate(888 175)"/>
                <path fill="#FFF" d="M149.076 292.533s11.822-1.153 15.363-.067c3.542 1.09 10.561 6.664 10.561 6.664l-19.539 1.498s-4.49.883-5.627-.072c-1.139-.95-1.834-2.104-1.834-2.104l1.076-5.919" transform="translate(-888 -175) translate(888 175)"/>
                <path fill="#120610" d="M150.212 297.07c.232.31.762.957 1.49 1.513.546.415 2.976.294 4.916-.055l17.125-1.196c-2.109-1.444-6.236-4.136-8.594-4.8-2.875-.804-11.938-.127-14.043.046l-.894 4.492zm3.206 2.93c-.988 0-1.932-.124-2.438-.508-1.154-.878-1.856-1.935-1.886-1.98-.082-.124-.112-.276-.083-.421l1.027-5.163c.051-.252.264-.439.524-.463.465-.038 11.46-1.002 14.91-.038 3.45.968 10.012 5.705 10.29 5.902.198.145.283.394.215.625-.069.232-.278.398-.523.415l-18.69 1.303c-.41.076-1.923.328-3.346.328z" transform="translate(-888 -175) translate(888 175)"/>
                <path fill="#FFF" d="M155.626 299.28L174.288 298.847 186.585 273 204 273.742 191.203 302 155 302 155.626 299.28" transform="translate(-888 -175) translate(888 175)"/>
                <path fill="#120610" d="M156.36 300.808h34.903l12.218-26.915-16.051-.683-12.074 25.315c-.098.204-.303.34-.532.344l-18.114.418-.35 1.521zM191.653 302h-36.05c-.183 0-.356-.082-.471-.225-.114-.14-.158-.326-.117-.505l.623-2.702c.06-.265.298-.458.574-.465l18.211-.419 12.086-25.34c.104-.219.302-.344.571-.344l17.342.737c.2.007.383.115.488.283.105.168.12.376.037.558l-12.743 28.071c-.097.211-.313.351-.55.351z" transform="translate(-888 -175) translate(888 175)"/>
                <path fill="#FFF" d="M128 295.324s3.96 13.707 14.571 17c10.612 3.29 42.763-6.5 42.763-6.5s9.017-9.983 9.623-11.696c.61-1.706-5.503 4.564-5.503 4.564s5.76-8.388 5.365-8.859c-.396-.467-6.95 6.978-6.95 6.978s3.948-7.613 3.353-7.807c-.593-.198-6.302 7.803-6.302 7.803s.86-5.63-.326-4.711c-1.19.922-1.951 6.363-3.851 7.616-1.903 1.254-27.956-.158-30.65-.783-2.691-.624-6.73-8.381-6.73-8.381L128 295.324" transform="translate(-888 -175) translate(888 175)"/>
                <path fill="#120610" d="M129.363 295.553c.873 2.645 5 13.672 13.948 16.543 9.907 3.178 39.654-5.893 42.115-6.656 2.35-2.697 5.648-6.605 7.644-9.201-.875.851-1.867 1.863-2.765 2.818-.218.226-.57.249-.815.049-.243-.204-.295-.56-.12-.826 1.509-2.271 3.074-4.746 4.103-6.498-1.314 1.386-3.101 3.397-4.73 5.308-.198.238-.538.286-.792.108-.252-.178-.339-.519-.2-.796.978-1.949 1.979-4.075 2.627-5.601-1.214 1.54-2.964 3.956-4.536 6.238-.16.23-.46.318-.718.214-.259-.107-.413-.381-.37-.666.195-1.326.323-2.878.29-3.764-.292.582-.602 1.504-.884 2.349-.657 1.956-1.402 4.174-2.641 5.019-2.248 1.522-28.668-.152-31.028-.722-2.573-.619-5.901-6.65-6.871-8.505l-14.257 4.59zM148.9 314c-2.326 0-4.364-.219-5.948-.726-10.766-3.456-14.762-17.365-14.927-17.958-.091-.318.087-.655.398-.755l15.316-4.927c.282-.089.583.037.717.307 1.508 2.993 4.556 7.901 6.312 8.327 2.994.719 28.339 1.971 30.085.893.898-.611 1.601-2.708 2.166-4.39.546-1.625.978-2.91 1.635-3.437.465-.37.862-.21 1.009-.122.223.13.748.444.558 3.152 4.675-6.634 5.164-6.467 5.604-6.32.167.056.346.234.413.401.081.204.268.667-1.443 4.434 3.609-4.027 4.134-4.023 4.378-4.03.177 0 .395.103.509.24.251.312.53.649-2.222 5.094 1.642-1.445 1.94-1.256 2.217-1.082.149.093.47.378.249 1.019-.626 1.83-8.784 11.209-9.712 12.272-.073.081-.167.144-.272.177-1.12.352-23.763 7.431-37.042 7.431zM386.92 18.72c-1.46-4.03-7.647-.437-11.556-.377-2.37.035-3.038-2.019-5.1-2.803-1.346-.508-2.785-.084-4.15-.286-3.364-.49-6.595-3.586-7.74-6.597-1.002-2.612-.034-7.929 3.449-8.603 2.9-.565 3.805 3.474 6.739 3.498 2.53.022 3.449-2.968 5.852-3.24 4.577-.52 6.25 2.75 9.499 4.702 1.075.646 2.459.533 3.475 1.27 2.77 2.01 4.273 6.785 3.33 9.902-.074.247-1.405 2.785-1.65 2.7-.675-.229-1.914.48-2.147-.165" transform="translate(-888 -175) translate(888 175)"/>
                <path fill="#FFF" d="M371 29.354l.692 1.945s1.8 1.747 4.73 1.7c2.927-.047 3.953-1.7 3.953-1.7L381 29s-2.966 1.3-5.204 1.159c-2.238-.141-4.796-.805-4.796-.805" transform="translate(-888 -175) translate(888 175)"/>
                <path fill="#120610" d="M372.765 31.02c.364.372 1.928 1.72 4.136 1.736 2.242-.041 3.18-1.342 3.37-1.647l.322-1.427c-1.104.458-2.855 1.05-4.336.935-1.377-.104-2.859-.44-3.814-.689l.322 1.092zm4.032 2.98c-3.032 0-4.887-2.135-4.963-2.228-.059-.067-.1-.145-.128-.23l-.678-2.314c-.066-.22-.014-.455.135-.623.149-.16.374-.227.574-.16.025.008 2.489.771 4.6.935 2.038.15 4.803-1.304 4.834-1.319.2-.1.44-.078.612.071.177.153.253.399.201.634l-.616 2.73c-.01.056-.031.108-.055.157-.045.093-1.208 2.284-4.392 2.347h-.124z" transform="translate(-888 -175) translate(888 175)"/>
                <path fill="#FFF" d="M340.276 60L340 76.038s4.626-.143 9.464.58C354.299 77.336 361 79 361 79l-.76-8.741h-6.01l.344-8.96L340.276 60" transform="translate(-888 -175) translate(888 175)"/>
                <path fill="#120610" d="M340.64 74.854c1.705 0 5.25.075 8.87.591 3.978.567 9.22 1.725 11.21 2.18l-.662-7.275h-5.687c-.163 0-.322-.065-.435-.184-.115-.12-.173-.278-.17-.44l.337-8.286-13.622-1.18-.264 14.597c.126 0 .267-.003.423-.003zM361.397 79c-.047 0-.094-.004-.14-.018-.07-.014-6.984-1.646-11.918-2.35-4.909-.7-9.673-.559-9.716-.562-.181-.015-.326-.058-.442-.173-.12-.116-.184-.275-.18-.44l.285-15.864c.004-.17.076-.325.2-.437.126-.112.296-.173.455-.152l14.839 1.289c.322.025.565.303.55.62l-.33 8.235h5.608c.311 0 .572.238.601.549l.79 8.646c.014.195-.062.383-.207.509-.112.097-.253.148-.395.148z" transform="translate(-888 -175) translate(888 175)"/>
                <path fill="#FFF" d="M398 58.52L412.395 54 415 68.83s-.87-.845-5.572.85c-4.702 1.697-10.054 3.32-10.054 3.32L398 58.52" transform="translate(-888 -175) translate(888 175)"/>
                <path fill="#120610" d="M398.244 58.757l1.242 13.807c1.6-.523 5.614-1.852 9.202-3.217 2.542-.965 4.058-1.162 4.96-1.136l-2.299-13.788-13.105 4.334zM398.96 74c-.119 0-.235-.033-.336-.104-.151-.104-.249-.27-.263-.456l-1.358-15.062c-.025-.29.145-.556.416-.645l14.223-4.705c.163-.052.343-.03.495.059.148.096.253.249.282.427l2.574 15.428c.043.268-.083.531-.318.653-.231.127-.513.082-.7-.107.007-.008-.145-.052-.531-.052-.64 0-1.942.163-4.34 1.072-4.61 1.752-9.913 3.447-9.967 3.466-.058.019-.12.026-.177.026z" transform="translate(-888 -175) translate(888 175)"/>
                <path fill="#FFF" d="M360 56.382L361.59 79.205 365.777 80 399 78.556 397.556 54 360 56.382" transform="translate(-888 -175) translate(888 175)"/>
                <path fill="#120610" d="M362.755 78.104l3.707.699 32.293-1.411-1.364-23.142-36.142 2.286 1.506 21.568zm3.62 1.896l-4.302-.796c-.272-.05-.475-.278-.494-.55l-1.578-22.639c-.01-.16.04-.318.15-.441.104-.12.253-.192.416-.203l37.354-2.366c.152-.025.315.047.439.148.12.109.192.257.203.42l1.436 24.358c.008.159-.047.318-.156.437-.108.12-.26.192-.42.2L366.375 80z" transform="translate(-888 -175) translate(888 175)"/>
                <path fill="#FFF" d="M388.85 90L386 104.168s18.458 2.265 21.988-.68C411.52 100.54 413 94.76 413 94.76L388.85 90" transform="translate(-888 -175) translate(888 175)"/>
                <path fill="#120610" d="M387.306 104.068c5.456.616 18.134 1.546 20.738-.616 2.665-2.212 4.128-6.2 4.604-7.711l-22.759-4.459-2.583 12.786zm11.97 1.932c-5.613 0-11.658-.704-12.753-.839-.164-.02-.315-.106-.411-.24-.097-.131-.133-.298-.1-.46l2.826-13.986c.064-.322.368-.527.7-.463l23.983 4.7c.16.031.3.127.386.261.09.138.114.304.075.46-.06.244-1.56 5.928-5.173 8.921-1.524 1.264-5.412 1.646-9.533 1.646z" transform="translate(-888 -175) translate(888 175)"/>
                <path fill="#FFF" d="M350.99 101l-7.99 6.962s11.53.239 16.44-.479c4.907-.72 8.56-3.363 8.56-3.363L350.99 101" transform="translate(-888 -175) translate(888 175)"/>
                <path fill="#120610" d="M344.312 107.759c3.448.033 11.338.047 15.159-.478 3.05-.422 5.628-1.546 7.135-2.332l-15.58-2.682-6.714 5.492zm2.871 1.241c-2.514 0-4.385-.033-4.575-.037-.26-.003-.487-.169-.573-.411-.086-.243-.011-.51.19-.672l8.232-6.736c.141-.114.324-.17.502-.133l17.529 3.02c.245.044.443.23.498.473.053.243-.048.492-.256.636-.156.106-3.943 2.644-9.085 3.353-3.076.423-8.548.507-12.462.507z" transform="translate(-888 -175) translate(888 175)"/>
                <path fill="#120610" d="M386.846 106L391 86.657s-57.959-20.512-61.676-4.622C323.963 104.973 386.846 106 386.846 106M345.565 74c-.22 0-.43-.122-.522-.323-.119-.267.017-.575.305-.685.082-.031 2.005-.769 3.89-1.224 1.873-.452 4.026-.75 4.114-.763.306-.04.597.154.641.44.048.289-.166.552-.474.596-.02.003-2.181.302-3.996.741-1.807.433-3.72 1.17-3.737 1.177-.072.028-.146.041-.22.041M398.61 66c-.234 0-.457-.137-.555-.373-.14-.32-.004-.692.3-.837.127-.06 3.121-1.441 8.154-.407.33.069.545.404.48.746-.063.342-.396.56-.717.498-4.606-.936-7.384.312-7.413.316-.08.042-.165.057-.249.057" transform="translate(-888 -175) translate(888 175)"/>
                <path fill="#FFF" d="M112.006 364c-.865 0-1.693-.052-2.477-.153-.331-.041-.566-.35-.524-.694.04-.34.335-.582.672-.537 8.612 1.104 23.578-4.604 29.218-13.342.184-.283.56-.358.836-.172.277.19.352.575.168.862C134.445 358.42 121.222 364 112.006 364M125.61 378c-.254 0-.49-.16-.577-.41-.11-.315.06-.656.38-.765 8.847-3.003 13.037-9.107 17.473-15.562.192-.276.572-.344.848-.16.278.19.35.563.16.838-4.553 6.63-8.854 12.893-18.086 16.026-.066.022-.133.033-.198.033" transform="translate(-888 -175) translate(888 175)"/>
                <g fill="#120610">
                    <g>
                        <path d="M6.345 186.89c-.651 0-1.186-.512-1.211-1.162-.018-.53-1.593-53.747 23.727-103.949C54.087 31.77 75.832.82 76.051.513c.385-.545 1.137-.678 1.686-.292.55.379.68 1.129.299 1.673-.219.303-21.866 31.123-47.004 80.96C5.982 132.515 7.542 185.12 7.556 185.645c.025.664-.499 1.223-1.168 1.245h-.043M3.392 40.977c-5.505 19.963 14.29 34.422 20.11 38.173.46-5.605.13-23.498-20.11-38.173zm21.076 41.38c-.203 0-.407-.051-.592-.152-.313-.177-31.077-17.604-22.302-43.558.12-.357.403-.639.767-.761.364-.116.76-.061 1.07.155C30.515 56.677 25.704 81.155 25.653 81.4c-.08.371-.331.689-.684.847-.16.072-.33.109-.502.109z" transform="translate(-888 -175) translate(888 175) translate(536 178) translate(14.378 80.681)"/>
                        <path d="M35.57 85.624c3.87 4.097 17.386 15.704 42.215 10.204C66.283 78.523 42.207 83.77 35.57 85.624zm29.815 14.02c-22.091 0-32.786-13.746-32.913-13.912-.23-.303-.302-.703-.19-1.067.114-.368.394-.657.757-.786.338-.112 33.848-11.535 47.71 12.133.188.324.218.72.068 1.07-.149.35-.454.607-.825.7-5.327 1.313-10.196 1.861-14.607 1.861zM20.901 117.706c3.935 4.043 17.71 15.602 42.186 10.21-11.499-17.3-35.513-12.071-42.186-10.21zm29.786 14.026c-22.091 0-32.786-13.741-32.913-13.907-.23-.307-.302-.703-.19-1.068.113-.368.393-.66.757-.786.335-.115 33.847-11.534 47.71 12.13.192.324.217.72.068 1.07-.145.35-.45.607-.822.7-5.33 1.313-10.196 1.861-14.61 1.861zM50.676 184.787c-.208 0-.419-.054-.611-.166l-17.08-9.933c-.578-.339-.771-1.075-.433-1.648s1.08-.757 1.658-.43l17.08 9.937c.578.336.771 1.071.433 1.645-.226.382-.633.595-1.047.595" transform="translate(-888 -175) translate(888 175) translate(536 178) translate(14.378 80.681)"/>
                        <path d="M8.225 185.667c4.552.884 26.203 4.126 55.345-6.975 26.03-9.915 39.967-35.508 42.826-41.257-5.768-1.98-31.346-9.385-57.011 4.584-38.324 21.146-41.051 39.59-41.16 43.648zm13.687 3.596c-9.222 0-14.71-1.335-15.17-1.454-.485-.122-.84-.523-.903-1.013-.112-.898-2.283-22.239 42.375-46.884 30.073-16.363 60.01-4.382 60.309-4.26.302.123.542.362.662.66.123.304.116.64-.015.935-.142.317-14.509 32.18-44.73 43.688-17.579 6.698-32.335 8.328-42.528 8.328z" transform="translate(-888 -175) translate(888 175) translate(536 178) translate(14.378 80.681)"/>
                        <path d="M7.392 187.654c-.45 0-.884-.249-1.09-.678-.295-.595-.045-1.316.555-1.605l99.495-48.146c.607-.285 1.33-.04 1.622.556.294.595.043 1.316-.557 1.608L7.92 187.532c-.17.083-.352.122-.527.122" transform="translate(-888 -175) translate(888 175) translate(536 178) translate(14.378 80.681)"/>
                        <path d="M42.407 170.667h-.026c-.669-.015-1.2-.563-1.189-1.23l.542-25.128c.014-.664.542-1.11 1.24-1.176.669.015 1.2.563 1.185 1.226l-.542 25.132c-.014.653-.552 1.176-1.21 1.176M50.737 166.44c-.05 0-.101 0-.156-.011-.662-.087-1.13-.689-1.044-1.345l3.488-26.607c.087-.66.687-1.125 1.356-1.039.666.087 1.135.689 1.047 1.35l-3.487 26.606c-.08.606-.604 1.046-1.204 1.046M92.872 160.514c-.058 0-.116-.004-.175-.01l-21.57-3.117c-.662-.098-1.12-.707-1.026-1.367.098-.657.713-1.097 1.375-1.017l21.57 3.116c.662.097 1.12.707 1.026 1.367-.087.599-.607 1.028-1.2 1.028" transform="translate(-888 -175) translate(888 175) translate(536 178) translate(14.378 80.681)"/>
                    </g>
                    <path d="M118.807 46.469C98.14 49.726 93.05 73.645 92.02 80.4c5.357-1.804 21.59-9.223 26.786-33.932zM90.58 83.275c-.29 0-.574-.104-.796-.3-.291-.252-.444-.623-.411-1.005.033-.354 3.37-35.339 30.825-38.102.368-.047.753.101 1.015.38.258.277.367.66.298 1.03-5.949 32.176-30.422 37.914-30.665 37.968-.088.018-.178.03-.266.03zM56.094 60.2c-5.513 19.995 14.353 34.469 20.135 38.187.549-5.583.421-23.31-20.135-38.187zm21.076 41.38c-.207 0-.41-.051-.592-.152-.313-.173-31.077-17.608-22.302-43.558.123-.357.407-.639.767-.758.364-.119.76-.065 1.073.152 27.102 18.636 22.29 43.118 22.24 43.36-.08.375-.335.692-.684.847-.16.072-.334.108-.502.108zM3.392 154.937c-5.513 19.992 14.35 34.466 20.131 38.188.55-5.583.422-23.31-20.13-38.188zm21.073 41.38c-.204 0-.407-.05-.593-.152-.313-.173-31.073-17.608-22.298-43.558.12-.36.404-.638.767-.757.364-.12.76-.065 1.073.151 27.102 18.636 22.29 43.115 22.236 43.36-.08.375-.33.692-.683.848-.16.072-.331.108-.502.108zM98.276 1.468c-5.662 0-10.273 4.57-10.273 10.185 0 5.62 4.611 10.19 10.273 10.19s10.269-4.57 10.269-10.19c0-5.615-4.607-10.185-10.27-10.185zm0 21.842c-6.48 0-11.753-5.23-11.753-11.657S91.796 0 98.276 0s11.749 5.226 11.749 11.653c0 6.427-5.27 11.657-11.75 11.657z" transform="translate(-888 -175) translate(888 175) translate(536 178)"/>
                </g>
                <path fill="#120610" d="M568.52 266.185c-5.721 20.202 14.897 34.828 20.898 38.59.57-5.642.437-23.556-20.898-38.59zM590.395 308c-.215 0-.426-.051-.615-.153-.325-.179-32.253-17.793-23.147-44.017.129-.36.423-.645.797-.769.377-.12.789-.061 1.113.157 28.128 18.832 23.135 43.568 23.083 43.816-.084.376-.344.696-.71.857-.166.073-.343.109-.52.109zM616.36 279.694c3.894 4.181 17.492 16.032 42.49 10.408-11.58-17.658-35.814-12.3-42.49-10.408zM646.37 294c-22.236 0-33-14.026-33.125-14.195-.234-.313-.304-.714-.194-1.09.113-.375.395-.67.761-.802.34-.114 34.065-11.774 48.022 12.377.194.335.22.74.07 1.097-.15.353-.458.618-.832.71C655.71 293.441 650.81 294 646.37 294zM600.394 310.684c3.964 4.127 17.825 15.925 42.457 10.421-11.562-17.636-35.737-12.32-42.457-10.421zM630.37 325c-22.231 0-32.995-14.025-33.124-14.195-.234-.312-.307-.717-.194-1.09.114-.375.396-.673.762-.802.34-.117 34.068-11.772 48.02 12.38.194.331.22.736.07 1.093-.147.357-.455.619-.828.715-5.362 1.34-10.263 1.899-14.706 1.899z" transform="translate(-888 -175) translate(888 175)"/>
                <path fill="#00AAB1" d="M352.657 191.426c-.018-18.332 14.844-33.223 33.22-33.242l-.05-52.184-170.827.177.175 170.823 52.156-.054v-.723c-.02-18.372 14.843-33.263 33.223-33.281 18.336-.018 33.271 14.84 33.29 33.212v.727l52.156-.054-.054-52.185c-18.376.018-33.271-14.84-33.29-33.216" transform="translate(-888 -175) translate(888 175)"/>
                <path fill="#120610" d="M507.228 50.092l7.066 22.29 16.083-17.17-23.15-5.12zM513.9 75c-.065 0-.133-.007-.197-.021-.316-.067-.57-.297-.664-.6l-7.998-25.226c-.097-.303-.018-.631.197-.868.219-.233.545-.331.864-.264l26.193 5.797c.316.067.57.296.664.6.096.303.021.635-.198.868l-18.198 19.428c-.172.187-.416.286-.663.286zM61.899 314c-.231 0-.463-.087-.64-.267-.349-.357-.345-.93.009-1.284l12.202-12.186c.351-.354.92-.35 1.27.007s.346.93-.007 1.284L62.53 313.74c-.174.173-.403.26-.631.26M.92 374c-.237 0-.474-.087-.653-.268-.359-.359-.355-.935.005-1.29l50.161-49.18c.363-.352.945-.348 1.3.007.359.358.355.934-.005 1.289L1.567 373.739c-.18.174-.414.261-.647.261M33.92 361c-.237 0-.474-.09-.653-.272-.359-.355-.355-.934.005-1.289l50.161-49.178c.362-.351.944-.347 1.3.007.358.36.355.939-.005 1.29l-50.161 49.178c-.18.177-.414.264-.647.264M208.899 47c-.232 0-.463-.09-.64-.267-.349-.357-.345-.934.009-1.284L220.47 33.26c.352-.35.92-.346 1.27.007.35.358.346.935-.007 1.285L209.53 46.74c-.175.173-.404.26-.631.26M147.92 108c-.237 0-.474-.09-.653-.268-.359-.359-.355-.938.005-1.29l50.161-49.18c.363-.352.945-.348 1.3.006.359.36.355.939-.005 1.29l-50.161 49.181c-.18.174-.414.261-.647.261M179.92 94c-.237 0-.474-.09-.653-.268-.359-.359-.355-.935.005-1.29l50.161-49.18c.362-.35.943-.35 1.3.008.359.358.355.934-.006 1.29l-50.16 49.18c-.18.173-.414.26-.647.26" transform="translate(-888 -175) translate(888 175)"/>
                <path fill="#00AAB1" d="M96.466 207c-.182 0-.365-.054-.52-.163l-33.561-23.76c-.265-.184-.41-.5-.382-.826.03-.322.227-.609.52-.743l37.191-17.42c.295-.142.638-.11.901.08.264.184.41.503.381.825l-3.629 41.177c-.029.326-.227.609-.52.747-.121.058-.251.083-.38.083z" transform="translate(-888 -175) translate(888 175) rotate(-10 81.5 185.5)"/>
                <path fill="#120610" d="M62.707 179.494l30.997 21.94 3.352-38.027-34.35 16.087zM94.467 204c-.183 0-.366-.054-.52-.163l-33.562-23.76c-.265-.184-.41-.5-.382-.826.03-.322.227-.609.52-.743l37.191-17.42c.295-.142.638-.11.901.08.264.184.41.503.381.825l-3.629 41.177c-.029.326-.227.609-.52.747-.121.058-.251.083-.38.083zM580.92 138c-.237 0-.475-.09-.654-.268-.358-.359-.354-.935.008-1.29l50.162-49.18c.358-.35.943-.35 1.297.008.358.358.355.934-.003 1.29l-50.163 49.18c-.179.173-.416.26-.646.26M279.5 36.468c-10.494 0-19.032 8.538-19.032 19.03 0 10.493 8.538 19.03 19.032 19.03 10.497 0 19.032-8.537 19.032-19.03 0-10.492-8.535-19.03-19.032-19.03zm0 39.532c-11.303 0-20.5-9.198-20.5-20.502C259 44.194 268.197 35 279.5 35c11.305 0 20.5 9.194 20.5 20.498S290.805 76 279.5 76zM557.845 278l-170.991-.268c-.474 0-.854-.384-.854-.86l.08-51.49c0-.47.383-.854.853-.854.474 0 .854.384.854.859l-.076 50.634 169.28.268.08-50.765c0-.467.376-.848.846-.855 17.82-.181 32.343-14.859 32.376-32.718.029-17.855-14.445-32.58-32.27-32.826-.467-.007-.843-.388-.843-.859l.08-51.595-51.085-.094c-.463 0-.839-.374-.85-.837-.42-17.925-14.763-31.993-32.654-32.026h-.058c-17.851 0-32.205 14.018-32.686 31.939-.011.46-.39.83-.854.83l-51.08-.095-.08 51.19c0 .47-.383.851-.853.851-.474 0-.854-.384-.854-.859l.076-52.04c.004-.229.09-.446.253-.606.16-.16.376-.25.604-.25l51.113.098C439.174 86.318 454.107 72 472.613 72h.062c18.546.033 33.471 14.402 34.328 32.866l51.113.094c.47 0 .854.385.854.86l-.08 51.616c18.365.703 33.142 16.015 33.11 34.523-.033 18.504-14.86 33.765-33.222 34.406l-.08 50.783c0 .225-.09.442-.249.602-.16.163-.376.25-.604.25" transform="translate(-888 -175) translate(888 175)"/>
                <path fill="#120610" d="M386.029 227h-.007c-18.76-.179-34.022-15.873-34.022-34.985 0-19.175 15.32-34.887 34.147-35.015h.007c.466 0 .842.383.846.857.004.475-.373.862-.842.865-17.9.124-32.467 15.06-32.467 33.293 0 18.171 14.51 33.091 32.345 33.26.47.006.842.393.839.868-.004.478-.38.857-.846.857M217.703 446.023l166.779.27.079-50.006c0-.466.374-.844.842-.848 17.558-.188 31.865-14.65 31.894-32.24.029-17.586-14.231-32.096-31.793-32.341-.464-.007-.839-.39-.839-.855l.083-50.826-50.333-.083c-.461 0-.836-.371-.847-.833-.41-17.666-14.533-31.53-32.156-31.558h-.058c-17.597 0-31.734 13.806-32.196 31.457-.012.458-.39.83-.85.83h-.001l-50.336-.083-.268 167.116zM385.328 448l-168.478-.274c-.47 0-.85-.383-.85-.855l.272-168.82c.001-.468.382-.85.851-.85h.001l50.365.082C268.39 259.102 283.105 245 301.354 245h.062c18.278.029 32.977 14.188 33.823 32.392l50.362.083c.472 0 .85.382.85.854l-.083 50.848c18.098.7 32.66 15.79 32.632 34.026-.029 18.235-14.642 33.279-32.74 33.92l-.079 50.026c-.004.469-.382.851-.853.851z" transform="translate(-888 -175) translate(888 175)"/>
            </g>
        </g>
    </g>
</svg>
