<svg xmlns="http://www.w3.org/2000/svg" width="169" height="180" viewBox="0 0 169 180">
    <g fill="none" fill-rule="evenodd">
        <g>
            <g>
                <path fill="#120610" d="M146.587 139.416l-16.413 13.512 19.908 7.457-3.495-20.969zm4.14 22.26c-.06 0-.12-.01-.178-.032l-21.555-8.074c-.17-.064-.294-.212-.322-.391-.03-.18.038-.362.178-.475l17.77-14.63c.142-.118.335-.146.502-.084.17.064.294.213.322.39l3.784 22.706c.03.18-.038.36-.177.474-.094.077-.208.116-.323.116z" transform="translate(-406 -1507) translate(406 1507)"/>
                <path fill="#120610" d="M5.812 97.843c-.13 0-.26-.049-.36-.149-.197-.2-.196-.522.004-.719l6.894-6.816c.202-.196.52-.194.719.003.197.2.196.522-.004.719L6.17 97.698c-.1.097-.23.145-.358.145" transform="translate(-406 -1507) translate(406 1507) matrix(-1 0 0 1 18.52 0)"/>
                <path fill="#120610" d="M19.062 131.548c-.13 0-.261-.05-.361-.15-.197-.2-.196-.521.004-.718l27.696-27.401c.203-.196.522-.193.719.004.197.2.196.521-.004.718L19.42 131.402c-.1.097-.229.146-.358.146" transform="translate(-406 -1507) translate(406 1507) matrix(-1 0 0 1 65.821 0)"/>
                <path fill="#120610" d="M140 143.25c-.131 0-.262-.05-.362-.15-.197-.2-.196-.52.004-.717l27.698-27.401c.202-.196.52-.194.717.004.197.199.196.521-.004.718l-27.696 27.401c-.1.097-.228.145-.357.145" transform="translate(-406 -1507) translate(406 1507) matrix(-1 0 0 1 307.696 0)"/>
                <path fill="#120610" d="M.509 124c-.132 0-.262-.05-.362-.15-.197-.2-.196-.521.004-.718l27.695-27.4c.203-.195.522-.193.719.005.197.199.196.521-.004.718l-27.695 27.4c-.1.097-.229.145-.357.145" transform="translate(-406 -1507) translate(406 1507) matrix(-1 0 0 1 28.712 0)"/>
                <path fill="#120610" d="M42.97 152.667l-13.556-6.298 1.325 14.886 12.23-8.588zm-12.532 9.592c-.052 0-.103-.01-.15-.032-.117-.054-.196-.166-.206-.293l-1.433-16.118c-.011-.128.046-.25.15-.323.105-.075.24-.089.356-.032l14.675 6.82c.116.053.194.164.206.291.011.128-.047.25-.15.324l-13.244 9.3c-.061.042-.133.063-.204.063zM147.755 93.99c-2.21 0-4.008 1.796-4.008 4.006s1.798 4.008 4.008 4.008 4.007-1.797 4.007-4.008c0-2.21-1.798-4.007-4.007-4.007zm0 8.658c-2.566 0-4.651-2.086-4.651-4.652 0-2.564 2.085-4.65 4.65-4.65 2.565 0 4.652 2.086 4.652 4.65 0 2.566-2.087 4.652-4.651 4.652zM66.306 1.28l-13.87 11.417L69.26 19 66.306 1.28zm3.52 18.852c-.054 0-.106-.01-.158-.029L51.403 13.26c-.15-.056-.257-.187-.284-.343-.026-.157.034-.316.156-.417L66.335.102c.124-.1.292-.13.44-.073.148.056.256.187.281.344l3.207 19.24c.026.157-.034.316-.156.418-.08.065-.18.1-.282.1zM24.41 47.045c-6.648 0-12.058 5.41-12.058 12.058 0 6.65 5.41 12.06 12.059 12.06 6.649 0 12.059-5.41 12.059-12.06 0-6.648-5.41-12.058-12.06-12.058zm0 25.08c-7.18 0-13.02-5.84-13.02-13.022 0-7.18 5.84-13.022 13.02-13.022s13.022 5.842 13.022 13.022c0 7.181-5.842 13.023-13.021 13.023z" transform="translate(-406 -1507) translate(406 1507)"/>
                <path fill="#FF6452" d="M134.132 69.378l-13.55-12.312c-.63-.572-1.5-.798-2.33-.603l-17.822 4.182c-2.087.49-3.83-1.627-2.95-3.582l7.522-16.69c.35-.776.296-1.674-.145-2.403l-9.485-15.658c-1.11-1.834.363-4.146 2.495-3.912l18.197 1.997c.846.093 1.684-.237 2.24-.882l11.961-13.858c1.401-1.624 4.055-.936 4.491 1.163l3.726 17.924c.172.834.745 1.528 1.53 1.859l16.876 7.092c1.977.83 2.143 3.568.282 4.631l-15.896 9.082c-.74.422-1.224 1.18-1.294 2.03l-1.53 18.242c-.18 2.136-2.732 3.14-4.318 1.698" transform="translate(-406 -1507) translate(406 1507) matrix(-1 0 0 1 253.465 0)"/>
                <path fill="#120610" d="M80.213 67.259c-2.494 0-4.522 1.852-4.522 4.129 0 2.276 2.028 4.127 4.522 4.127s4.524-1.851 4.524-4.127c0-2.277-2.03-4.13-4.524-4.13zm0 8.924c-2.862 0-5.19-2.15-5.19-4.795s2.328-4.797 5.19-4.797c2.863 0 5.19 2.152 5.19 4.797 0 2.644-2.327 4.795-5.19 4.795z" transform="translate(-406 -1507) translate(406 1507)"/>
                <path fill="#120610" d="M78.522 71.921c-.425 0-.77.29-.77.646 0 .355.345.644.77.644.424 0 .77-.289.77-.644 0-.356-.346-.646-.77-.646zm0 1.957c-.793 0-1.437-.588-1.437-1.311 0-.725.644-1.313 1.437-1.313.792 0 1.437.588 1.437 1.313 0 .723-.645 1.311-1.437 1.311z" transform="translate(-406 -1507) translate(406 1507)"/>
                <path fill="#120610" d="M83.117 81.21c-.04 0-.08-.007-.12-.022l-5.143-1.963c-.085-.033-.155-.1-.19-.185-.034-.086-.032-.183.007-.266.718-1.548 1.51-3.311 1.567-3.532.045-.173.216-.29.395-.25.176.038.292.2.26.377-.05.27-.948 2.24-1.466 3.36l4.453 1.7 1.159-4.896c.042-.18.218-.295.402-.248.179.042.29.222.247.402l-1.246 5.267c-.023.093-.084.172-.169.218-.05.026-.102.039-.156.039" transform="translate(-406 -1507) translate(406 1507) matrix(-1 0 0 1 162.337 0)"/>
                <path fill="#000" d="M107.513 174.333L106.604 179.801 90.779 178.992 99.862 172.558 107.513 174.333" transform="translate(-406 -1507) translate(406 1507) matrix(-1 0 0 1 198.293 0)"/>
                <path fill="#000" d="M86.452 173.091L86.094 178.623 70.269 179.403 78.66 172.093 86.452 173.091" transform="translate(-406 -1507) translate(406 1507) matrix(-1 0 0 1 156.721 0)"/>
                <path fill="#000" d="M60.74 71.446c.113.193-2.075-.528-2.416-.878-1.135-1.164-1.787-2.68-1.74-4.337.09-3.259 4.083-6.237 7.209-4.892 2.114.91 1.584 3.598 2.533 5.291 1.205 2.149 4.184.767 5.407 3.56.937 2.138.318 5.817 1.6 7.63 1.051 1.485 3.087 1.75 4.64 2.472 3.33 1.552 5.82 5.08 4.981 8.917-.315 1.449-.938 2.808-1.467 4.185-.6 1.56-2.523 3.236-3.928 4.13-1.444.918-3.054 1.424-4.741 1.63-4.679.573-9.855-2.927-10.114-7.872-.133-2.53 1.101-5.331.354-7.8-.502-1.655-1.805-2.208-2.916-3.297-2.638-2.584.92-5.368 2.113-6.992.487-.665-.141-1.524-.783-1.73-.154-.051-.822-.167-.732-.017" transform="translate(-406 -1507) translate(406 1507) matrix(-1 0 0 1 139.7 0)"/>
                <path fill="#000" d="M81.966 84.302l3.254 11.069s20.394-2.58 15.324-11.207c-2.88-4.9-7.045-4.423-11.436-2.51-4.39 1.914-7.142 2.648-7.142 2.648" transform="translate(-406 -1507) translate(406 1507) matrix(-1 0 0 1 183.32 0)"/>
                <path fill="#120610" d="M94.184 63.26c-.137 0-.265-.085-.315-.221l-3.15-8.76-8.941 5.303c-.157.095-.363.043-.457-.115-.095-.16-.042-.364.117-.457l9.288-5.51c.085-.05.188-.061.283-.028.094.034.167.108.201.202l3.288 9.14c.062.173-.029.363-.201.427-.038.012-.076.019-.113.019" transform="translate(-406 -1507) translate(406 1507) matrix(-1 0 0 1 175.791 0)"/>
                <path fill="#120610" d="M94.289 77.617c-.084 0-.168-.033-.234-.096-.092-.092-2.323-2.303-5.83-7.936-2.306-3.708-4.708-9.885-4.733-9.946-.066-.172.02-.365.19-.431.171-.067.366.018.432.19.025.061 2.404 6.18 4.678 9.835 3.457 5.553 5.709 7.79 5.73 7.812.132.128.133.34.005.472-.065.066-.152.1-.238.1" transform="translate(-406 -1507) translate(406 1507) matrix(-1 0 0 1 178.092 0)"/>
                <path fill="#120610" d="M84.581 81.527c-.128 0-.252-.074-.306-.202-.072-.168.006-.365.175-.438l5.172-2.215c.17-.072.366.007.439.176.071.17-.006.366-.176.438l-5.172 2.215c-.043.018-.087.026-.132.026" transform="translate(-406 -1507) translate(406 1507) matrix(-1 0 0 1 174.336 0)"/>
                <path fill="#120610" d="M74.585 107.216c-.157 0-.296-.112-.327-.27l-2.014-10.29c-.036-.181.082-.356.263-.392.176-.034.357.083.392.265l1.955 9.989 17.258-1.835 1.418-6.995c.037-.181.21-.297.394-.26.18.037.297.212.26.393l-1.467 7.234c-.029.143-.147.25-.291.265l-17.806 1.894-.035.002" transform="translate(-406 -1507) translate(406 1507) matrix(-1 0 0 1 166.43 0)"/>
                <path fill="#000" d="M72.382 107.059l-6.816 45.04s.005.729 7.966 1.084c7.961.357 8.712-2.254 14.007-2.327 5.295-.071 11.49-.385 11.49-.385s-2.924-15.893-3.857-21.37c-.932-5.476-.59-8.026-2.56-14.177-1.972-6.153-2.236-9.964-2.236-9.964l-17.994 2.099" transform="translate(-406 -1507) translate(406 1507) matrix(-1 0 0 1 164.594 0)"/>
                <path fill="#120610" d="M122.794 70.676c-.544.385-1.237.919-1.849 1.42-.13.105-.317.098-.44-.018-.122-.115-.139-.303-.041-.438 1.012-1.394 2.064-2.955 2.554-3.825-.725.563-1.95 1.675-2.996 2.698-.121.118-.312.126-.443.02-.132-.105-.164-.294-.073-.437.812-1.28 1.65-2.698 2.102-3.58-.697.67-1.778 1.838-2.739 2.942-.106.122-.284.152-.421.07-.138-.083-.199-.25-.145-.402.358-.994.724-2.105.955-2.915-.678 1.107-1.733 3.01-2.674 4.797-.07.132-.217.199-.367.171-.145-.031-.253-.157-.262-.306-.064-1.062-.228-2.29-.4-2.796-.405.845-.899 3.563-1.135 5.232-.007.052-.027.102-.058.145-.266.377-6.543 9.238-9.24 10.638-2.145 1.116-3.696 1.363-4.276 1.418l-2.635 8.62c.99.383 4.682 1.494 8.795-1.167 3.213-2.079 5.778-7.837 7.475-11.648 1.095-2.457 1.644-3.651 2.153-3.928 1.015-.555 4.606-4.67 6.16-6.711zm-21.401 24.695c-2.172 0-3.632-.7-3.736-.752-.148-.073-.22-.24-.172-.397l2.789-9.128c.043-.138.172-.234.316-.236.017 0 1.686-.039 4.224-1.358 2.44-1.266 8.37-9.542 8.957-10.365.14-.98.738-4.9 1.384-5.674.224-.268.468-.227.561-.196.152.05.573.189.812 2.424 1.127-2.107 2.624-4.783 3.064-4.997.122-.06.33-.038.43.053.146.13.356.319-.54 3.015 1.462-1.608 2.372-2.432 2.71-2.455.092-.005.223.037.289.096.183.162.403.358-1.099 2.914 1.772-1.582 2.108-1.546 2.23-1.527.1.013.24.1.292.188.102.17.281.464-1.604 3.223 1.306-.932 1.478-.778 1.635-.637.279.255.026.629-.095.809-1.025 1.52-5.546 6.869-6.886 7.601-.335.183-1.111 1.927-1.862 3.613-1.73 3.884-4.344 9.75-7.723 11.938-2.219 1.436-4.307 1.848-5.976 1.848z" transform="translate(-406 -1507) translate(406 1507)"/>
                <path fill="#120610" d="M92.035 59.095c-.157 0-.298-.113-.327-.274L88.305 40.24c-.432-.914-2.331-4.97-2.285-5.807.017-.316.236-.406.303-.426.18-.056.544-.167 2.221 2 .196-2.127.569-5.535.973-5.978.09-.1.303-.163.432-.119.159.056.42.147.677 2.195.467-2.907.702-2.939.93-2.97.09-.009.22.028.293.093.088.077.261.23.327 2.247.246-.772.433-.793.578-.81.1-.01.335.002.468.343.184.478.172 1.48.157 2.748-.018 1.525-.042 3.425.294 4.815.6 2.488 5.547 15.723 5.598 15.856.064.172-.025.364-.197.43-.17.063-.365-.024-.43-.197-.203-.545-5.01-13.406-5.62-15.933-.355-1.472-.332-3.417-.313-4.98.009-.613.016-1.208-.004-1.675-.176.725-.374 1.807-.516 2.778-.025.172-.184.3-.356.284-.176-.014-.31-.161-.308-.337.017-1.307.004-2.706-.037-3.72-.197 1.053-.425 2.545-.61 3.942-.022.17-.164.312-.342.29-.17-.005-.31-.14-.322-.31-.091-1.363-.248-2.895-.402-3.792-.223 1.182-.496 3.543-.682 5.72-.012.14-.107.257-.241.295-.134.04-.277-.012-.36-.124-.576-.78-1.274-1.64-1.729-2.107.316 1.002 1.229 3.115 2.125 5.001.013.027.022.055.027.084l3.41 18.626c.034.181-.087.355-.268.389-.02.003-.04.005-.06.005" transform="translate(-406 -1507) translate(406 1507) matrix(-1 0 0 1 185.31 0)"/>
                <path fill="#120610" d="M98.21 172.98l-2.208-19.71-12.362-.839 7.72 21.619 6.85-1.07zm-7.072 1.775c-.139 0-.266-.087-.313-.221l-7.985-22.359c-.038-.105-.02-.223.048-.313s.168-.143.289-.132l13.148.892c.161.011.29.135.309.295l2.275 20.306c.018.177-.105.34-.28.367l-7.44 1.16c-.016.004-.034.005-.05.005zM81.75 150.93l-12.011-1.17 1.575 23.017 6.878.828 3.557-22.675zm-3.277 23.379l-.04-.002-7.474-.9c-.16-.02-.282-.15-.293-.309l-1.62-23.686c-.006-.098.03-.194.101-.262.07-.069.165-.1.265-.094l12.754 1.243c.092.01.175.055.232.128.056.073.08.165.065.256l-3.661 23.344c-.027.164-.168.282-.329.282z" transform="translate(-406 -1507) translate(406 1507)"/>
                <path fill="#FFF" d="M75.606 137.272c-.121 0-.24-.067-.298-.184-.082-.166-.016-.366.15-.448 5.302-2.651 9.134-6.608 12.055-12.451.084-.164.284-.232.448-.149.165.082.232.282.15.448-2.95 5.897-6.991 10.067-12.356 12.75-.048.023-.099.034-.15.034" transform="translate(-406 -1507) translate(406 1507) matrix(-1 0 0 1 163.419 0)"/>
                <path fill="#FFF" d="M73.836 145.54c-.15 0-.287-.101-.324-.253-.045-.178.064-.359.243-.404 5.129-1.281 11.684-4.73 13.957-9.275.084-.165.282-.23.447-.15.165.083.232.283.15.449-2.72 5.438-10.327 8.608-14.392 9.624-.028.006-.055.009-.081.009" transform="translate(-406 -1507) translate(406 1507) matrix(-1 0 0 1 161.846 0)"/>
                <path fill="#000" d="M92.004 77.219l1.242-1.931s-2.85-.689-2.344-3.815c.505-3.126 2.16-3.954 2.16-3.954s-.597-.781-.093-2.068c.507-1.287 1.242-2.39 1.242-2.39l-3.264-9.194-9.24 5.516s2.024 5.47 4.138 8.917c2.114 3.449 6.159 8.919 6.159 8.919" transform="translate(-406 -1507) translate(406 1507) matrix(-1 0 0 1 175.919 0)"/>
                <path fill="#FFF" d="M81.934 67.912c-.109 0-.215-.053-.278-.15-.565-.855-.348-2.77.202-3.952.388-.839.917-1.32 1.53-1.394.173-.026.348.108.37.292.022.183-.11.35-.292.37-.492.06-.84.66-1.003 1.013-.556 1.198-.592 2.787-.251 3.304.102.153.06.36-.094.462-.057.037-.121.055-.184.055" transform="translate(-406 -1507) translate(406 1507) matrix(-1 0 0 1 165.085 0)"/>
            </g>
        </g>
    </g>
</svg>
