<svg xmlns="http://www.w3.org/2000/svg" width="143" height="180" viewBox="0 0 143 180">
    <g fill="none" fill-rule="evenodd">
        <g>
            <g>
                <path fill="#120610" d="M17.44 19.519l-1.088 13.363 12.118-5.74-11.03-7.623zm-1.452 14.21c-.064 0-.127-.019-.182-.056-.094-.066-.146-.176-.137-.29l1.177-14.47c.01-.114.08-.214.183-.263.102-.049.225-.039.319.026L29.29 26.93c.094.066.146.176.137.29-.009.114-.078.214-.182.263l-13.12 6.215c-.043.02-.09.03-.137.03zM26.34 164.949l9.855 6.92 1.066-11.995-10.92 5.075zm10.098 7.729c-.058 0-.117-.017-.166-.052l-10.67-7.492c-.084-.059-.13-.159-.121-.26.008-.103.072-.193.165-.236l11.825-5.496c.093-.045.203-.034.287.026.084.058.13.158.12.26l-1.154 12.989c-.009.102-.072.191-.165.235-.038.018-.08.026-.121.026zM22.869 99.365c-.083 0-.165-.031-.228-.094-.125-.127-.124-.33.002-.454l4.349-4.3c.128-.124.329-.122.453.002.124.126.123.329-.002.454l-4.35 4.3c-.062.061-.143.092-.224.092M1.392 120.622c-.083 0-.165-.031-.228-.095-.124-.125-.123-.328.002-.453l17.47-17.281c.127-.123.328-.122.452.002.125.127.124.33-.002.453L1.618 120.53c-.064.062-.145.092-.226.092M13.095 115.863c-.083 0-.165-.032-.228-.095-.124-.126-.123-.329.003-.453l17.468-17.283c.127-.123.329-.121.453.003.125.126.124.329-.003.453L13.32 115.77c-.063.062-.143.093-.225.093M93.252 101.583c-.074 0-.15-.028-.206-.086-.112-.113-.111-.296.003-.41l15.801-15.63c.115-.113.298-.111.41 0 .112.115.112.298-.003.411l-15.8 15.632c-.058.055-.131.083-.205.083M111.917 127.644c-3.326 0-6.033 2.707-6.033 6.034 0 3.326 2.707 6.033 6.033 6.033 3.327 0 6.034-2.707 6.034-6.033 0-3.327-2.707-6.034-6.034-6.034zm0 12.533c-3.583 0-6.498-2.916-6.498-6.5 0-3.583 2.915-6.499 6.498-6.499 3.584 0 6.5 2.916 6.5 6.5 0 3.583-2.916 6.5-6.5 6.5zM137.742 150.773c-.078 0-.156-.03-.215-.09-.117-.117-.115-.307.003-.424l4.086-4.041c.117-.118.307-.115.425.003.117.118.116.308-.003.425l-4.085 4.04c-.059.059-.136.087-.211.087M110.506 171.151c-.077 0-.155-.03-.214-.089-.117-.118-.116-.309.002-.425l15.874-15.704c.118-.118.308-.115.425.002.117.118.116.309-.002.426l-15.873 15.704c-.06.057-.136.086-.212.086M119.524 168.555c-.078 0-.155-.03-.214-.09-.117-.118-.116-.308.002-.425l15.874-15.704c.118-.118.309-.116.425.002.117.118.116.308-.002.426l-15.873 15.703c-.059.059-.136.088-.212.088M27.537 56.96c-3.479 0-6.31 2.832-6.31 6.312 0 3.48 2.831 6.31 6.31 6.31 3.48 0 6.312-2.83 6.312-6.31 0-3.48-2.832-6.311-6.312-6.311zm0 13.278c-3.842 0-6.967-3.125-6.967-6.966 0-3.842 3.125-6.967 6.967-6.967 3.843 0 6.968 3.125 6.968 6.967 0 3.841-3.125 6.966-6.968 6.966zM6.967 138.07c-3.48 0-6.311 2.831-6.311 6.311s2.831 6.31 6.31 6.31c3.48 0 6.312-2.83 6.312-6.31 0-3.48-2.832-6.311-6.311-6.311zm0 13.278c-3.842 0-6.967-3.125-6.967-6.967 0-3.842 3.125-6.967 6.967-6.967 3.841 0 6.967 3.125 6.967 6.967 0 3.842-3.126 6.967-6.967 6.967z" transform="translate(-1345 -1557) translate(1345 1557)"/>
                <path fill="#00AAB1" d="M75.633 51.528l-8.946-11.73c-.417-.545-1.074-.85-1.76-.817l-14.733.72c-1.725.085-2.8-1.846-1.816-3.267l8.39-12.133c.39-.564.477-1.284.234-1.925l-5.239-13.79c-.613-1.615.892-3.232 2.547-2.737l14.132 4.23c.656.197 1.369.058 1.903-.372L81.841.464c1.347-1.083 3.35-.152 3.39 1.575l.344 14.747c.016.686.369 1.32.943 1.696L98.86 26.56c1.445.946 1.179 3.14-.451 3.711l-13.92 4.884c-.647.227-1.141.759-1.321 1.42L79.302 50.81c-.453 1.667-2.621 2.09-3.669.718" transform="translate(-1345 -1557) translate(1345 1557)"/>
                <path fill="#FFF" d="M80.892 55.7c.453-2.02-.99-4.063-3.226-4.564-2.233-.5-4.411.73-4.864 2.75-.453 2.02.991 4.063 3.225 4.563 2.235.502 4.412-.73 4.865-2.749" transform="translate(-1345 -1557) translate(1345 1557)"/>
                <path fill="#120610" d="M76.669 51.297c-1.727 0-3.247 1.062-3.603 2.648-.202.9-.003 1.838.561 2.636.57.807 1.444 1.376 2.46 1.604 2.08.47 4.122-.675 4.54-2.543.203-.903.004-1.839-.56-2.638-.571-.806-1.445-1.376-2.46-1.603-.315-.07-.63-.104-.938-.104zm.355 7.535c-.347 0-.7-.038-1.056-.118-1.147-.257-2.136-.903-2.783-1.82-.653-.926-.884-2.015-.648-3.068.486-2.161 2.814-3.484 5.189-2.954 1.147.256 2.134.903 2.783 1.82.653.925.884 2.015.648 3.067-.413 1.84-2.159 3.073-4.133 3.073z" transform="translate(-1345 -1557) translate(1345 1557)"/>
                <path fill="#FFF" d="M81.598 54.475c.116-.545-.228-1.092-.767-1.221-.54-.128-1.07.21-1.186.755-.116.546.229 1.092.767 1.22.54.13 1.07-.208 1.186-.754" transform="translate(-1345 -1557) translate(1345 1557)"/>
                <path fill="#120610" d="M80.6 53.497c-.132 0-.26.037-.374.11-.162.102-.274.265-.316.458-.086.403.167.806.564.9.188.045.38.013.543-.087.164-.104.276-.267.317-.46.084-.402-.169-.806-.566-.9-.056-.013-.112-.02-.168-.02zm.045 2.03c-.099 0-.197-.011-.296-.034-.68-.162-1.115-.853-.968-1.54.07-.337.268-.623.554-.804.288-.181.629-.235.958-.158.681.162 1.116.851.97 1.54-.07.336-.27.622-.556.804-.201.128-.43.193-.662.193z" transform="translate(-1345 -1557) translate(1345 1557)"/>
                <path fill="#FFF" d="M77.34 58.65c-.686.067-2.183-.274-2.183-.274-.032.244-.137 2.696-.137 2.696s1.263.922 2.73.581c2.03-.472 1.605-1.024 1.605-1.024l-.205-2.458s-.785.376-1.81.478" transform="translate(-1345 -1557) translate(1345 1557)"/>
                <path fill="#120610" d="M75.298 60.93c.33.2 1.308.71 2.391.46 1.343-.313 1.432-.63 1.432-.633-.031-.042-.031-.054-.036-.106l-.174-2.089c-.34.124-.893.292-1.542.357h-.002c-.53.049-1.475-.115-1.962-.214-.03.494-.075 1.476-.107 2.225zm1.78 1.07c-1.23 0-2.171-.674-2.218-.708-.073-.054-.114-.14-.11-.23.01-.253.106-2.473.138-2.72.01-.077.051-.145.114-.188.063-.043.14-.058.215-.042.406.093 1.574.323 2.097.268.961-.097 1.712-.45 1.72-.453.079-.041.173-.037.25.01.078.044.128.123.136.212l.2 2.402c.044.101.064.242.01.395-.145.402-.739.72-1.818.97-.253.06-.499.084-.733.084z" transform="translate(-1345 -1557) translate(1345 1557)"/>
                <path fill="#000" d="M78.433 138.503L78.286 143.164 64.264 143.418 71.488 137.459 78.433 138.503M61.073 121.54L62.069 126.097 48.538 129.774 54.083 122.228 61.073 121.54M79.516 54.434c.465.2-.405-.258-.665-.328-.87-.232-1.825-.432-2.718-.594-2.113-.385-7.362-2.126-4.588-5.41 1.5-1.775 2.34.765 3.753.504.925-.17 1.322-1.309 2.15-1.427 2.308-.33 2.234 1.722 3.857 2.498.803.386 2.022.054 2.198 1.282.177 1.237-1.106 4.497-2.194 5.064-.585.306.468-1.894-.042-2.387-.935-.903-1.998.69-1.75.798" transform="translate(-1345 -1557) translate(1345 1557)"/>
                <path fill="#120610" d="M43.306 106.473c-.294 0-.535-.235-.542-.53-.006-.298.23-.547.53-.554l28.921-.634c.33.023.548.23.554.53.006.298-.231.547-.53.554l-28.921.634h-.012" transform="translate(-1345 -1557) translate(1345 1557)"/>
                <path fill="#120610" d="M89.523 179.987c-.23 0-.445-.149-.518-.38L61.169 90.864c-.09-.286.07-.59.355-.68.288-.087.59.07.68.356l27.837 88.743c.089.285-.07.59-.356.679-.054.017-.108.025-.162.025" transform="translate(-1345 -1557) translate(1345 1557)"/>
                <path fill="#120610" d="M47.423 125.654c-.295 0-.536-.235-.543-.53-.005-.299.231-.547.532-.554l29.677-.653c.307.04.547.23.554.53.006.299-.231.548-.53.554l-29.679.653h-.011M51.41 145.038c-.294 0-.535-.235-.542-.53-.006-.3.232-.548.531-.554l27.022-.595c.318.002.548.23.554.53.007.299-.23.548-.53.554l-27.023.595h-.012M54.401 165.31c-.294 0-.536-.236-.542-.532-.007-.298.23-.547.53-.553l29.678-.653c.344.014.547.23.554.53.006.299-.231.547-.53.554l-29.678.653h-.012" transform="translate(-1345 -1557) translate(1345 1557)"/>
                <path fill="#FFF" d="M52.907 123.013l9.61-1.91-1.795-20.32 5.376-3.79.112-6.002s-.154 19.17.417 22.553c.573 3.382 3.531 24.082 3.531 24.082l10.376-.534s-3.81-22.066-3.56-24.337c.248-2.273 1.719-19.786 1.719-19.786l-17.29-7.622S49.96 95.841 49.136 98.355c-.825 2.512 3.77 24.658 3.77 24.658" transform="translate(-1345 -1557) translate(1345 1557)"/>
                <path fill="#120610" d="M66.21 90.72h.003c.15.003.27.124.267.273 0 .192-.146 19.185.413 22.506.534 3.147 3.164 21.499 3.499 23.843l9.824-.505c-.476-2.763-3.75-21.947-3.512-24.113.231-2.114 1.54-17.667 1.703-19.584l-16.952-7.473C57.48 89.32 50.021 96.526 49.393 98.44c-.627 1.912 2.13 16.546 3.724 24.256l9.108-1.81-1.773-20.077c-.009-.096.035-.19.114-.245l5.263-3.712.11-5.864c.003-.148.123-.267.27-.267zm3.95 47.177c-.135 0-.25-.098-.269-.233-.03-.206-2.965-20.735-3.531-24.075-.359-2.122-.435-10.234-.44-16.139l-4.914 3.465 1.78 20.163c.013.139-.081.264-.217.29l-9.61 1.911c-.15.026-.287-.066-.318-.211-.187-.907-4.6-22.247-3.763-24.797.837-2.553 11.872-12.693 12.342-13.124.08-.072.195-.09.291-.047l17.29 7.621c.106.047.17.156.161.27-.014.176-1.473 17.543-1.72 19.792-.242 2.21 3.521 24.043 3.56 24.262.013.078-.007.156-.056.217-.048.06-.12.097-.197.101l-10.376.534h-.014z" transform="translate(-1345 -1557) translate(1345 1557)"/>
                <path fill="#000" d="M64.264 54.793l-4.537 7.099 4.552 5.087-3.391 18.925s1.517.089 6.873 3.035 8.837 4.82 10.623 4.195c1.785-.626 4.909-20.62 4.909-20.62l11.516-8.48-5.803-6.25s-3.481 1.429-5.534 2.054c-2.053.625-2.41.178-6.338.447-3.928.267-12.87-5.492-12.87-5.492" transform="translate(-1345 -1557) translate(1345 1557)"/>
                <path fill="#FFF" d="M61.726 62.176s-4.643-1.325-7.916-6.648c-1.765-2.87-.908-11.621-.908-11.621l-1.35-4.397 3.464.092s.071-3.697.373-3.697c.236 0 1.02 3.688 1.02 3.688s1.53 9.425 3.318 12.005c1.242 1.792 6.19 4.671 6.19 4.671l-4.191 5.907" transform="translate(-1345 -1557) translate(1345 1557)"/>
                <path fill="#120610" d="M51.942 39.807l1.233 4.016c.012.036.015.074.012.112-.009.086-.828 8.688.866 11.443 2.808 4.566 6.669 6.145 7.562 6.46l3.888-5.481c-1.064-.637-4.903-2.996-6.01-4.596-1.795-2.59-3.287-11.638-3.365-12.115-.217-1.023-.479-2.125-.677-2.828-.074.71-.13 1.808-.149 2.79 0 .075-.033.148-.088.2-.055.053-.127.082-.205.08l-3.067-.081zm9.784 22.655c-.026 0-.053-.004-.079-.011-.193-.056-4.787-1.417-8.081-6.773-1.74-2.827-1.033-10.911-.954-11.742l-1.333-4.342c-.027-.088-.01-.183.046-.257.056-.073.136-.115.235-.113l3.176.084c.085-3.689.374-3.689.653-3.689.252 0 .468 0 1.3 3.914 0 .005.002.01.003.014.015.094 1.54 9.39 3.27 11.888 1.192 1.72 6.05 4.559 6.099 4.587.068.04.118.108.135.186.017.08 0 .16-.046.227l-4.19 5.906c-.056.077-.143.12-.234.12zM57.761 179.987c-.253 0-.48-.18-.53-.438L39.633 90.06c-.058-.294.133-.579.426-.636.298-.063.578.133.636.427l17.599 89.488c.058.295-.134.58-.427.637-.036.007-.071.01-.106.01" transform="translate(-1345 -1557) translate(1345 1557)"/>
                <path fill="#FFF" d="M66.593 78.46c-.143 0-.263-.111-.271-.255-.009-.15.106-.277.255-.287.087-.004 8.717-.57 11.625-5.397.077-.128.242-.17.371-.092.128.078.17.244.092.372-3.055 5.073-11.69 5.637-12.057 5.659h-.015M88.572 58.561s5.38-4.501 5.783-8.267c.403-3.765.387-16.404.387-16.404s-2.37-5.011-2.001-5.245c.749-.472 2.427 2.577 2.427 2.577l3.826-1.098v3.293s1.794 14.188 1.872 17.012c.078 2.824-4.023 12.036-8.192 13.784-.134.067-4.102-5.652-4.102-5.652" transform="translate(-1345 -1557) translate(1345 1557)"/>
                <path fill="#120610" d="M88.954 58.61c1.306 1.88 3.27 4.657 3.778 5.264 1.719-.811 3.668-3.085 5.378-6.285 1.47-2.75 2.508-5.757 2.47-7.152-.077-2.778-1.851-16.842-1.87-16.984l-.002-.036v-2.913l-3.46.992c-.129.037-.265-.02-.33-.136-.508-.923-1.421-2.263-1.918-2.458.124.664 1.067 2.892 2 4.866.017.038.028.08.028.121 0 .127.011 12.698-.389 16.436-.37 3.463-4.685 7.413-5.685 8.285zm3.622 5.344l-.025.011.021-.009.004-.002zm.085.554c-.187 0-.372-.247-.914-.98-.347-.467-.82-1.123-1.408-1.95-.997-1.407-1.991-2.84-2.002-2.854-.084-.121-.062-.287.052-.382.053-.045 5.295-4.472 5.682-8.078.382-3.57.385-15.333.385-16.31-.124-.263-.64-1.37-1.116-2.487-.32-.75-.56-1.36-.713-1.812-.236-.697-.307-1.082-.038-1.252.147-.093.323-.117.508-.07.795.205 1.827 1.885 2.21 2.552l3.608-1.035c.087-.025.18-.008.251.046.072.054.114.139.114.228V33.4c.1.797 1.795 14.24 1.872 17.022.042 1.507-1.002 4.566-2.537 7.438-1.073 2.007-3.255 5.532-5.823 6.615-.046.022-.089.034-.131.034z" transform="translate(-1345 -1557) translate(1345 1557)"/>
            </g>
        </g>
    </g>
</svg>
