<svg xmlns="http://www.w3.org/2000/svg" width="40" height="40" viewBox="0 0 40 40">
    <g fill="none" fill-rule="evenodd">
        <g>
            <g>
                <g transform="translate(-605 -8501) translate(0 8173) translate(605 328)">
                    <circle cx="20" cy="20" r="20" fill="#00AAB1"/>
                    <path fill="#FFF" fill-rule="nonzero" d="M25.783 19.454l-6.06-6.23c-.14-.145-.327-.224-.527-.224s-.386.08-.527.224l-.446.458c-.29.3-.29.785 0 1.083l5.089 5.232-5.094 5.238c-.14.144-.218.336-.218.541 0 .205.077.397.218.542l.446.458c.14.145.327.224.527.224s.386-.08.526-.224l6.066-6.235c.14-.145.217-.338.217-.544 0-.206-.077-.399-.217-.543z"/>
                </g>
            </g>
        </g>
    </g>
</svg>
