<svg xmlns="http://www.w3.org/2000/svg" width="24" height="20" viewBox="0 0 24 20">
    <g fill="none" fill-rule="evenodd">
        <g fill="#FFF" fill-rule="nonzero">
            <g>
                <g>
                    <g>
                        <path d="M13.1 19.615l-.787-.788c-.247-.247-.384-.578-.384-.93 0-.352.137-.713.384-.96l5.052-5.094H1.313C.59 11.843 0 11.313 0 10.588V9.473c0-.725.59-1.389 1.313-1.389h16.11L12.313 3c-.247-.248-.384-.56-.384-.912s.137-.673.384-.92l.786-.785c.512-.512 1.345-.51 1.857.003l8.66 8.681c.247.248.384.58.384.934v.004c0 .352-.137.683-.383.93l-8.661 8.68c-.512.513-1.345.513-1.857 0z" transform="translate(-398 -574) translate(370 544) translate(28 30)"/>
                    </g>
                </g>
            </g>
        </g>
    </g>
</svg>
