<svg xmlns="http://www.w3.org/2000/svg" width="192" height="136" viewBox="0 0 192 136">
    <g fill="none" fill-rule="evenodd">
        <g>
            <g>
                <g transform="translate(-689 -1291) translate(635 1251) translate(54 40)">
                    <circle cx="66" cy="80" r="50" fill="#FFEFED"/>
                    <g fill="#000">
                        <path d="M.65 53.155c-.167 0-.335-.064-.462-.191-.253-.255-.25-.667.005-.92L35.638 16.98c.256-.25.667-.248.918.004.254.256.251.667-.004.92L1.107 52.968c-.127.125-.292.187-.457.187M24.396 43.498c-.167 0-.334-.063-.461-.191-.253-.257-.25-.669.004-.92L59.384 7.32c.256-.25.667-.249.919.005.253.257.25.669-.004.92L24.854 43.312c-.127.125-.293.187-.458.187M44.228 10.022c-.168 0-.335-.064-.463-.191-.252-.256-.25-.667.006-.92L52.596.187c.254-.252.665-.249.918.005.253.255.25.667-.005.92l-8.825 8.723c-.126.125-.292.187-.456.187" transform="translate(0 82)"/>
                    </g>
                    <circle cx="132" cy="60" r="60" fill="#00AAB1"/>
                </g>
            </g>
        </g>
    </g>
</svg>
