<svg xmlns="http://www.w3.org/2000/svg" width="350" height="314" viewBox="0 0 350 314">
    <g fill="none" fill-rule="evenodd">
        <g>
            <g>
                <g>
                    <path fill="#FF6452" d="M99.432 45.414c-.126.116-.314.146-.472.073-.11-.04-.194-.11-.25-.213-.025-.044-.045-.105-.059-.157l-4.903-32.653c-.025-.177.042-.346.175-.45.133-.103.321-.134.473-.072l30.736 12.066c.158.074.28.212.304.389.019.165-.048.334-.175.449L99.432 45.414M0 228.98c0-4.88 3.956-8.837 8.836-8.837 4.88 0 8.837 3.957 8.837 8.837s-3.956 8.836-8.837 8.836c-4.88 0-8.836-3.956-8.836-8.836" transform="translate(-420 -2339) translate(370 2249) translate(50 90)"/>
                    <path fill="#120610" d="M273.867 88.557h4.1l-.694-6.42 12.6-1.339s-2.78-11.546-7.923-15.704c-4.677-3.78-8.403-7.066-17.327-7.225-8.923-.164-15.513-.164-20.82 4.508-5.304 4.673-7.716 14.338-7.716 14.338l11.735 3.785v-3.222l25.967 1.289.078 9.99" transform="translate(-420 -2339) translate(370 2249) translate(50 90)"/>
                    <path fill="#FFF" d="M269.32 53.98c0-3.608-3.011-6.532-6.724-6.532s-6.723 2.924-6.723 6.532c0 3.606 3.01 6.53 6.723 6.53s6.723-2.924 6.723-6.53" transform="translate(-420 -2339) translate(370 2249) translate(50 90)"/>
                    <path fill="#120610" d="M262.692 47.708c-3.512 0-6.372 2.813-6.372 6.272 0 3.457 2.86 6.272 6.372 6.272 3.513 0 6.37-2.815 6.37-6.272 0-3.46-2.857-6.272-6.37-6.272zm0 13.187c-3.866 0-7.011-3.103-7.011-6.915 0-3.814 3.145-6.916 7.011-6.916s7.012 3.102 7.012 6.916c0 3.812-3.146 6.915-7.012 6.915z" transform="translate(-420 -2339) translate(370 2249) translate(50 90)"/>
                    <path fill="#FFF" d="M270.856 54.46c0-.796-.652-1.316-1.435-1.441-.055-.008-.198 2.693 0 2.881.792 0 1.435-.643 1.435-1.44" transform="translate(-420 -2339) translate(370 2249) translate(50 90)"/>
                    <path fill="#120610" d="M269.64 53.524c-.045.545-.082 1.65-.032 2.111.559-.1.98-.547.98-1.08 0-.556-.46-.886-.948-1.031zm-.272 2.76c-.08 0-.158-.028-.216-.079-.426-.37-.094-3.168-.084-3.19.06-.125.205-.205.345-.186 1.093.159 1.827.853 1.827 1.727 0 .953-.839 1.728-1.872 1.728z" transform="translate(-420 -2339) translate(370 2249) translate(50 90)"/>
                    <path fill="#FFF" d="M270.856 54.46c0-.796-.652-1.316-1.435-1.441-.055-.008-.198 2.693 0 2.881.792 0 1.435-.643 1.435-1.44" transform="translate(-420 -2339) translate(370 2249) translate(50 90)"/>
                    <path fill="#120610" d="M269.64 53.524c-.045.545-.082 1.65-.032 2.111.559-.1.98-.547.98-1.08 0-.556-.46-.886-.948-1.031zm-.272 2.76c-.08 0-.158-.028-.216-.079-.426-.37-.094-3.168-.084-3.19.06-.125.205-.205.345-.186 1.093.159 1.827.853 1.827 1.727 0 .953-.839 1.728-1.872 1.728zM254.598 53.574c-.01.556.443.894.927 1.048.056-.544.112-1.65.07-2.111-.558.092-.987.53-.997 1.063zm1.187 1.75c-.016 0-.033-.002-.05-.006-1.082-.175-1.799-.882-1.783-1.755.017-.943.848-1.697 1.858-1.697.093.002.184.025.25.085.389.354.094 3.054.024 3.194-.057.107-.175.179-.3.179zM250.966 109.867c-.792-.368-28.937-9.773-22.593-19.648 6.819-10.614 44.212 12.203 44.212 12.203s-20.827 7.81-21.619 7.445" transform="translate(-420 -2339) translate(370 2249) translate(50 90)"/>
                    <path fill="#120610" d="M255.986 52.433c1.005-2.894 5.252-.312 7.939-.271 1.625.024 2.085-1.45 3.5-2.011.928-.365 1.914-.063 2.851-.205 2.312-.354 4.53-2.577 5.319-4.735.686-1.876.023-5.693-2.37-6.177-1.993-.403-2.614 2.493-4.63 2.512-1.735.015-2.37-2.131-4.02-2.326-3.143-.373-4.293 1.974-6.525 3.376-.736.463-1.687.381-2.387.913-1.902 1.44-2.933 4.869-2.287 7.107.05.176.966 1.999 1.133 1.938.466-.165 1.316.344 1.477-.12" transform="translate(-420 -2339) translate(370 2249) translate(50 90)"/>
                    <path fill="#FFF" d="M266.246 60.03l-.505 1.589s-1.313 1.427-3.45 1.388c-2.139-.037-2.888-1.388-2.888-1.388l-.457-1.877s2.167 1.062 3.801.946c1.63-.114 3.499-.658 3.499-.658" transform="translate(-420 -2339) translate(370 2249) translate(50 90)"/>
                    <path fill="#120610" d="M259.826 61.395c.123.19.83 1.14 2.569 1.17 1.78.026 2.893-.984 3.133-1.216l.3-.937c-.682.169-1.867.43-2.965.508-1.163.073-2.547-.387-3.325-.7l.288 1.175zm2.65 1.805h-.093c-2.278-.04-3.102-1.47-3.136-1.53-.014-.025-.025-.051-.031-.078l-.453-1.844c-.029-.12.015-.245.111-.321.098-.076.232-.091.342-.036.021.007 2.079 1 3.603.897 1.565-.11 3.383-.63 3.402-.635.113-.03.236 0 .319.083.082.084.111.205.075.317l-.5 1.56c-.015.044-.038.084-.07.118-.056.06-1.387 1.469-3.57 1.469z" transform="translate(-420 -2339) translate(370 2249) translate(50 90)"/>
                    <path fill="#FFF" d="M288.135 81.065l.202 11.187s-3.387-.1-6.925.403c-3.54.504-8.443 1.664-8.443 1.664l.555-6.098h4.399l-.253-6.25 10.465-.906" transform="translate(-420 -2339) translate(370 2249) translate(50 90)"/>
                    <path fill="#120610" d="M273.942 88.634l-.486 5.34c1.277-.292 5.113-1.149 8.002-1.558 2.87-.411 5.668-.425 6.616-.411l-.188-10.467-9.775.847.24 5.916c.003.088-.03.173-.09.236-.06.06-.145.097-.23.097h-4.09zm-.845 6.07c-.075 0-.15-.027-.209-.077-.079-.067-.119-.168-.11-.27l.553-6.07c.016-.165.154-.292.319-.292h4.048l-.238-5.887c-.008-.172.12-.318.292-.331l10.42-.903c.08-.008.175.02.242.08.065.06.104.144.106.232l.201 11.136c0 .088-.034.172-.096.234-.061.06-.148.095-.234.091-.035-.003-3.388-.093-6.843.4-3.468.492-8.328 1.637-8.376 1.649-.025.006-.05.008-.075.008z" transform="translate(-420 -2339) translate(370 2249) translate(50 90)"/>
                    <path fill="#FFF" d="M247.997 80.275L237.91 77.03l-1.824 10.646s.607-.607 3.901.609c3.295 1.218 7.046 2.384 7.046 2.384l.963-10.395" transform="translate(-420 -2339) translate(370 2249) translate(50 90)"/>
                    <path fill="#120610" d="M236.922 87.283c.627 0 1.646.173 3.283.779 2.631.972 5.586 1.92 6.616 2.247l.895-9.693-9.433-3.038-1.664 9.72c.088-.01.19-.015.303-.015zm10.181 3.77c-.032 0-.063-.003-.096-.013-.036-.011-3.775-1.175-7.023-2.378-2.889-1.066-3.561-.66-3.57-.656-.097.098-.234.112-.358.046-.125-.063-.18-.213-.156-.35l1.814-10.596c.016-.092.07-.173.15-.22.077-.049.175-.06.263-.032l10.032 3.23c.142.045.234.185.22.334l-.957 10.345c-.01.096-.061.183-.142.237-.054.036-.115.054-.177.054z" transform="translate(-420 -2339) translate(370 2249) translate(50 90)"/>
                    <path fill="#FFF" d="M274.122 78.877L273.011 94.727 270.081 95.28 246.844 94.278 247.855 77.223 274.122 78.877" transform="translate(-420 -2339) translate(370 2249) translate(50 90)"/>
                    <path fill="#120610" d="M247.312 94.03l22.856.997 2.608-.503 1.068-15.396-25.564-1.626-.968 16.529zm22.903 1.634l-23.257-1.005c-.084-.004-.165-.043-.223-.106-.057-.064-.088-.149-.082-.233l1.007-17.178c.005-.085.044-.165.107-.221.066-.058.16-.089.233-.081l26.206 1.668c.084.006.165.044.22.11.056.063.085.148.08.233l-1.107 15.964c-.012.144-.118.265-.262.292l-2.922.557z" transform="translate(-420 -2339) translate(370 2249) translate(50 90)"/>
                    <path fill="#FFF" d="M253.482 102.58l2.006 9.978s-12.999 1.597-15.486-.478c-2.489-2.076-3.531-6.148-3.531-6.148l17.011-3.352" transform="translate(-420 -2339) translate(370 2249) translate(50 90)"/>
                    <path fill="#120610" d="M236.814 106.157c.305 1.004 1.363 4.058 3.356 5.728 1.905 1.6 11.155.903 14.998.454l-1.89-9.444-16.464 3.262zm9.67 7.372c-2.92 0-5.672-.266-6.727-1.152-2.555-2.141-3.616-6.214-3.66-6.388-.022-.084-.008-.175.04-.25.046-.074.123-.126.208-.143l17.124-3.394c.17-.036.343.077.378.253l2.02 10.1c.017.087-.002.177-.055.25-.052.072-.133.12-.221.13-.32.04-4.89.594-9.107.594z" transform="translate(-420 -2339) translate(370 2249) translate(50 90)"/>
                    <path fill="#FFF" d="M280.382 110.456l5.65 4.584s-8.153.159-11.62-.315c-3.471-.474-6.053-2.212-6.053-2.212l12.023-2.057" transform="translate(-420 -2339) translate(370 2249) translate(50 90)"/>
                    <path fill="#120610" d="M269.196 112.674c.985.548 2.89 1.46 5.174 1.782 2.73.384 8.478.359 10.661.333l-4.846-4.05-10.989 1.935zm13.581 2.776c-2.672 0-6.4-.06-8.495-.354-3.493-.493-6.061-2.252-6.169-2.325-.107-.076-.16-.208-.13-.335.026-.128.128-.227.257-.25l11.98-2.11c.092-.016.188.01.26.07l5.628 4.705c.102.086.142.229.098.355-.044.128-.161.215-.295.217-.131.002-1.414.027-3.134.027z" transform="translate(-420 -2339) translate(370 2249) translate(50 90)"/>
                    <path fill="#120610" d="M255.911 113.53l-2.92-13.75s40.765-14.577 43.378-3.285c3.772 16.305-40.458 17.034-40.458 17.034M283.983 90.477c-.04 0-.082-.01-.122-.025-.014-.006-1.454-.628-2.813-.997-1.363-.369-2.987-.62-3.003-.624-.174-.026-.295-.193-.27-.376.027-.18.192-.305.364-.28.067.01 1.672.26 3.07.638 1.403.381 2.838.999 2.897 1.025.163.072.24.265.173.434-.05.128-.171.205-.296.205M247.671 85.483c-.045 0-.09-.01-.132-.03-.02-.007-2-.874-5.303-.224-.175.039-.347-.08-.38-.257-.035-.178.08-.348.255-.383 3.523-.697 5.607.23 5.695.272.164.074.236.266.162.43-.055.12-.174.192-.297.192" transform="translate(-420 -2339) translate(370 2249) translate(50 90)"/>
                    <path fill="#FF6452" d="M173.657 213.634c0 21.503-17.449 38.95-38.997 38.95v61.302h200.549v-61.302c-21.504 0-38.951-17.447-38.951-38.95 0-21.549 17.447-38.997 38.95-38.997v-61.3H134.66v61.3c21.548 0 38.997 17.448 38.997 38.997" transform="translate(-420 -2339) translate(370 2249) translate(50 90)"/>
                    <path fill="#FFF" d="M39.37 182.035s-6.326 1.346-8.21 5.253c-1.885 3.907 8.345 35.16 8.345 35.16l27.729-.403s-.56-18.657-2.827-26.674c-3.747-13.253-14.35-20.179-14.35-20.179l-10.686 6.843" transform="translate(-420 -2339) translate(370 2249) translate(50 90)"/>
                    <path fill="#120610" d="M50.047 175.512l-10.55 6.748c-.032.02-.068.035-.105.043-.062.013-6.22 1.366-8.022 5.093-1.493 3.092 5.43 25.94 8.321 34.791l27.275-.396c-.09-2.526-.74-19.014-2.815-26.343-3.426-12.099-12.73-18.974-14.104-19.936zm-10.587 47.32c-.139 0-.262-.088-.305-.221-.42-1.286-10.288-31.506-8.363-35.492 1.864-3.856 7.718-5.274 8.408-5.43l10.68-6.83c.107-.068.243-.068.348.001.108.071 10.789 7.164 14.54 20.413 2.26 7.985 2.844 26.637 2.85 26.824.002.087-.03.17-.09.23-.059.064-.14.1-.227.101l-27.837.404h-.004zM37.077 175.08c2.175 2.244 5.97 2.093 8.46-.333 2.487-2.427 2.74-6.224.563-8.467-1.049-1.082-2.503-1.666-4.096-1.587-1.603.059-3.153.74-4.363 1.922-2.487 2.425-2.74 6.224-.564 8.467v-.002zm3.874 2.225c-1.614 0-3.175-.59-4.33-1.779-2.42-2.495-2.162-6.699.576-9.368 1.323-1.291 3.022-2.038 4.784-2.103 1.766-.063 3.399.567 4.576 1.78 2.42 2.494 2.162 6.698-.577 9.37-1.432 1.395-3.262 2.1-5.03 2.1z" transform="translate(-420 -2339) translate(370 2249) translate(50 90)"/>
                    <path fill="#FFF" d="M34.852 174.312c-.632-.646-.62-1.682.024-2.309.643-.629 1.677-.611 2.31.035.63.648.619 1.681-.025 2.308-.645.629-1.679.614-2.309-.034" transform="translate(-420 -2339) translate(370 2249) translate(50 90)"/>
                    <path fill="#120610" d="M36.106 171.979c-.332 0-.646.128-.885.362-.508.498-.516 1.32-.017 1.834.239.245.56.385.9.389.33-.002.661-.125.904-.36.507-.499.515-1.32.017-1.835-.24-.247-.562-.387-.904-.39h-.015zm.016 3.213h-.026c-.517-.006-1-.215-1.358-.585-.738-.758-.724-1.974.029-2.711.365-.357.885-.544 1.361-.546.518.006 1.002.213 1.364.585.736.76.722 1.976-.03 2.712-.36.353-.836.545-1.34.545z" transform="translate(-420 -2339) translate(370 2249) translate(50 90)"/>
                    <path fill="#FFF" d="M42.376 176.771c1.065-.319 2.87-1.003 2.87-1.003.25.31 2.196 4.142 2.196 4.142s.28 2.295-2.972 3.13c-3.25.835-4.581-.974-4.581-.974l-1.47-5.254s2.892.278 3.957-.04" transform="translate(-420 -2339) translate(370 2249) translate(50 90)"/>
                    <path fill="#120610" d="M40.104 181.99c.215.252 1.45 1.509 4.182.805 2.668-.682 2.73-2.397 2.717-2.707-.642-1.26-1.635-3.175-1.997-3.802-.53.196-1.793.66-2.629.91-.85.255-2.72.154-3.59.09l1.317 4.705zm2.63 1.654c-2.177 0-3.129-1.249-3.177-1.314-.023-.03-.04-.065-.05-.104l-1.46-5.21c-.029-.101-.005-.21.063-.29.067-.081.172-.127.275-.114.782.077 2.992.217 3.81-.029 1.034-.31 2.81-.979 2.828-.985.13-.051.276-.01.362.096.255.318 1.891 3.522 2.216 4.162.017.033.028.07.033.107.003.025.273 2.564-3.19 3.451-.638.163-1.207.23-1.71.23z" transform="translate(-420 -2339) translate(370 2249) translate(50 90)"/>
                    <path fill="#000" d="M59.742 304.58L60.578 311.944 81.833 311.965 70.117 302.744 59.742 304.58M34.769 304.197L35.607 311.56 56.861 311.581 45.145 302.36 34.769 304.197" transform="translate(-420 -2339) translate(370 2249) translate(50 90)"/>
                    <path fill="#000" d="M59.742 304.58L60.578 311.944 81.833 311.965 70.117 302.744 59.742 304.58M34.769 304.197L35.607 311.56 56.861 311.581 45.145 302.36 34.769 304.197M37.717 172.473c-.464.665.336-.693.633-1.004.99-1.049 2.123-2.121 3.205-3.094 2.554-2.294 8.243-9.074 1.716-11.228-3.525-1.165-2.544 3.006-4.686 3.835-1.401.542-2.895-.678-4.121-.144-3.419 1.486-1.6 4.224-3.16 6.647-.77 1.197-2.709 1.767-1.92 3.59.795 1.835 5.269 5.212 7.225 5.073 1.05-.074-2.224-2.194-1.941-3.295.516-2.017 3.298-.735 3.05-.38" transform="translate(-420 -2339) translate(370 2249) translate(50 90)"/>
                    <path fill="#000" d="M38.869 170.582c.058-.03.211 1.427.413 1.762.677 1.134 1.378 1.517 2.604 1.825 1.31.328 4.268-2.719 5.829-3.11 1.16-.291 5.117 3.624 4.463 4.935-3.019 6.059-15.046 6.392-16.824-.747-.163-.653 2.048-.088 2.315-1.161.58-2.328-1.332-2.205 1.2-3.504M73.573 192.669l-7.598-4.37s-9.05 13.666-14.076 12.993c-5.658-.756-7.138-22.158-18.21-17.583-12.738 5.264 5.697 35.503 18.21 35.28 12.513-.225 21.674-26.32 21.674-26.32" transform="translate(-420 -2339) translate(370 2249) translate(50 90)"/>
                    <path fill="#000" d="M57.35 181.723l6.966-28.404 1.573-33.324-8.201-.895-4.942 28.068-6.067 19.347c1.3 3.413 1.193 4.964 1.193 4.964l.752 2.939 8.727 7.305" transform="translate(-420 -2339) translate(370 2249) translate(50 90)"/>
                    <path fill="#FFF" d="M58.95 119.698s-2.543-7.394-2.472-9.01c.07-1.613 2.878 3.548 2.878 3.548s-1.028-9.318-.069-9.496c.958-.175 1.73 6.983 1.73 6.983s.372-8.538 1.472-8.171c1.1.366.392 8.158.392 8.158s1.54-6.948 2.468-6.715c.928.236-.838 7.28-.838 7.28s1.895-4.724 2.718-4.396c.823.328-1.203 6.72-1.203 6.72l-.953 5.27-6.124-.17" transform="translate(-420 -2339) translate(370 2249) translate(50 90)"/>
                    <path fill="#120610" d="M59.104 119.447l5.612.156.901-4.977c.832-2.632 1.56-5.674 1.372-6.307-.426.24-1.435 2.08-2.274 4.171-.062.156-.235.235-.394.185-.159-.052-.25-.22-.209-.383.708-2.827 1.284-6.11 1.053-6.806-.51.505-1.445 3.617-2.06 6.39-.036.165-.2.27-.36.245-.165-.025-.282-.177-.267-.346.347-3.817.28-7.287-.14-7.758-.483.529-.935 4.4-1.085 7.816-.006.167-.14.302-.307.308-.176-.016-.308-.122-.326-.287-.304-2.82-.886-6.005-1.338-6.603-.33.846-.107 5.215.315 9.035.017.152-.076.294-.22.342-.145.044-.3-.017-.375-.152-.78-1.434-1.781-3.03-2.272-3.531.06 1.442 1.656 6.397 2.374 8.502zm5.875.805h-.008l-6.105-.17c-.132-.004-.248-.089-.291-.216-.105-.302-2.553-7.439-2.481-9.09.019-.43.217-.567.38-.606.196-.044.666-.163 2.332 2.663-.527-5.358-.41-8.143.349-8.283.102-.02.26-.016.427.11.528.397.951 2.227 1.245 3.986.202-2.24.566-4.758 1.195-5.196.147-.102.316-.129.481-.075.777.26.909 2.609.83 5.034.465-1.595 1.047-3.198 1.572-3.525.174-.108.328-.102.428-.077.097.025.234.092.338.267.35.592.069 2.615-.283 4.418.647-1.186 1.315-2.015 1.858-1.8.728.29.387 2.676-1.013 7.09l-.94 5.207c-.029.152-.16.263-.314.263z" transform="translate(-420 -2339) translate(370 2249) translate(50 90)"/>
                    <path fill="#FFF" d="M92.975 177.63l-2.686-.248s-4.898 9.324-13.629 8.371c-8.46-.922-10.506-10.131-10.506-10.131l-2.762-.238s3.06 12.294 12.714 13.015c11.842.884 16.869-10.77 16.869-10.77" transform="translate(-420 -2339) translate(370 2249) translate(50 90)"/>
                    <path fill="#120610" d="M63.89 175.965c.776 2.471 4.15 11.505 12.15 12.101 9.895.755 14.97-7.662 16.168-9.965l-1.744-.161c-.909 1.551-5.853 9.258-13.952 8.379-7.773-.851-10.356-8.514-10.832-10.2l-1.79-.154zm13.375 13.058c-.422 0-.852-.015-1.293-.048-9.884-.74-13.112-13.284-13.143-13.41-.035-.143 0-.293.095-.405.094-.115.238-.165.384-.16l2.767.24c.198.016.361.16.404.353.02.089 2.087 8.941 10.132 9.82 8.335.92 13.154-8.072 13.202-8.164.085-.164.255-.256.442-.24l2.692.247c.145.012.274.095.348.222.075.125.084.277.027.412-.05.115-4.928 11.133-16.057 11.133z" transform="translate(-420 -2339) translate(370 2249) translate(50 90)"/>
                    <path fill="#FFF" d="M73.166 192.865s6.134-4.827 5.77-6.988c-.362-2.16-6.538-6.54-8.517-6.034-1.978.507-2.052 2.853-2.052 2.853l-2.867-2.892c-.264-.03-.763 2.275-.763 4.063 0 2.277 1.055 4.816 1.055 4.816l7.374 4.182" transform="translate(-420 -2339) translate(370 2249) translate(50 90)"/>
                    <path fill="#120610" d="M66.17 188.545l7.057 4.002c1.758-1.409 5.721-4.96 5.459-6.519-.165-.982-1.948-2.798-4.147-4.224-1.7-1.104-3.246-1.709-3.937-1.525-1.717.44-1.802 2.52-1.803 2.541-.004.129-.084.242-.203.287-.118.048-.254.022-.345-.07l-2.568-2.594c-.204.619-.498 2.129-.498 3.531 0 1.93.797 4.087.986 4.57zm7.087 4.704c-.054 0-.109-.013-.158-.042l-7.342-4.163c-.062-.034-.11-.088-.138-.155-.043-.105-1.075-2.61-1.075-4.915 0-1.542.395-3.885.814-4.258.069-.06.216-.109.303-.101.072.007.14.042.191.093l2.399 2.42c.212-.927.821-2.115 2.192-2.466 1.274-.333 3.533 1.015 4.444 1.606 2.038 1.32 4.198 3.275 4.43 4.657.383 2.27-5.221 6.752-5.861 7.255-.058.046-.128.07-.199.07z" transform="translate(-420 -2339) translate(370 2249) translate(50 90)"/>
                    <path fill="#000" d="M66.87 222.448s5.068 32.44 5.813 40.773c.746 8.335-.073 38.772-.073 38.772l-15.907.175-2.38-37.698-6.148 37.48-17.824-.107 8.496-79.097 28.022-.298" transform="translate(-420 -2339) translate(370 2249) translate(50 90)"/>
                    <path fill="#FFF" d="M31.438 297.942c-.175 0-.317-.143-.318-.322-.002-.181.14-.326.315-.328l16.076-.119h.003c.174 0 .317.145.318.324.001.18-.14.326-.316.328l-16.076.117h-.002M72.099 297.173H56.798c-.178 0-.322-.129-.322-.288 0-.158.144-.288.322-.288h15.3c.179 0 .322.13.322.288 0 .159-.143.288-.321.288M54.689 265.285h-.034c-.179-.019-.308-.175-.29-.351l2.13-20.465c.004-.046.019-.093.043-.133l3.368-5.597c.09-.15.29-.2.445-.11.155.089.206.287.114.438l-3.332 5.536L55.011 265c-.017.165-.158.286-.322.286M97.511 106.422L128.128 179.802 63.293 175.491 56.668 158.374 97.511 106.422" transform="translate(-420 -2339) translate(370 2249) translate(50 90)"/>
                    <path fill="#120610" d="M63.667 174.983l63.693 4.247-29.98-72.042-40.127 51.178 6.414 16.617zm64.393 5.204c-.01 0-.02 0-.03-.002l-64.711-4.315c-.176-.011-.329-.127-.393-.29l-6.611-17.127c-.058-.15-.033-.319.066-.444l40.764-51.99c.099-.128.253-.19.417-.17.16.023.296.127.358.275l30.558 73.433c.06.146.041.31-.05.44-.086.119-.223.19-.368.19z" transform="translate(-420 -2339) translate(370 2249) translate(50 90)"/>
                    <path fill="#FFF" d="M56.726 159.056L50.521 162.438 56.246 177.113 63.2 175.866 56.726 159.056" transform="translate(-420 -2339) translate(370 2249) translate(50 90)"/>
                    <path fill="#120610" d="M51.161 162.533l5.467 13.998 6.071-1.09-6.115-15.861-5.423 2.953zm5.18 14.964c-.186 0-.356-.113-.425-.288l-5.748-14.718c-.083-.213.005-.453.206-.563l6.23-3.391c.114-.066.251-.073.375-.031.123.046.22.142.267.265l6.5 16.859c.049.126.038.267-.029.384-.066.119-.182.202-.315.225l-6.982 1.25c-.027.006-.054.008-.08.008zM106.3 116.218c-.11 0-.222-.04-.309-.12-.184-.172-.195-.46-.025-.644l22.911-24.831c.171-.183.459-.195.643-.026.183.172.195.459.024.644l-22.911 24.831c-.09.096-.212.146-.334.146M116.671 130.05c-.146 0-.289-.071-.376-.201-.14-.209-.083-.49.124-.628l25.413-16.96c.21-.14.489-.082.627.126.14.207.083.488-.124.625l-25.413 16.96c-.077.053-.165.077-.25.077M123.97 145.225c-.174 0-.34-.101-.414-.27-.1-.227.005-.494.234-.593l26.373-11.395c.227-.095.496.004.596.234.098.227-.006.492-.235.591L124.15 145.19c-.059.025-.12.036-.18.036M130.887 166.164c-.208 0-.395-.144-.442-.355-.055-.244.1-.486.344-.541l26.947-6.01c.24-.053.486.1.54.344.056.244-.098.487-.344.541l-26.945 6.009c-.033.008-.066.012-.1.012M121.718 177.881c-.178 0-.347-.105-.42-.28L94.162 112.62c-.096-.233.014-.498.245-.594.232-.094.5.014.595.244l27.136 64.984c.097.228-.013.495-.245.591-.057.025-.116.036-.175.036M63.845 155.022c-.1 0-.2-.033-.284-.1-.194-.157-.226-.441-.07-.637l20.033-25.026c.157-.197.443-.226.637-.07.195.157.227.443.07.637L64.198 154.85c-.089.111-.22.171-.353.171M349.216 62.54c-2.239.536-12.302 3.378-23.894 13.325-11.929 10.235-10.373 26.508-10.002 29.3 2.598-.658 16.916-4.677 25.124-15.096 8.14-10.334 8.736-24.736 8.772-27.53zm-34.22 43.497c-.08 0-.154-.023-.22-.067-.087-.06-.147-.151-.166-.257-.033-.188-3.158-18.976 10.203-30.438 13.273-11.39 24.61-13.585 24.723-13.606.114-.02.23.01.319.08.088.073.14.18.144.296.004.166.242 16.852-8.94 28.507-9.183 11.654-25.814 15.44-25.981 15.476-.027.005-.056.01-.082.01z" transform="translate(-420 -2339) translate(370 2249) translate(50 90)"/>
                    <path fill="#120610" d="M315.045 105.461c-.084 0-.171-.027-.242-.084-.17-.135-.199-.38-.064-.55L348.34 62.58c.137-.17.382-.196.551-.063.17.134.198.38.064.55l-33.601 42.247c-.077.098-.193.148-.309.148M325.975 90.285c-.194 0-.364-.138-.393-.33l-2.087-13.05c-.033-.213.116-.412.332-.446.221-.031.422.113.456.325l2.084 13.051c.034.213-.113.412-.33.447l-.062.003" transform="translate(-420 -2339) translate(370 2249) translate(50 90)"/>
                    <path fill="#120610" d="M330.008 85.867c-.177 0-.34-.116-.387-.294l-2.852-10.94c-.055-.206.074-.418.287-.471.21-.054.43.072.485.28l2.853 10.94c.054.208-.075.42-.288.474-.033.007-.066.011-.098.011M335.984 79.336c-.2 0-.37-.146-.39-.34-.019-.207.14-.39.355-.408l11.32-.98c.213-.016.405.133.424.34.02.205-.138.388-.353.406l-11.322.982h-.034M335.009 96.817h-.017l-12.278-.54c-.217-.01-.385-.198-.376-.42.01-.223.176-.385.41-.385l12.276.54c.218.01.386.198.376.421-.01.216-.183.384-.391.384M325.082 107.542c1.39.465 5.635 1.684 10.69 1.268 5.133-.424 8.475-3.888 9.411-4.986-1.049-.608-4.45-2.216-10.119-1.697-5.744.526-9.025 4.177-9.982 5.415zm8.544 2.145c-5.263 0-9.13-1.51-9.311-1.581-.11-.045-.194-.136-.229-.246-.036-.112-.02-.236.043-.335.143-.224 3.59-5.515 10.865-6.182 7.238-.664 10.853 1.955 11.004 2.067.085.062.14.155.156.257.015.105-.012.21-.073.295-.152.207-3.803 5.102-10.246 5.634-.757.062-1.495.091-2.209.091z" transform="translate(-420 -2339) translate(370 2249) translate(50 90)"/>
                    <path fill="#120610" d="M324.65 108.342c-.184 0-.35-.128-.385-.315-.038-.207.104-.41.316-.445l20.538-3.652c.216-.037.418.1.456.308.039.21-.103.41-.315.448l-20.538 3.65c-.025.005-.049.006-.072.006" transform="translate(-420 -2339) translate(370 2249) translate(50 90)"/>
                    <path fill="#120610" d="M331.17 106.998c-.056 0-.112-.014-.165-.04-.188-.095-.268-.333-.177-.53l2.121-4.585c.092-.197.321-.279.508-.185.188.095.268.333.177.53l-2.121 4.586c-.067.14-.202.224-.343.224M335.797 106.23c-.043 0-.085-.006-.13-.022-.206-.072-.315-.296-.245-.502l1.322-3.822c.072-.205.297-.314.504-.244.206.072.315.297.245.502l-1.323 3.822c-.056.163-.21.265-.373.265M86.673 235.404c.212 3.316 2.134 23.734 18.014 49.556 16.219 26.372 48.734 27.695 52.788 27.757-.319-3.843-3.296-33.206-21.018-52.394-17.628-19.09-45.813-24.272-49.784-24.919zm71.13 78.098c-2.112 0-36.767-.464-53.781-28.132-17.405-28.3-18.15-50.198-18.155-50.418-.003-.115.045-.225.13-.302.085-.077.2-.113.314-.096.314.044 31.63 4.564 50.72 25.238 19.092 20.67 21.235 52.971 21.257 53.294.005.106-.032.212-.105.289-.073.079-.174.123-.28.127h-.1z" transform="translate(-420 -2339) translate(370 2249) translate(50 90)"/>
                    <path fill="#120610" d="M156.744 312.733c-.105 0-.211-.042-.288-.126l-69.334-75.481c-.145-.16-.135-.407.024-.551.16-.146.407-.138.553.023l69.333 75.48c.146.158.135.406-.023.552-.075.069-.17.103-.265.103M131.58 287.76l-25.153-.045c-.216-.002-.39-.163-.39-.363 0-.199.175-.36.39-.36h.001l25.153.046c.216.002.39.163.39.363 0 .199-.175.36-.39.36M102.97 281.037c-.2 0-.37-.147-.389-.345-.02-.21.14-.395.354-.413l21.5-1.929c.217-.022.406.133.426.344.02.21-.139.394-.354.413l-21.5 1.928c-.013.002-.025.002-.037.002" transform="translate(-420 -2339) translate(370 2249) translate(50 90)"/>
                    <path fill="#120610" d="M113.932 265.862h-.028c-.221-.016-.389-.201-.374-.415l1.5-21.505c.016-.216.228-.365.429-.364.222.016.39.201.374.416l-1.5 21.504c-.014.207-.191.364-.4.364M141.965 295.637c-.026 0-.052-.002-.078-.008-.21-.042-.347-.25-.304-.462l4.601-22.842c.043-.211.25-.358.458-.306.21.043.347.248.304.46l-4.601 22.844c-.037.185-.2.314-.38.314M103.407 12.807l2.128 31.18 25.952-17.431-28.08-13.749zm1.704 32.528c-.073 0-.145-.017-.213-.05-.154-.075-.256-.228-.268-.4l-2.241-32.845c-.012-.172.069-.337.212-.433.144-.096.327-.107.48-.033l29.58 14.483c.155.076.257.229.269.4.012.172-.07.337-.212.433L105.38 45.252c-.082.054-.175.083-.27.083zM195.658 10.757c-.126 0-.252-.048-.347-.143-.19-.19-.188-.496.004-.685L205.29.14c.192-.188.5-.185.69.005.19.19.187.496-.004.684L196 10.618c-.095.093-.219.14-.343.14M146.861 59.166c-.124 0-.249-.048-.343-.143-.189-.19-.187-.498.003-.685l39.756-39.372c.19-.19.498-.186.685.003.188.19.186.497-.002.685l-39.758 39.371c-.095.095-.218.14-.34.14M173.371 48.216c-.125 0-.25-.048-.344-.144-.188-.19-.186-.497.004-.685l39.756-39.37c.19-.19.496-.186.684.002.189.191.187.497-.004.685l-39.755 39.372c-.095.094-.218.14-.34.14M21.807 106.422c-.125 0-.25-.049-.344-.143-.189-.19-.186-.496.003-.685l39.757-39.372c.19-.19.496-.186.684.002.188.19.186.497-.003.686L22.147 106.28c-.094.094-.218.14-.34.14M12.87 216.89c-4.654 0-8.44 3.787-8.44 8.44s3.786 8.44 8.44 8.44c4.655 0 8.441-3.787 8.441-8.44s-3.786-8.44-8.441-8.44zm0 17.66c-5.084 0-9.22-4.136-9.22-9.22 0-5.084 4.136-9.221 9.22-9.221 5.084 0 9.221 4.137 9.221 9.221 0 5.084-4.137 9.22-9.221 9.22z" transform="translate(-420 -2339) translate(370 2249) translate(50 90)"/>
                    <path fill="#FFF" d="M192.289 87.404L213.227 87.404 213.227 74.341 192.289 74.341z" transform="translate(-420 -2339) translate(370 2249) translate(50 90)"/>
                    <path fill="#120610" d="M192.543 86.96h20.238V74.595h-20.238v12.363zm20.558.636h-20.876c-.177 0-.32-.143-.32-.32v-13c0-.175.143-.319.32-.319H213.1c.176 0 .318.144.318.32v13c0 .176-.142.319-.318.319z" transform="translate(-420 -2339) translate(370 2249) translate(50 90)"/>
                    <path fill="#FFF" d="M202.757 80.873L192.289 74.341 213.227 74.341 202.757 80.873" transform="translate(-420 -2339) translate(370 2249) translate(50 90)"/>
                    <path fill="#120610" d="M193.339 74.593l9.322 5.78 9.323-5.78H193.34zm9.322 6.472c-.057 0-.117-.015-.168-.048l-10.437-6.473c-.123-.075-.179-.221-.139-.356.039-.136.165-.23.307-.23H213.1c.142 0 .267.094.307.23.039.135-.017.281-.138.356l-10.439 6.473c-.052.033-.11.048-.169.048z" transform="translate(-420 -2339) translate(370 2249) translate(50 90)"/>
                </g>
            </g>
        </g>
    </g>
</svg>
